<svg width="428" height="436" viewBox="0 0 428 436" fill="none" xmlns="http://www.w3.org/2000/svg">
<g clip-path="url(#clip0)">
<path d="M490.964 30.8051H90.6423L84.6917 -35.487C83.7184 -46.3279 74.6328 -54.6346 63.7488 -54.6346H21.027C9.41408 -54.6346 0 -45.2205 0 -33.6076C0 -21.9947 9.41408 -12.5806 21.027 -12.5806H44.5251C57.3666 130.485 24.178 -239.287 68.7092 256.854C70.4254 276.273 80.9178 297.345 98.993 311.663C66.4042 353.281 96.1804 414.635 149.191 414.635C193.19 414.635 224.223 370.752 209.134 329.191H324.218C309.149 370.699 340.114 414.635 384.161 414.635C419.312 414.635 447.91 386.037 447.91 350.886C447.91 315.735 419.312 287.137 384.161 287.137H149.334C133.361 287.137 119.442 277.501 113.435 263.461L449.474 243.711C458.648 243.173 466.409 236.736 468.639 227.821L511.364 56.9316C514.676 43.6806 504.646 30.8051 490.964 30.8051V30.8051ZM149.191 372.581C137.23 372.581 127.498 362.848 127.498 350.886C127.498 338.923 137.23 329.191 149.191 329.191C161.154 329.191 170.886 338.923 170.886 350.886C170.886 362.848 161.154 372.581 149.191 372.581ZM384.16 372.581C372.198 372.581 362.465 362.848 362.465 350.886C362.465 338.923 372.198 329.191 384.16 329.191C396.122 329.191 405.855 338.923 405.855 350.886C405.855 362.848 396.122 372.581 384.16 372.581ZM431.587 202.637L107.774 221.666L94.4172 72.858H464.033L431.587 202.637Z" fill="white"/>
</g>
<defs>
<clipPath id="clip0">
<rect width="512" height="512" fill="white" transform="translate(0 -76)"/>
</clipPath>
</defs>
</svg>
