<svg width="173" height="173" viewBox="0 0 173 173" fill="none" xmlns="http://www.w3.org/2000/svg">
<path d="M86.5 35.1406C58.1794 35.1406 35.1406 58.1794 35.1406 86.5C35.1406 114.821 58.1794 137.859 86.5 137.859C114.821 137.859 137.859 114.821 137.859 86.5C137.859 58.1794 114.821 35.1406 86.5 35.1406ZM86.5 132.453C61.1609 132.453 40.5469 111.839 40.5469 86.5C40.5469 61.1609 61.1609 40.5469 86.5 40.5469C111.839 40.5469 132.453 61.1609 132.453 86.5C132.453 111.839 111.839 132.453 86.5 132.453Z" fill="white"/>
<path d="M86.5 45.9531C64.1425 45.9531 45.9531 64.1425 45.9531 86.5C45.9531 108.858 64.1425 127.047 86.5 127.047C108.858 127.047 127.047 108.858 127.047 86.5C127.047 64.1425 108.858 45.9531 86.5 45.9531ZM86.5 121.641C67.124 121.641 51.3594 105.876 51.3594 86.5C51.3594 67.124 67.124 51.3594 86.5 51.3594C105.876 51.3594 121.641 67.124 121.641 86.5C121.641 105.876 105.876 121.641 86.5 121.641Z" fill="white"/>
<path d="M86.5 24.3281C52.2163 24.3281 24.3281 52.219 24.3281 86.5C24.3281 120.781 52.2163 148.672 86.5 148.672C120.784 148.672 148.672 120.781 148.672 86.5C148.672 52.219 120.784 24.3281 86.5 24.3281ZM86.5 143.266C55.2005 143.266 29.7344 117.802 29.7344 86.5C29.7344 55.1978 55.2005 29.7344 86.5 29.7344C117.799 29.7344 143.266 55.1978 143.266 86.5C143.266 117.802 117.799 143.266 86.5 143.266Z" fill="white"/>
<path d="M86.5 13.5156C46.2559 13.5156 13.5156 46.2559 13.5156 86.5C13.5156 126.744 46.2559 159.484 86.5 159.484C126.744 159.484 159.484 126.744 159.484 86.5C159.484 46.2559 126.744 13.5156 86.5 13.5156ZM86.5 154.078C49.2374 154.078 18.9219 123.763 18.9219 86.5C18.9219 49.2374 49.2374 18.9219 86.5 18.9219C123.763 18.9219 154.078 49.2374 154.078 86.5C154.078 123.763 123.763 154.078 86.5 154.078Z" fill="white"/>
<path d="M86.5 2.70312C40.2928 2.70312 2.70312 40.2955 2.70312 86.5V148.672C2.70312 153.694 6.16042 157.892 10.8125 159.101V170.297H16.2188V159.101C20.8708 157.892 24.3281 153.694 24.3281 148.672V142.617C39.6738 159.603 61.861 170.297 86.5 170.297C111.139 170.297 133.326 159.603 148.672 142.617V148.672C148.672 153.694 152.129 157.892 156.781 159.101V170.297H162.188V159.101C166.84 157.892 170.297 153.694 170.297 148.672V86.5C170.297 40.2955 132.707 2.70312 86.5 2.70312ZM18.9219 148.672C18.9219 151.653 16.4972 154.078 13.5156 154.078C10.5341 154.078 8.10938 151.653 8.10938 148.672V116.075C10.8152 123.222 14.4698 129.907 18.9219 135.973V148.672ZM86.5 164.891C43.277 164.891 8.10938 129.726 8.10938 86.5C8.10938 43.2743 43.277 8.10938 86.5 8.10938C129.723 8.10938 164.891 43.2743 164.891 86.5C164.891 129.726 129.723 164.891 86.5 164.891ZM164.891 148.672C164.891 151.653 162.466 154.078 159.484 154.078C156.503 154.078 154.078 151.653 154.078 148.672V135.973C158.53 129.907 162.185 123.225 164.891 116.075V148.672Z" fill="white"/>
</svg>
