<svg width="50" height="50" viewBox="0 0 50 50" fill="none" xmlns="http://www.w3.org/2000/svg">
<circle cx="25" cy="25" r="25" fill="#D68458"/>
<g clip-path="url(#clip0)">
<path d="M15.0123 32.7665C14.6908 32.7665 14.4301 33.0272 14.4301 33.3486C14.4301 33.6696 14.169 33.9308 13.848 33.9308C13.5271 33.9308 13.2659 33.6696 13.2659 33.3486C13.2659 33.0277 13.5271 32.7665 13.848 32.7665C14.1695 32.7665 14.4301 32.5059 14.4301 32.1844C14.4301 31.863 14.1695 31.6023 13.848 31.6023C12.8851 31.6023 12.1017 32.3858 12.1017 33.3486C12.1017 34.3115 12.8851 35.095 13.848 35.095C14.811 35.095 15.5944 34.3115 15.5944 33.3486C15.5944 33.0272 15.3337 32.7665 15.0123 32.7665Z" fill="white"/>
<path d="M38.2966 32.7665C37.9751 32.7665 37.7144 33.0272 37.7144 33.3486C37.7144 33.6696 37.4533 33.9308 37.1323 33.9308C36.8114 33.9308 36.5502 33.6696 36.5502 33.3486C36.5502 33.0277 36.8114 32.7665 37.1323 32.7665C37.4538 32.7665 37.7144 32.5059 37.7144 32.1844C37.7144 31.863 37.4538 31.6023 37.1323 31.6023C36.1694 31.6023 35.386 32.3858 35.386 33.3486C35.386 34.3115 36.1694 35.095 37.1323 35.095C38.0953 35.095 38.8787 34.3115 38.8787 33.3486C38.8787 33.0272 38.618 32.7665 38.2966 32.7665Z" fill="white"/>
<path d="M44.1176 25.1991C44.1176 25.0368 44.0511 24.8901 43.9439 24.7845C43.695 24.0965 43.1906 23.5189 42.5088 23.1779C42.4906 23.1688 42.472 23.1607 42.453 23.1536L40.5292 22.4314L39.3572 17.9787C39.3556 17.9723 39.3538 17.9659 39.3518 17.9595C38.9797 16.719 37.8594 15.8854 36.5641 15.8854H32.4755V14.7212C32.4755 14.0793 31.9532 13.557 31.3113 13.557H8.02695C7.38503 13.557 6.86273 14.0793 6.86273 14.7212V31.0202C6.86273 31.6621 7.38503 32.1844 8.02695 32.1844H9.94361C9.88722 32.3732 9.84407 32.5675 9.81547 32.7665H7.44484C7.12337 32.7665 6.86273 33.0272 6.86273 33.3486C6.86273 33.6701 7.12337 33.9308 7.44484 33.9308H9.81555C10.099 35.9028 11.7989 37.4234 13.848 37.4234C15.8971 37.4234 17.5972 35.9028 17.8805 33.9308H19.087C19.087 34.8936 19.8704 35.6771 20.8333 35.6771H24.326C25.2889 35.6771 26.0723 34.8936 26.0723 33.9308H33.0999C33.3833 35.9028 35.0832 37.4234 37.1323 37.4234C39.1814 37.4234 40.8815 35.9028 41.1648 33.9308H43.5355C43.857 33.9308 44.1176 33.6701 44.1176 33.3486C44.1176 33.0272 43.857 32.7665 43.5355 32.7665H41.1648C41.1362 32.5675 41.0931 32.3732 41.0367 32.1844H42.9534C43.5953 32.1844 44.1176 31.6621 44.1176 31.0202V25.7812C44.1176 25.6444 44.1081 25.5095 44.0898 25.3768C44.1077 25.3208 44.1176 25.2611 44.1176 25.1991ZM42.9534 28.6918H42.3713V28.1097H42.9534V28.6918ZM42.5095 24.617H32.4755V23.4528H39.9373L42.0133 24.2321C42.2045 24.3316 42.3712 24.4628 42.5095 24.617ZM36.5641 17.0496C37.3382 17.0496 38.0082 17.5458 38.2341 18.2853L39.2877 22.2886H32.4755V17.0496H36.5641ZM10.3555 31.0202H8.02695V28.1097H26.0726C26.3941 28.1097 26.6547 27.849 26.6547 27.5276C26.6547 27.2061 26.3941 26.9455 26.0726 26.9455H8.02695V14.7212H31.3113V31.0202H24.326H20.8333H17.3408C17.2927 31.0202 17.2462 31.0267 17.2015 31.0377C16.4657 29.9731 15.2372 29.2739 13.848 29.2739C12.4588 29.2739 11.2304 29.9731 10.4946 31.0377C10.4499 31.0267 10.4035 31.0202 10.3555 31.0202ZM13.848 36.2592C12.2432 36.2592 10.9375 34.9535 10.9375 33.3486C10.9375 31.7438 12.2432 30.4381 13.848 30.4381C15.4529 30.4381 16.7586 31.7438 16.7586 33.3486C16.7586 34.9535 15.4529 36.2592 13.848 36.2592ZM17.8805 32.7665C17.8519 32.5675 17.8088 32.3732 17.7524 32.1844H19.1871C19.1225 32.3666 19.087 32.5625 19.087 32.7665H17.8805ZM24.9081 33.9308C24.9081 34.2517 24.6469 34.5129 24.326 34.5129H20.8333C20.5124 34.5129 20.2512 34.2517 20.2512 33.9308V33.35C20.2512 33.3495 20.2513 33.3491 20.2513 33.3486C20.2513 33.3482 20.2512 33.3477 20.2512 33.3473V32.7665C20.2512 32.4456 20.5124 32.1844 20.8333 32.1844H24.326C24.6469 32.1844 24.9081 32.4456 24.9081 32.7665V33.9308ZM25.9722 32.1844H31.8934H33.2279C33.1715 32.3732 33.1284 32.5675 33.0998 32.7665H26.0723C26.0723 32.5625 26.0368 32.3666 25.9722 32.1844ZM37.1323 36.2592C35.5275 36.2592 34.2218 34.9535 34.2218 33.3486C34.2218 31.7438 35.5275 30.4381 37.1323 30.4381C38.7372 30.4381 40.0429 31.7438 40.0429 33.3486C40.0429 34.9535 38.7372 36.2592 37.1323 36.2592ZM40.625 31.0202C40.577 31.0202 40.5305 31.0267 40.4858 31.0377C39.7499 29.9731 38.5215 29.2739 37.1323 29.2739C35.7431 29.2739 34.5147 29.9731 33.7789 31.0377C33.7342 31.0267 33.6878 31.0202 33.6398 31.0202H32.4756V25.7812H42.9535V26.9455H42.3714C41.7295 26.9455 41.2072 27.4678 41.2072 28.1097V28.6918C41.2072 29.3337 41.7295 29.856 42.3714 29.856H42.9535V31.0202H40.625Z" fill="white"/>
<path d="M21.4154 32.7665C21.2619 32.7665 21.112 32.829 21.0036 32.9368C20.8952 33.0452 20.8333 33.1958 20.8333 33.3486C20.8333 33.5021 20.8952 33.6521 21.0036 33.7605C21.112 33.8688 21.2619 33.9308 21.4154 33.9308C21.569 33.9308 21.7188 33.8688 21.8273 33.7605C21.9357 33.6521 21.9975 33.5014 21.9975 33.3486C21.9975 33.1958 21.9357 33.0452 21.8273 32.9368C21.7188 32.829 21.569 32.7665 21.4154 32.7665Z" fill="white"/>
<path d="M28.401 28.1097H29.5649C29.8864 28.1097 30.147 27.849 30.147 27.5276C30.147 27.2061 29.8864 26.9455 29.5649 26.9455H28.401C28.0795 26.9455 27.8189 27.2061 27.8189 27.5276C27.8189 27.849 28.0795 28.1097 28.401 28.1097Z" fill="white"/>
</g>
<defs>
<clipPath id="clip0">
<rect width="37.2549" height="37.2549" fill="white" transform="translate(6.86273 6.86273)"/>
</clipPath>
</defs>
</svg>
