<svg width="51" height="51" viewBox="0 0 51 51" fill="none" xmlns="http://www.w3.org/2000/svg">
<circle cx="25.5" cy="25.5" r="25.5" fill="#D68458"/>
<path d="M42.418 22.3627H41.891V20.7804V15.1554C41.891 13.3138 40.3927 11.8155 38.5511 11.8155H24.0683L14.2975 9.02381C14.2946 9.02304 14.2918 9.02262 14.2889 9.02184C14.2861 9.02107 14.2833 9.01995 14.2804 9.01924C14.2745 9.01777 14.2687 9.01706 14.2629 9.0158C14.2538 9.0139 14.2447 9.01193 14.2357 9.01045C14.2274 9.00912 14.2193 9.00827 14.2111 9.00729C14.2016 9.00616 14.1921 9.00518 14.1826 9.00462C14.1748 9.0042 14.1672 9.00413 14.1594 9.00398C14.1496 9.00384 14.1398 9.00377 14.13 9.0042C14.1228 9.00448 14.1156 9.00518 14.1084 9.00574C14.0983 9.00659 14.0883 9.0075 14.0784 9.00898C14.0716 9.00996 14.0649 9.01123 14.0583 9.01242C14.048 9.01425 14.0379 9.01622 14.0278 9.01868C14.0216 9.02023 14.0154 9.02198 14.0092 9.02374C13.999 9.0267 13.9889 9.02972 13.9787 9.03323C13.973 9.03527 13.9674 9.03745 13.9617 9.0397C13.9515 9.04364 13.9414 9.04779 13.9315 9.05236C13.9262 9.05482 13.9211 9.05749 13.9159 9.06009C13.906 9.06509 13.8962 9.07015 13.8866 9.07584C13.8816 9.07873 13.8768 9.08182 13.8719 9.08491C13.8625 9.09082 13.8532 9.09687 13.8442 9.10341C13.8395 9.10678 13.8349 9.11044 13.8303 9.11402C13.8217 9.1207 13.8131 9.12752 13.8048 9.13477C13.8002 9.13884 13.7958 9.14313 13.7913 9.14735C13.7835 9.15466 13.7759 9.16198 13.7686 9.16971C13.764 9.17456 13.7597 9.17962 13.7553 9.18469C13.7486 9.19235 13.742 9.20009 13.7357 9.20817C13.7312 9.21401 13.727 9.21998 13.7227 9.22596C13.7172 9.23377 13.7117 9.24164 13.7066 9.24973C13.7023 9.25662 13.6983 9.26379 13.6942 9.27089C13.6898 9.2787 13.6854 9.28657 13.6814 9.29466C13.6774 9.30253 13.6739 9.31062 13.6703 9.3187C13.6668 9.32665 13.6634 9.33459 13.6603 9.34275C13.6571 9.35133 13.6542 9.36012 13.6514 9.36898C13.6495 9.37467 13.6473 9.38002 13.6456 9.38578C13.6447 9.38866 13.6444 9.39148 13.6436 9.39429C13.6428 9.39717 13.6417 9.39991 13.641 9.4028L13.038 11.8154H11.3402C9.50229 11.8154 8.00661 13.3076 8.00056 15.1442C8.00049 15.1479 8 15.1515 8 15.1553V33.4365C8 33.7276 8.23695 33.9638 8.52734 33.9638C8.81844 33.9638 9.05469 33.7276 9.05469 33.4365V17.5876C9.65262 18.1498 10.4566 18.4953 11.3402 18.4953H38.5511C38.5518 18.4953 38.5523 18.4952 38.553 18.4952C39.8121 18.4962 40.8363 19.521 40.8363 20.7805V24.4721H35.0347C35.0343 24.4721 35.034 24.4722 35.0337 24.4722C35.0184 24.4722 35.0033 24.4731 34.9881 24.4745C34.9713 24.4759 34.9547 24.4783 34.9384 24.4814C34.936 24.4818 34.9336 24.482 34.9311 24.4825C34.9173 24.4852 34.9038 24.4889 34.8904 24.4927C34.8874 24.4935 34.8844 24.4941 34.8815 24.495C34.8696 24.4986 34.858 24.503 34.8464 24.5074C34.842 24.5091 34.8375 24.5105 34.833 24.5124C34.8233 24.5164 34.814 24.5211 34.8046 24.5257C34.7984 24.5286 34.7922 24.5313 34.7861 24.5345C34.7788 24.5384 34.7719 24.5428 34.7649 24.547C34.7571 24.5517 34.7491 24.5562 34.7416 24.5612C34.7364 24.5646 34.7317 24.5685 34.7268 24.5721C34.7178 24.5785 34.7087 24.5849 34.7001 24.592C34.6964 24.5951 34.693 24.5986 34.6894 24.6017C34.6802 24.6097 34.671 24.6177 34.6622 24.6264C34.6571 24.6315 34.6525 24.6372 34.6476 24.6425C34.6408 24.6499 34.6338 24.6571 34.6273 24.665C34.6164 24.6783 34.6062 24.6921 34.5966 24.7064C34.5964 24.7066 34.5962 24.7068 34.5961 24.7071L31.7837 28.9259C31.7641 28.9553 31.7475 28.9865 31.7344 29.0189C31.7294 29.031 31.7254 29.0433 31.7214 29.0555C31.7202 29.0592 31.7186 29.0628 31.7175 29.0666C31.7135 29.0796 31.7105 29.0927 31.7076 29.1058C31.7069 29.1092 31.7059 29.1126 31.7052 29.1161C31.7029 29.1279 31.7013 29.1398 31.6998 29.1516C31.6992 29.1567 31.6982 29.1618 31.6977 29.1669C31.6967 29.1767 31.6965 29.1864 31.6962 29.1961C31.6958 29.2036 31.6952 29.2111 31.6952 29.2186C31.6952 29.2258 31.6958 29.2331 31.6961 29.2403C31.6965 29.2503 31.6967 29.2603 31.6977 29.2703C31.6982 29.2752 31.6991 29.28 31.6998 29.2849C31.7013 29.297 31.7029 29.3091 31.7053 29.3211C31.7059 29.3244 31.7069 29.3276 31.7076 29.3309C31.7105 29.3442 31.7136 29.3574 31.7176 29.3705C31.7187 29.3743 31.7202 29.3778 31.7214 29.3816C31.7254 29.3939 31.7294 29.4062 31.7344 29.4183C31.7477 29.4506 31.7642 29.4818 31.7839 29.5113L34.5962 33.7295C34.5964 33.7297 34.5965 33.7298 34.5966 33.73C34.608 33.7468 34.6203 33.7629 34.6334 33.7783C34.6377 33.7833 34.6423 33.788 34.6467 33.7928C34.6556 33.8026 34.6649 33.812 34.6745 33.8211C34.6802 33.8264 34.6859 33.8316 34.6916 33.8366C34.7019 33.8454 34.7125 33.8536 34.7234 33.8617C34.7283 33.8652 34.733 33.8692 34.738 33.8726C34.7539 33.8833 34.7702 33.8932 34.7872 33.9022C34.7915 33.9045 34.7959 33.9064 34.8002 33.9085C34.8137 33.9152 34.8275 33.9215 34.8416 33.927C34.8471 33.9292 34.8526 33.9312 34.8581 33.9332C34.8716 33.9379 34.8852 33.9422 34.8991 33.9459C34.9048 33.9474 34.9104 33.9489 34.9162 33.9503C34.9305 33.9536 34.945 33.9562 34.9597 33.9583C34.965 33.959 34.9703 33.9601 34.9756 33.9607C34.9938 33.9628 35.0122 33.9639 35.0309 33.964C35.0324 33.964 35.0338 33.9643 35.0354 33.9643C35.0357 33.9643 35.036 33.9642 35.0364 33.9642H40.8365V37.6562C40.8365 38.9163 39.8114 39.9415 38.5514 39.9415H11.3405C10.0805 39.9415 9.05532 38.9163 9.05532 37.6562C9.05532 37.6535 9.05497 37.6508 9.0549 37.648V35.5461C9.0549 35.2557 8.81865 35.0188 8.52755 35.0188C8.23716 35.0188 8.00021 35.2557 8.00021 35.5461V37.6562C8.00021 37.6617 8.00084 37.667 8.00105 37.6724C8.00984 39.5066 9.50433 40.9962 11.3405 40.9962H38.5514C40.3928 40.9962 41.8909 39.4982 41.8912 37.6568C41.8912 37.6567 41.8912 37.6566 41.8912 37.6565V33.9642H42.4183C43.2904 33.9642 44 33.2547 44 32.3825V23.9444C43.9998 23.0723 43.2902 22.3627 42.418 22.3627ZM14.532 10.1877L23.8371 12.8464C23.8375 12.8466 23.838 12.8466 23.8384 12.8468L30.0749 14.6286H13.4221L14.532 10.1877ZM40.8362 18.348C40.2384 17.7859 39.4345 17.4405 38.5511 17.4405C38.5502 17.4405 38.5494 17.4406 38.5484 17.4406H11.3402C10.0801 17.4406 9.05497 16.4155 9.05497 15.1554C9.05497 13.8953 10.0801 12.8702 11.3402 12.8702H12.7744L12.335 14.6286H11.3403C11.0491 14.6286 10.813 14.8647 10.813 15.156C10.813 15.4472 11.0491 15.6833 11.3403 15.6833H12.7449C12.7456 15.6833 12.7464 15.6834 12.7471 15.6834C12.7477 15.6834 12.7483 15.6833 12.7488 15.6833H33.8383C33.839 15.6833 33.8397 15.6834 33.8403 15.6834C33.8408 15.6834 33.8414 15.6833 33.842 15.6833H37.8474C38.1386 15.6833 38.3747 15.4472 38.3747 15.156C38.3747 14.8647 38.1386 14.6286 37.8474 14.6286H33.9139L27.7595 12.8702H38.5511C39.8111 12.8702 40.8362 13.8953 40.8362 15.1554V18.348ZM42.9451 32.3822C42.9451 32.6728 42.7086 32.9093 42.418 32.9093H35.3169L32.8561 29.2183L35.3169 25.5268H42.418C42.4254 25.5268 42.4326 25.5259 42.4399 25.5256C42.6168 25.5232 42.7867 25.4917 42.9451 25.4356V32.3822ZM42.418 24.4715C42.4144 24.4715 42.4108 24.472 42.4071 24.4721H41.891V23.4174H42.418C42.7086 23.4174 42.9451 23.6538 42.9451 23.9444C42.9451 24.2351 42.7086 24.4715 42.418 24.4715Z" fill="white"/>
<path d="M37.1444 27.2846C36.0782 27.2846 35.2108 28.1521 35.2108 29.2183C35.2108 30.2845 36.0782 31.1519 37.1444 31.1519C38.2106 31.1519 39.078 30.2845 39.078 29.2183C39.078 28.1521 38.2106 27.2846 37.1444 27.2846ZM37.1444 30.0972C36.6597 30.0972 36.2655 29.703 36.2655 29.2183C36.2655 28.7336 36.6597 28.3393 37.1444 28.3393C37.6291 28.3393 38.0233 28.7336 38.0233 29.2183C38.0233 29.703 37.6291 30.0972 37.1444 30.0972Z" fill="white"/>
</svg>
