<svg width="51" height="51" viewBox="0 0 51 51" fill="none" xmlns="http://www.w3.org/2000/svg">
<circle cx="25.5" cy="25.5" r="25.5" fill="#D68458"/>
<g clip-path="url(#clip0)">
<path d="M16.2247 13.6423C16.5159 13.6423 16.752 13.4062 16.752 13.115C16.752 12.8237 16.5159 12.5876 16.2247 12.5876C15.9334 12.5876 15.6973 12.8237 15.6973 13.115C15.6973 13.4062 15.9334 13.6423 16.2247 13.6423ZM12.0059 13.6423C12.2971 13.6423 12.5333 13.4062 12.5333 13.115C12.5333 12.8237 12.2971 12.5876 12.0059 12.5876C11.7147 12.5876 11.4786 12.8237 11.4786 13.115C11.4786 13.4062 11.7146 13.6423 12.0059 13.6423ZM14.1153 13.6423C14.4065 13.6423 14.6426 13.4062 14.6426 13.115C14.6426 12.8237 14.4065 12.5876 14.1153 12.5876C13.8241 12.5876 13.5879 12.8237 13.5879 13.115C13.5879 13.4062 13.824 13.6423 14.1153 13.6423ZM13.9996 19.2289C14.0029 19.2289 14.0061 19.2289 14.0093 19.2289L18.7771 19.2301H18.7774C19.1068 19.2301 19.3865 19.0167 19.4735 18.6991C19.5605 18.3812 19.4284 18.0551 19.1449 17.8874L18.4198 17.4583C19.5852 16.3032 20.2408 14.727 20.2304 13.0757C20.2095 9.77324 17.5065 7.04799 14.2051 7.00046C10.784 6.95131 8 9.7186 8 13.1151C8 16.3722 10.6837 19.1583 13.9996 19.2289ZM10.5629 9.5109C11.5353 8.5524 12.8206 8.03595 14.19 8.05501C16.9218 8.09431 19.1584 10.3495 19.1757 13.0823C19.185 14.5567 18.5528 15.9588 17.441 16.9289C17.2551 17.0911 17.1577 17.3344 17.1802 17.5799C17.2027 17.8252 17.3428 18.0466 17.5548 18.1719L17.5601 18.175L14.0145 18.1742C11.2736 18.1216 9.05469 15.8636 9.05469 13.1151C9.05469 11.7496 9.59033 10.4696 10.5629 9.5109ZM43.4727 41.9451H42.9453V34.0919C42.9453 32.0345 41.7295 30.1661 39.8421 29.3295L37.0629 28.1383C37.7392 27.9249 38.3501 27.5444 38.8472 27.0165C39.5972 26.2202 40.0273 25.1398 40.0273 24.0521C40.0273 23.0527 39.6782 22.1094 39.0174 21.3239C38.191 20.3425 37.7359 19.0953 37.7359 17.8119V15.2848C37.7359 13.0715 36.8739 10.9911 35.3089 9.42688C33.7439 7.86172 31.6632 6.99983 29.4502 6.99983C24.8819 6.99983 21.1653 10.7164 21.1653 15.2848V17.7295C21.1656 19.0576 20.6437 20.3252 19.7956 21.3471C18.7281 22.6331 18.5064 24.3719 19.2169 25.8848C19.7442 27.0078 20.6954 27.8147 21.8341 28.1562L19.0744 29.3563C17.1382 30.171 15.887 32.0548 15.887 34.1553V40.3632C15.887 40.6544 16.1231 40.8905 16.4144 40.8905C16.7057 40.8905 16.9417 40.6544 16.9417 40.3632V34.1553C16.9417 32.4803 17.9394 30.9781 19.4892 30.3259L22.9484 28.8217V31.9959H21.3592C20.9113 31.9959 20.4826 32.1869 20.183 32.5199C19.8834 32.8529 19.7387 33.2993 19.786 33.7447L20.6553 41.9451H8.52734C8.23604 41.9451 8 42.1813 8 42.4725C8 42.7637 8.23604 42.9998 8.52734 42.9998H43.4727C43.764 42.9998 44 42.7637 44 42.4725C44 42.1813 43.764 41.9451 43.4727 41.9451ZM38.2105 22.003C38.7091 22.5957 38.9727 23.3042 38.9727 24.052C38.9727 24.8738 38.6471 25.6907 38.0795 26.2934C37.4784 26.9315 36.6528 27.2829 35.7545 27.2829H35.0673L34.1645 26.896C33.376 26.5577 32.8366 25.8328 32.7263 24.9982C34.3534 24.1221 35.462 22.4027 35.462 20.4288V16.4644C35.6164 16.4749 35.7706 16.4806 35.9243 16.4806C36.1779 16.4806 36.4306 16.4661 36.6812 16.4377V17.8118C36.6812 19.3435 37.2244 20.832 38.2105 22.003ZM29.5784 30.328C27.6919 30.3614 25.8195 30.1224 24.0031 29.6186V28.363L24.1556 28.2967C24.1568 28.2962 24.158 28.2957 24.1593 28.2952L25.1001 27.8861C26.1473 27.4308 26.8873 26.4983 27.1117 25.4086C27.5709 25.5422 28.0556 25.6151 28.5573 25.6151H30.2757C30.7794 25.6151 31.2658 25.5416 31.7266 25.4071C31.9584 26.4918 32.7012 27.4159 33.7489 27.8653L34.753 28.2957C34.7536 28.2959 34.7543 28.2962 34.7549 28.2964L34.8293 28.3283V29.5149C33.1226 30.0234 31.3582 30.297 29.5784 30.328ZM34.8291 30.6129V31.996H24.0031V30.7107C25.7127 31.1589 27.468 31.3858 29.2351 31.3858C29.3557 31.3858 29.4762 31.3847 29.5968 31.3826C31.368 31.3517 33.1247 31.0928 34.8291 30.6129ZM36.6812 15.3743C35.2286 15.5706 33.5912 15.1815 32.4631 14.3074C32.233 14.1291 31.9018 14.171 31.7233 14.4013C31.5449 14.6315 31.587 14.9627 31.8172 15.1411C32.5547 15.7125 33.4442 16.1149 34.4073 16.3179V19.1888C34.1539 19.7663 33.8718 20.2466 33.2359 20.7713C32.9681 20.9922 32.675 21.1757 32.3612 21.3212C32.1049 20.8211 31.5844 20.4778 30.9849 20.4778H29.7491C28.8967 20.4778 28.2032 21.1713 28.2032 22.0236C28.2032 22.876 28.8967 23.5695 29.7491 23.5695H30.9849C31.7022 23.5695 32.3069 23.0783 32.4805 22.4147C33.1859 22.1458 34.3362 21.1869 34.3365 21.1866C33.9793 23.1038 32.2949 24.5602 30.2758 24.5602H28.5573C26.2791 24.5602 24.4257 22.7068 24.4257 20.4286V16.3523C26.2168 16.0715 27.9088 15.4655 29.4606 14.5476C31.8234 13.15 33.339 11.3237 34.2536 9.88081C35.8186 11.2746 36.7088 13.2728 36.6812 15.3743ZM31.4759 22.0251C31.4751 22.2953 31.2552 22.5149 30.9848 22.5149H29.749C29.4781 22.5149 29.2579 22.2946 29.2579 22.0238C29.2579 21.753 29.4782 21.5326 29.749 21.5326H30.9848C31.2551 21.5326 31.475 21.7521 31.4759 22.0222V22.0251ZM22.22 15.2848C22.22 11.298 25.4634 8.05452 29.4502 8.05452C30.88 8.05452 32.2464 8.46725 33.4139 9.23563C32.5722 10.5849 31.1555 12.3199 28.9237 13.6401C27.3926 14.5457 25.7132 15.1239 23.9319 15.3586H23.899C23.8988 15.3586 23.8986 15.3586 23.8983 15.3586C23.898 15.3586 23.8979 15.3586 23.8976 15.3586H22.2199V15.2848H22.22ZM20.1714 25.4365C19.6367 24.2976 19.8036 22.9887 20.6065 22.0215C21.6138 20.8078 22.2211 19.3082 22.22 17.7295V16.4133H23.371V20.4288C23.371 22.4038 24.481 24.1241 26.1096 24.9997C26.0077 25.8406 25.4699 26.5751 24.6795 26.9188L23.8422 27.2829H23.0778C21.8199 27.2829 20.7063 26.5754 20.1714 25.4365ZM38.5291 33.6336L37.648 41.9451H21.7159L20.8348 33.6336C20.8188 33.4829 20.8658 33.3379 20.9671 33.2253C21.0684 33.1127 21.2077 33.0507 21.3592 33.0507H38.0047C38.1562 33.0507 38.2955 33.1127 38.3968 33.2253C38.4981 33.3379 38.5451 33.4829 38.5291 33.6336ZM41.8906 41.9451H38.7086L39.5779 33.7448C39.6252 33.2994 39.4804 32.853 39.1809 32.52C38.8813 32.187 38.4527 31.996 38.0047 31.996H35.8838V28.7804L39.4206 30.2963C40.9211 30.9614 41.8906 32.4513 41.8906 34.0919V41.9451ZM29.6819 35.494C28.577 35.494 27.678 36.3929 27.678 37.4979C27.678 38.6028 28.577 39.5018 29.6819 39.5018C30.7869 39.5018 31.6858 38.6028 31.6858 37.4979C31.6858 36.3929 30.7869 35.494 29.6819 35.494ZM29.6819 38.4471C29.1585 38.4471 28.7327 38.0213 28.7327 37.4979C28.7327 36.9745 29.1585 36.5487 29.6819 36.5487C30.2053 36.5487 30.6311 36.9745 30.6311 37.4979C30.6311 38.0213 30.2054 38.4471 29.6819 38.4471Z" fill="white"/>
</g>
<defs>
<clipPath id="clip0">
<rect width="36" height="36" fill="white" transform="translate(8 7)"/>
</clipPath>
</defs>
</svg>
