<svg width="51" height="51" viewBox="0 0 51 51" fill="none" xmlns="http://www.w3.org/2000/svg">
<circle cx="25.5" cy="25.5" r="25.5" fill="#D68458"/>
<path d="M42.875 9.37501H39.125C38.6402 9.37561 38.1744 9.56375 37.8253 9.90003C37.4761 10.2363 37.2706 10.6947 37.2518 11.1791L36.1125 16.875H27.5525C27.8529 16.0265 27.9452 15.1183 27.8219 14.2267C27.6985 13.3351 27.363 12.4862 26.8435 11.7511C26.3239 11.0161 25.6356 10.4165 24.8363 10.0026C24.037 9.58874 23.1501 9.37274 22.25 9.37274C21.3499 9.37274 20.4629 9.58874 19.6636 10.0026C18.8643 10.4165 18.176 11.0161 17.6565 11.7511C17.137 12.4862 16.8014 13.3351 16.6781 14.2267C16.5547 15.1183 16.6471 16.0265 16.9475 16.875H7.87497C7.78249 16.875 7.69117 16.8955 7.60759 16.9351C7.524 16.9746 7.45024 17.0322 7.39161 17.1038C7.33298 17.1753 7.29095 17.2589 7.26855 17.3486C7.24615 17.4383 7.24394 17.5319 7.26208 17.6226L9.76208 30.1226C9.79041 30.2643 9.86697 30.3917 9.97871 30.4833C10.0905 30.5749 10.2305 30.625 10.375 30.625H34.125C34.4565 30.625 34.7744 30.7567 35.0089 30.9911C35.2433 31.2255 35.375 31.5435 35.375 31.875C35.375 32.2065 35.2433 32.5245 35.0089 32.7589C34.7744 32.9933 34.4565 33.125 34.125 33.125H10.375C10.2092 33.125 10.0502 33.1908 9.93303 33.3081C9.81582 33.4253 9.74997 33.5842 9.74997 33.75V36.25C9.74997 36.4158 9.81582 36.5747 9.93303 36.6919C10.0502 36.8091 10.2092 36.875 10.375 36.875H11.3363C11.1163 37.255 11.0003 37.6862 11 38.1253C10.9996 38.5644 11.1149 38.9958 11.3342 39.3762C11.5535 39.7566 11.8692 40.0725 12.2494 40.2921C12.6296 40.5118 13.0609 40.6274 13.5 40.6274C13.939 40.6274 14.3704 40.5118 14.7506 40.2921C15.1308 40.0725 15.4464 39.7566 15.6657 39.3762C15.8851 38.9958 16.0003 38.5644 16 38.1253C15.9996 37.6862 15.8836 37.255 15.6636 36.875H28.8363C28.6163 37.255 28.5003 37.6862 28.5 38.1253C28.4996 38.5644 28.6149 38.9958 28.8342 39.3762C29.0535 39.7566 29.3692 40.0725 29.7494 40.2921C30.1296 40.5118 30.5609 40.6274 31 40.6274C31.439 40.6274 31.8704 40.5118 32.2506 40.2921C32.6308 40.0725 32.9464 39.7566 33.1657 39.3762C33.3851 38.9958 33.5003 38.5644 33.5 38.1253C33.4996 37.6862 33.3836 37.255 33.1636 36.875H34.125C34.2907 36.875 34.4497 36.8091 34.5669 36.6919C34.6841 36.5747 34.75 36.4158 34.75 36.25V34.2959C35.2769 34.16 35.745 33.8559 36.0834 33.4298C36.4218 33.0037 36.6119 32.4788 36.625 31.9348C36.638 31.3908 36.4731 30.8575 36.1555 30.4157C35.8379 29.9739 35.3848 29.6478 34.865 29.4869L37.2379 17.6226L38.1875 12.8729C38.4722 13.0383 38.7957 13.1253 39.125 13.125H42.875C43.3722 13.125 43.8492 12.9275 44.2008 12.5758C44.5524 12.2242 44.75 11.7473 44.75 11.25C44.75 10.7527 44.5524 10.2758 44.2008 9.92418C43.8492 9.57255 43.3722 9.37501 42.875 9.37501ZM14.75 38.125C14.75 38.3722 14.6767 38.6139 14.5393 38.8195C14.402 39.025 14.2067 39.1852 13.9783 39.2798C13.7499 39.3745 13.4986 39.3992 13.2561 39.351C13.0136 39.3027 12.7909 39.1837 12.6161 39.0089C12.4413 38.8341 12.3222 38.6113 12.274 38.3689C12.2258 38.1264 12.2505 37.875 12.3451 37.6466C12.4397 37.4182 12.5999 37.223 12.8055 37.0857C13.0111 36.9483 13.2527 36.875 13.5 36.875C13.8314 36.8754 14.1491 37.0072 14.3834 37.2415C14.6178 37.4759 14.7496 37.7936 14.75 38.125ZM32.25 38.125C32.25 38.3722 32.1767 38.6139 32.0393 38.8195C31.902 39.025 31.7067 39.1852 31.4783 39.2798C31.2499 39.3745 30.9986 39.3992 30.7561 39.351C30.5136 39.3027 30.2909 39.1837 30.1161 39.0089C29.9413 38.8341 29.8222 38.6113 29.774 38.3689C29.7258 38.1264 29.7505 37.875 29.8451 37.6466C29.9397 37.4182 30.0999 37.223 30.3055 37.0857C30.5111 36.9483 30.7527 36.875 31 36.875C31.3314 36.8754 31.6491 37.0072 31.8834 37.2415C32.1178 37.4759 32.2496 37.7936 32.25 38.125ZM33.5 35.625H11V34.375H33.5V35.625ZM30.8993 18.125L30.1493 23.125H25.7196L25.9126 19.2638C26.2996 18.9315 26.64 18.5484 26.9244 18.125H30.8993ZM20.0946 24.375H24.4055L24.1555 29.375H20.3445L20.0946 24.375ZM19.093 29.375H15.2883L14.5383 24.375H18.843L19.093 29.375ZM20.0321 23.125L19.8808 20.0999C20.6228 20.4458 21.4314 20.625 22.25 20.625C23.0686 20.625 23.8773 20.4458 24.6193 20.0999L24.4679 23.125H20.0321ZM25.6571 24.375H29.9618L29.2118 29.375H25.4071L25.6571 24.375ZM22.25 10.625C23.1153 10.625 23.9611 10.8816 24.6806 11.3623C25.4001 11.8431 25.9608 12.5263 26.2919 13.3258C26.6231 14.1252 26.7097 15.0049 26.5409 15.8535C26.3721 16.7022 25.9554 17.4817 25.3436 18.0936C24.7317 18.7054 23.9522 19.1221 23.1035 19.2909C22.2548 19.4597 21.3752 19.3731 20.5757 19.042C19.7763 18.7108 19.093 18.1501 18.6123 17.4306C18.1316 16.7112 17.875 15.8653 17.875 15C17.8763 13.8401 18.3376 12.728 19.1578 11.9079C19.978 11.0877 21.09 10.6263 22.25 10.625ZM18.5874 19.2638L18.7804 23.125H14.3507L13.6007 18.125H17.5756C17.8601 18.5484 18.2004 18.9315 18.5874 19.2638ZM12.3368 18.125L13.0868 23.125H9.63739L8.63739 18.125H12.3368ZM9.88739 24.375H13.2743L14.0243 29.375H10.8874L9.88739 24.375ZM33.6125 29.375H30.4757L31.2257 24.375H34.6125L33.6125 29.375ZM34.8625 23.125H31.4132L32.1632 18.125H35.8625L34.8625 23.125ZM42.875 11.875H39.125C38.9592 11.875 38.8002 11.8092 38.683 11.6919C38.5658 11.5747 38.5 11.4158 38.5 11.25C38.5 11.0842 38.5658 10.9253 38.683 10.8081C38.8002 10.6909 38.9592 10.625 39.125 10.625H42.875C43.0407 10.625 43.1997 10.6909 43.3169 10.8081C43.4341 10.9253 43.5 11.0842 43.5 11.25C43.5 11.4158 43.4341 11.5747 43.3169 11.6919C43.1997 11.8092 43.0407 11.875 42.875 11.875Z" fill="white"/>
<path d="M20.6362 17.317C20.6942 17.375 20.7631 17.421 20.839 17.4524C20.9148 17.4838 20.9961 17.5 21.0781 17.5C21.0875 17.5 21.097 17.5 21.1064 17.4994C21.1932 17.4954 21.2782 17.4735 21.356 17.4348C21.4338 17.3962 21.5027 17.3418 21.5583 17.2751L24.6833 13.5251C24.7883 13.3976 24.8386 13.2338 24.8231 13.0693C24.8077 12.9049 24.7278 12.7533 24.601 12.6476C24.4741 12.5418 24.3105 12.4906 24.146 12.5051C23.9815 12.5196 23.8294 12.5986 23.723 12.7249L21.0362 15.9491L20.2701 15.1831C20.1529 15.0658 19.9939 15 19.8281 15C19.6624 15 19.5034 15.0658 19.3862 15.1831C19.269 15.3003 19.2031 15.4592 19.2031 15.625C19.2031 15.7908 19.269 15.9497 19.3862 16.067L20.6362 17.317Z" fill="white"/>
</svg>
