<svg width="464" height="450" viewBox="0 0 464 450" fill="none" xmlns="http://www.w3.org/2000/svg">
<path d="M170.668 178H-32C-40.832 178 -48 170.832 -48 162C-48 153.168 -40.832 146 -32 146H170.668C179.5 146 186.668 153.168 186.668 162C186.668 170.832 179.5 178 170.668 178Z" fill="white"/>
<path d="M90.668 258C86.5703 258 82.4766 256.441 79.3594 253.309C73.1094 247.055 73.1094 236.922 79.3594 230.672L148.055 161.98L79.3594 93.3086C73.1094 87.0547 73.1094 76.9219 79.3594 70.6719C85.6094 64.4219 95.7422 64.4219 101.996 70.6719L181.996 150.672C188.246 156.922 188.246 167.055 181.996 173.309L101.996 253.309C98.8594 256.441 94.7617 258 90.668 258V258Z" fill="white"/>
<path d="M293.332 450C269.801 450 250.668 430.863 250.668 407.332V23.332C250.668 5.09377 262.273 -11.1836 279.551 -17.1797L407.723 -59.9101C436.395 -68.6992 464 -47.4297 464 -19.332V364.668C464 382.887 452.395 399.141 435.137 405.156L306.922 447.91C302.25 449.359 297.922 450 293.332 450V450ZM421.332 -30C419.945 -30 418.773 -29.8281 417.516 -29.4453L289.879 13.1133C285.695 14.5664 282.668 18.7891 282.668 23.332V407.332C282.668 414.609 290.559 419.516 297.152 417.445L424.789 374.887C428.949 373.434 432 369.211 432 364.668V-19.332C432 -25.1992 427.223 -30 421.332 -30V-30Z" fill="white"/>
<path d="M138.668 44.668C129.836 44.668 122.668 37.5 122.668 28.668V-3.33203C122.668 -35.6953 148.969 -62 181.332 -62H421.332C430.164 -62 437.332 -54.832 437.332 -46C437.332 -37.168 430.164 -30 421.332 -30H181.332C166.633 -30 154.668 -18.0312 154.668 -3.33203V28.668C154.668 37.5 147.5 44.668 138.668 44.668V44.668Z" fill="white"/>
<path d="M266.668 386H181.332C148.969 386 122.668 359.695 122.668 327.332V295.332C122.668 286.5 129.836 279.332 138.668 279.332C147.5 279.332 154.668 286.5 154.668 295.332V327.332C154.668 342.031 166.633 354 181.332 354H266.668C275.5 354 282.668 361.168 282.668 370C282.668 378.832 275.5 386 266.668 386Z" fill="white"/>
</svg>
