<svg width="260" height="80" viewBox="0 0 260 80" fill="none" xmlns="http://www.w3.org/2000/svg">
<g clip-path="url(#clip0)">
<path d="M68.5436 2.41452H20.3V77.5863H68.5436V2.41452Z" fill="#4A575E"/>
<path d="M68.5446 2.41452H63.7202V77.5863H68.5446V2.41452Z" fill="#3A4449"/>
<path d="M73.3678 4.8289H15.4768C14.144 4.8289 13.0636 3.74843 13.0636 2.41562V2.41328C13.0636 1.08047 14.144 0 15.4768 0H73.3677C74.7006 0 75.7811 1.08047 75.7811 2.41328V2.41562C75.7811 3.74843 74.7006 4.8289 73.3678 4.8289Z" fill="#D68458"/>
<path d="M73.3691 0H68.5447C69.8769 0 70.9569 1.08109 70.9569 2.41453C70.9569 3.74796 69.8769 4.82905 68.5447 4.82905H73.3691C74.7013 4.82905 75.7813 3.74796 75.7813 2.41453C75.7813 1.08109 74.7013 0 73.3691 0Z" fill="#424242"/>
<path d="M73.3678 79.9999H15.4768C14.144 79.9999 13.0636 78.9194 13.0636 77.5866V77.5842C13.0636 76.2514 14.144 75.171 15.4768 75.171H73.3677C74.7005 75.171 75.7809 76.2514 75.7809 77.5842V77.5866C75.7811 78.9194 74.7006 79.9999 73.3678 79.9999Z" fill="#D68458"/>
<path d="M73.3691 75.171H68.5447C69.8769 75.171 70.9569 76.2521 70.9569 77.5855C70.9569 78.9189 69.8769 80 68.5447 80H73.3691C74.7013 80 75.7813 78.9189 75.7813 77.5855C75.7811 76.2519 74.7013 75.171 73.3691 75.171Z" fill="#424242"/>
<path d="M68.7041 18.2697H20.1404C18.8076 18.2697 17.7271 17.1892 17.7271 15.8564V15.854C17.7271 14.5212 18.8076 13.4408 20.1404 13.4408H68.7041C70.0369 13.4408 71.1174 14.5212 71.1174 15.854V15.8564C71.1177 17.189 70.037 18.2697 68.7041 18.2697Z" fill="#E6E6E6"/>
<path d="M68.7041 23.0985H20.1404C18.8076 23.0985 17.7271 22.0181 17.7271 20.6853V20.6829C17.7271 19.3501 18.8076 18.2697 20.1404 18.2697H68.7041C70.0369 18.2697 71.1174 19.3501 71.1174 20.6829V20.6853C71.1177 22.0181 70.037 23.0985 68.7041 23.0985Z" fill="#CCCCCC"/>
<path d="M68.7041 27.9274H20.1404C18.8076 27.9274 17.7271 26.847 17.7271 25.5142V25.5118C17.7271 24.179 18.8076 23.0985 20.1404 23.0985H68.7041C70.0369 23.0985 71.1174 24.179 71.1174 25.5118V25.5142C71.1177 26.847 70.037 27.9274 68.7041 27.9274Z" fill="#E6E6E6"/>
<path d="M68.7041 32.7565H20.1404C18.8076 32.7565 17.7271 31.676 17.7271 30.3432V30.3409C17.7271 29.0081 18.8076 27.9276 20.1404 27.9276H68.7041C70.0369 27.9276 71.1174 29.0081 71.1174 30.3409V30.3432C71.1177 31.676 70.037 32.7565 68.7041 32.7565Z" fill="#CCCCCC"/>
<path d="M68.7041 37.5854H20.1404C18.8076 37.5854 17.7271 36.5049 17.7271 35.1721V35.1698C17.7271 33.837 18.8076 32.7565 20.1404 32.7565H68.7041C70.0369 32.7565 71.1174 33.837 71.1174 35.1698V35.1721C71.1177 36.5049 70.037 37.5854 68.7041 37.5854Z" fill="#E6E6E6"/>
<path d="M68.7041 42.4144H20.1404C18.8076 42.4144 17.7271 41.334 17.7271 40.0012V39.9988C17.7271 38.666 18.8076 37.5855 20.1404 37.5855H68.7041C70.0369 37.5855 71.1174 38.666 71.1174 39.9988V40.0012C71.1177 41.334 70.037 42.4144 68.7041 42.4144Z" fill="#CCCCCC"/>
<path d="M68.7041 47.2434H20.1404C18.8076 47.2434 17.7271 46.1629 17.7271 44.8301V44.8277C17.7271 43.4949 18.8076 42.4145 20.1404 42.4145H68.7041C70.0369 42.4145 71.1174 43.4949 71.1174 44.8277V44.8301C71.1177 46.1629 70.037 47.2434 68.7041 47.2434Z" fill="#E6E6E6"/>
<path d="M68.7041 52.0724H6.63203C5.29922 52.0724 4.21875 50.9919 4.21875 49.6591V49.6568C4.21875 48.324 5.29922 47.2435 6.63203 47.2435H68.7041C70.0369 47.2435 71.1174 48.324 71.1174 49.6568V49.6591C71.1177 50.9918 70.0371 52.0724 68.7041 52.0724Z" fill="#CCCCCC"/>
<path d="M68.7041 56.9013H20.1404C18.8076 56.9013 17.7271 55.8208 17.7271 54.488V54.4857C17.7271 53.1529 18.8076 52.0724 20.1404 52.0724H68.7041C70.0369 52.0724 71.1174 53.1529 71.1174 54.4857V54.488C71.1177 55.8208 70.037 56.9013 68.7041 56.9013Z" fill="#E6E6E6"/>
<path d="M68.7041 61.7302H20.1404C18.8076 61.7302 17.7271 60.6497 17.7271 59.3169V59.3146C17.7271 57.9818 18.8076 56.9013 20.1404 56.9013H68.7041C70.0369 56.9013 71.1174 57.9818 71.1174 59.3146V59.3169C71.1177 60.6497 70.037 61.7302 68.7041 61.7302Z" fill="#CCCCCC"/>
<path d="M68.7054 61.7302H63.881C65.2132 61.7302 66.2932 62.8113 66.2932 64.1447C66.2932 65.4782 65.2132 66.5592 63.881 66.5592H68.7054C70.0375 66.5592 71.1175 65.4782 71.1175 64.1447C71.1175 62.8113 70.0375 61.7302 68.7054 61.7302Z" fill="#CCCCCC"/>
<path d="M68.7041 66.5592H20.1404C18.8076 66.5592 17.7271 65.4788 17.7271 64.146V64.1436C17.7271 62.8108 18.8076 61.7303 20.1404 61.7303H68.7041C70.0369 61.7303 71.1174 62.8108 71.1174 64.1436V64.146C71.1177 65.4788 70.037 66.5592 68.7041 66.5592Z" fill="#E6E6E6"/>
<path d="M68.7054 61.7302H63.881C65.2132 61.7302 66.2932 62.8113 66.2932 64.1447C66.2932 65.4782 65.2132 66.5592 63.881 66.5592H68.7054C70.0375 66.5592 71.1175 65.4782 71.1175 64.1447C71.1175 62.8113 70.0375 61.7302 68.7054 61.7302Z" fill="#CCCCCC"/>
<path d="M68.7054 56.9013H63.881C65.2132 56.9013 66.2932 57.9824 66.2932 59.3158C66.2932 60.6493 65.2132 61.7304 63.881 61.7304H68.7054C70.0375 61.7304 71.1175 60.6494 71.1175 59.3158C71.1175 57.9822 70.0375 56.9013 68.7054 56.9013Z" fill="#B3B3B3"/>
<path d="M68.7054 52.0724H63.881C65.2132 52.0724 66.2932 53.1535 66.2932 54.4869C66.2932 55.8204 65.2132 56.9014 63.881 56.9014H68.7054C70.0375 56.9014 71.1175 55.8204 71.1175 54.4869C71.1177 53.1533 70.0375 52.0724 68.7054 52.0724Z" fill="#CCCCCC"/>
<path d="M68.7054 47.2433H63.881C65.2132 47.2433 66.2932 48.3244 66.2932 49.6579C66.2932 50.9913 65.2132 52.0724 63.881 52.0724H68.7054C70.0375 52.0724 71.1175 50.9913 71.1175 49.6579C71.1177 48.3244 70.0375 47.2433 68.7054 47.2433Z" fill="#B3B3B3"/>
<path d="M68.7054 42.4145H63.881C65.2132 42.4145 66.2932 43.4954 66.2932 44.829C66.2932 46.1626 65.2132 47.2435 63.881 47.2435H68.7054C70.0375 47.2435 71.1175 46.1624 71.1175 44.829C71.1175 43.4956 70.0375 42.4145 68.7054 42.4145Z" fill="#CCCCCC"/>
<path d="M68.7054 37.5854H63.881C65.2132 37.5854 66.2932 38.6665 66.2932 39.9999C66.2932 41.3334 65.2132 42.4144 63.881 42.4144H68.7054C70.0375 42.4144 71.1175 41.3334 71.1175 39.9999C71.1175 38.6665 70.0375 37.5854 68.7054 37.5854Z" fill="#B3B3B3"/>
<path d="M68.7054 32.7565H63.881C65.2132 32.7565 66.2932 33.8376 66.2932 35.171C66.2932 36.5045 65.2132 37.5856 63.881 37.5856H68.7054C70.0375 37.5856 71.1175 36.5045 71.1175 35.171C71.1177 33.8374 70.0375 32.7565 68.7054 32.7565Z" fill="#CCCCCC"/>
<path d="M68.7054 27.9275H63.881C65.2132 27.9275 66.2932 29.0086 66.2932 30.342C66.2932 31.6754 65.2132 32.7565 63.881 32.7565H68.7054C70.0375 32.7565 71.1175 31.6754 71.1175 30.342C71.1175 29.0086 70.0375 27.9275 68.7054 27.9275Z" fill="#B3B3B3"/>
<path d="M68.7054 23.0985H63.881C65.2132 23.0985 66.2932 24.1796 66.2932 25.5131C66.2932 26.8465 65.2132 27.9276 63.881 27.9276H68.7054C70.0375 27.9276 71.1175 26.8465 71.1175 25.5131C71.1177 24.1795 70.0375 23.0985 68.7054 23.0985Z" fill="#CCCCCC"/>
<path d="M68.7054 18.2697H63.881C65.2132 18.2697 66.2932 19.3507 66.2932 20.6842C66.2932 22.0176 65.2132 23.0987 63.881 23.0987H68.7054C70.0375 23.0987 71.1175 22.0176 71.1175 20.6842C71.1175 19.3507 70.0375 18.2697 68.7054 18.2697Z" fill="#B3B3B3"/>
<path d="M68.7054 13.4406H63.881C65.2132 13.4406 66.2932 14.5217 66.2932 15.8551C66.2932 17.1886 65.2132 18.2697 63.881 18.2697H68.7054C70.0375 18.2697 71.1175 17.1886 71.1175 15.8551C71.1175 14.5217 70.0375 13.4406 68.7054 13.4406Z" fill="#CCCCCC"/>
</g>
<path d="M105.635 29.541H102.594V40H97.3203V14.4062H102.594V24.6543H105.002L111.26 14.4062H117.693L109.801 26.5176L118.52 40H112.227L105.635 29.541ZM135.008 34.7266H125.762L124.004 40H118.396L127.924 14.4062H132.811L142.391 40H136.783L135.008 34.7266ZM127.186 30.4551H133.584L130.367 20.875L127.186 30.4551ZM161.48 18.6777H150.055V23.6348H154.168C157.18 23.6348 159.564 24.3672 161.322 25.832C163.092 27.2852 163.977 29.248 163.977 31.7207C163.977 34.2051 163.098 36.2031 161.34 37.7148C159.594 39.2148 157.268 39.9766 154.361 40H144.729V14.4062H161.48V18.6777ZM150.055 27.8887V35.7637H154.256C155.604 35.7637 156.676 35.3945 157.473 34.6562C158.281 33.918 158.686 32.9277 158.686 31.6855C158.686 30.5254 158.299 29.6113 157.525 28.9434C156.764 28.2637 155.715 27.9121 154.379 27.8887H150.055ZM182.75 28.9082H172.625V35.7637H184.508V40H167.352V14.4062H184.473V18.6777H172.625V24.7773H182.75V28.9082ZM208.414 14.4062V40H203.123V18.6777H196.303L195.881 27.7129C195.705 30.7598 195.318 33.1621 194.721 34.9199C194.123 36.666 193.25 37.9492 192.102 38.7695C190.953 39.5781 189.383 39.9883 187.391 40H186.02V35.7637L186.898 35.6758C188.223 35.5 189.166 34.7383 189.729 33.3906C190.303 32.0312 190.666 29.6172 190.818 26.1484L191.258 14.4062H208.414ZM218.293 23.6348H222.406C225.418 23.6348 227.803 24.3672 229.561 25.832C231.33 27.2852 232.215 29.248 232.215 31.7207C232.215 34.2051 231.336 36.2031 229.578 37.7148C227.832 39.2148 225.506 39.9766 222.6 40H212.984V14.4062H218.293V23.6348ZM218.293 27.8887V35.7637H222.494C223.842 35.7637 224.914 35.3945 225.711 34.6562C226.52 33.918 226.924 32.9277 226.924 31.6855C226.924 30.5254 226.537 29.6113 225.764 28.9434C225.002 28.2637 223.953 27.9121 222.617 27.8887H218.293Z" fill="#424242"/>
<path d="M100.052 64.6582V69H96.9668V56.2031H102.073C103.052 56.2031 103.916 56.3848 104.666 56.748C105.422 57.1055 106.005 57.6182 106.415 58.2861C106.831 58.9482 107.039 59.7012 107.039 60.5449C107.039 61.793 106.591 62.792 105.694 63.542C104.804 64.2861 103.579 64.6582 102.021 64.6582H100.052ZM100.052 62.2764H102.073C102.671 62.2764 103.125 62.127 103.436 61.8281C103.752 61.5293 103.91 61.1074 103.91 60.5625C103.91 59.9648 103.749 59.4873 103.427 59.1299C103.104 58.7725 102.665 58.5908 102.108 58.585H100.052V62.2764ZM113.446 64.4824H111.776V69H108.691V56.2031H113.728C115.245 56.2031 116.432 56.54 117.287 57.2139C118.143 57.8877 118.57 58.8398 118.57 60.0703C118.57 60.9609 118.389 61.6992 118.025 62.2852C117.668 62.8711 117.105 63.3457 116.338 63.709L119.01 68.8682V69H115.705L113.446 64.4824ZM111.776 62.1006H113.728C114.313 62.1006 114.753 61.9482 115.046 61.6436C115.345 61.333 115.494 60.9023 115.494 60.3516C115.494 59.8008 115.345 59.3701 115.046 59.0596C114.747 58.7432 114.308 58.585 113.728 58.585H111.776V62.1006ZM131.271 62.8652C131.271 64.1133 131.039 65.2178 130.576 66.1787C130.113 67.1396 129.454 67.8809 128.599 68.4023C127.749 68.918 126.779 69.1758 125.689 69.1758C124.6 69.1758 123.633 68.9268 122.789 68.4287C121.945 67.9248 121.286 67.207 120.812 66.2754C120.343 65.3438 120.097 64.2744 120.073 63.0674V62.3467C120.073 61.0928 120.302 59.9883 120.759 59.0332C121.222 58.0723 121.881 57.3311 122.736 56.8096C123.598 56.2881 124.576 56.0273 125.672 56.0273C126.756 56.0273 127.723 56.2852 128.572 56.8008C129.422 57.3164 130.081 58.0518 130.55 59.0068C131.024 59.9561 131.265 61.0459 131.271 62.2764V62.8652ZM128.133 62.3291C128.133 61.0576 127.919 60.0938 127.491 59.4375C127.069 58.7754 126.463 58.4443 125.672 58.4443C124.125 58.4443 123.308 59.6045 123.22 61.9248L123.211 62.8652C123.211 64.1191 123.419 65.083 123.835 65.7568C124.251 66.4307 124.869 66.7676 125.689 66.7676C126.469 66.7676 127.069 66.4365 127.491 65.7744C127.913 65.1123 128.127 64.1602 128.133 62.918V62.3291Z" fill="white"/>
<rect x="95" y="47" width="138" height="4" rx="2" fill="#D68458"/>
<defs>
<clipPath id="clip0">
<rect width="80" height="80" fill="white"/>
</clipPath>
</defs>
</svg>
