<svg width="260" height="80" viewBox="0 0 260 80" fill="none" xmlns="http://www.w3.org/2000/svg">
<g clip-path="url(#clip0)">
<path d="M68.5436 2.41452H20.3V77.5863H68.5436V2.41452Z" fill="#4A575E"/>
<path d="M68.5446 2.41452H63.7202V77.5863H68.5446V2.41452Z" fill="#3A4449"/>
<path d="M73.3678 4.8289H15.4769C14.144 4.8289 13.0636 3.74843 13.0636 2.41562V2.41328C13.0636 1.08047 14.144 0 15.4769 0H73.3677C74.7006 0 75.7811 1.08047 75.7811 2.41328V2.41562C75.7811 3.74843 74.7006 4.8289 73.3678 4.8289Z" fill="#D68458"/>
<path d="M73.3691 0H68.5447C69.8769 0 70.9569 1.08109 70.9569 2.41453C70.9569 3.74796 69.8769 4.82905 68.5447 4.82905H73.3691C74.7013 4.82905 75.7813 3.74796 75.7813 2.41453C75.7813 1.08109 74.7013 0 73.3691 0Z" fill="#424242"/>
<path d="M73.3678 79.9999H15.4769C14.1441 79.9999 13.0636 78.9194 13.0636 77.5866V77.5842C13.0636 76.2514 14.1441 75.171 15.4769 75.171H73.3677C74.7005 75.171 75.781 76.2514 75.781 77.5842V77.5866C75.7811 78.9194 74.7007 79.9999 73.3678 79.9999Z" fill="#D68458"/>
<path d="M73.3691 75.171H68.5447C69.8769 75.171 70.9569 76.2521 70.9569 77.5855C70.9569 78.9189 69.8769 80 68.5447 80H73.3691C74.7013 80 75.7813 78.9189 75.7813 77.5855C75.7811 76.2519 74.7013 75.171 73.3691 75.171Z" fill="#424242"/>
<path d="M68.7041 18.2697H20.1404C18.8076 18.2697 17.7271 17.1892 17.7271 15.8564V15.854C17.7271 14.5212 18.8076 13.4408 20.1404 13.4408H68.7041C70.0369 13.4408 71.1174 14.5212 71.1174 15.854V15.8564C71.1177 17.189 70.037 18.2697 68.7041 18.2697Z" fill="#E6E6E6"/>
<path d="M68.7041 23.0985H20.1404C18.8076 23.0985 17.7271 22.0181 17.7271 20.6853V20.6829C17.7271 19.3501 18.8076 18.2697 20.1404 18.2697H68.7041C70.0369 18.2697 71.1174 19.3501 71.1174 20.6829V20.6853C71.1177 22.0181 70.037 23.0985 68.7041 23.0985Z" fill="#CCCCCC"/>
<path d="M68.7041 27.9274H20.1404C18.8076 27.9274 17.7271 26.847 17.7271 25.5142V25.5118C17.7271 24.179 18.8076 23.0985 20.1404 23.0985H68.7041C70.0369 23.0985 71.1174 24.179 71.1174 25.5118V25.5142C71.1177 26.847 70.037 27.9274 68.7041 27.9274Z" fill="#E6E6E6"/>
<path d="M68.7041 32.7565H20.1404C18.8076 32.7565 17.7271 31.676 17.7271 30.3432V30.3409C17.7271 29.0081 18.8076 27.9276 20.1404 27.9276H68.7041C70.0369 27.9276 71.1174 29.0081 71.1174 30.3409V30.3432C71.1177 31.676 70.037 32.7565 68.7041 32.7565Z" fill="#CCCCCC"/>
<path d="M68.7041 37.5854H20.1404C18.8076 37.5854 17.7271 36.5049 17.7271 35.1721V35.1698C17.7271 33.837 18.8076 32.7565 20.1404 32.7565H68.7041C70.0369 32.7565 71.1174 33.837 71.1174 35.1698V35.1721C71.1177 36.5049 70.037 37.5854 68.7041 37.5854Z" fill="#E6E6E6"/>
<path d="M68.7041 42.4144H20.1404C18.8076 42.4144 17.7271 41.334 17.7271 40.0012V39.9988C17.7271 38.666 18.8076 37.5855 20.1404 37.5855H68.7041C70.0369 37.5855 71.1174 38.666 71.1174 39.9988V40.0012C71.1177 41.334 70.037 42.4144 68.7041 42.4144Z" fill="#CCCCCC"/>
<path d="M68.7041 47.2434H20.1404C18.8076 47.2434 17.7271 46.1629 17.7271 44.8301V44.8277C17.7271 43.4949 18.8076 42.4145 20.1404 42.4145H68.7041C70.0369 42.4145 71.1174 43.4949 71.1174 44.8277V44.8301C71.1177 46.1629 70.037 47.2434 68.7041 47.2434Z" fill="#E6E6E6"/>
<path d="M68.7041 52.0724H6.63201C5.2992 52.0724 4.21873 50.9919 4.21873 49.6591V49.6568C4.21873 48.324 5.2992 47.2435 6.63201 47.2435H68.7041C70.0369 47.2435 71.1174 48.324 71.1174 49.6568V49.6591C71.1177 50.9918 70.0371 52.0724 68.7041 52.0724Z" fill="#CCCCCC"/>
<path d="M68.7041 56.9013H20.1404C18.8076 56.9013 17.7271 55.8208 17.7271 54.488V54.4857C17.7271 53.1529 18.8076 52.0724 20.1404 52.0724H68.7041C70.0369 52.0724 71.1174 53.1529 71.1174 54.4857V54.488C71.1177 55.8208 70.037 56.9013 68.7041 56.9013Z" fill="#E6E6E6"/>
<path d="M68.7041 61.7302H20.1404C18.8076 61.7302 17.7271 60.6497 17.7271 59.3169V59.3146C17.7271 57.9818 18.8076 56.9013 20.1404 56.9013H68.7041C70.0369 56.9013 71.1174 57.9818 71.1174 59.3146V59.3169C71.1177 60.6497 70.037 61.7302 68.7041 61.7302Z" fill="#CCCCCC"/>
<path d="M68.7054 61.7302H63.881C65.2132 61.7302 66.2932 62.8113 66.2932 64.1447C66.2932 65.4782 65.2132 66.5592 63.881 66.5592H68.7054C70.0375 66.5592 71.1175 65.4782 71.1175 64.1447C71.1175 62.8113 70.0375 61.7302 68.7054 61.7302Z" fill="#CCCCCC"/>
<path d="M68.7041 66.5592H20.1404C18.8076 66.5592 17.7271 65.4788 17.7271 64.146V64.1436C17.7271 62.8108 18.8076 61.7303 20.1404 61.7303H68.7041C70.0369 61.7303 71.1174 62.8108 71.1174 64.1436V64.146C71.1177 65.4788 70.037 66.5592 68.7041 66.5592Z" fill="#E6E6E6"/>
<path d="M68.7054 61.7302H63.881C65.2132 61.7302 66.2932 62.8113 66.2932 64.1447C66.2932 65.4782 65.2132 66.5592 63.881 66.5592H68.7054C70.0375 66.5592 71.1175 65.4782 71.1175 64.1447C71.1175 62.8113 70.0375 61.7302 68.7054 61.7302Z" fill="#CCCCCC"/>
<path d="M68.7054 56.9013H63.881C65.2132 56.9013 66.2932 57.9824 66.2932 59.3158C66.2932 60.6493 65.2132 61.7304 63.881 61.7304H68.7054C70.0375 61.7304 71.1175 60.6494 71.1175 59.3158C71.1175 57.9822 70.0375 56.9013 68.7054 56.9013Z" fill="#B3B3B3"/>
<path d="M68.7054 52.0724H63.881C65.2132 52.0724 66.2932 53.1535 66.2932 54.4869C66.2932 55.8204 65.2132 56.9014 63.881 56.9014H68.7054C70.0375 56.9014 71.1175 55.8204 71.1175 54.4869C71.1177 53.1533 70.0375 52.0724 68.7054 52.0724Z" fill="#CCCCCC"/>
<path d="M68.7054 47.2433H63.881C65.2132 47.2433 66.2932 48.3244 66.2932 49.6579C66.2932 50.9913 65.2132 52.0724 63.881 52.0724H68.7054C70.0375 52.0724 71.1175 50.9913 71.1175 49.6579C71.1177 48.3244 70.0375 47.2433 68.7054 47.2433Z" fill="#B3B3B3"/>
<path d="M68.7054 42.4145H63.881C65.2132 42.4145 66.2932 43.4954 66.2932 44.829C66.2932 46.1626 65.2132 47.2435 63.881 47.2435H68.7054C70.0375 47.2435 71.1175 46.1624 71.1175 44.829C71.1175 43.4956 70.0375 42.4145 68.7054 42.4145Z" fill="#CCCCCC"/>
<path d="M68.7054 37.5854H63.881C65.2132 37.5854 66.2932 38.6665 66.2932 39.9999C66.2932 41.3334 65.2132 42.4144 63.881 42.4144H68.7054C70.0375 42.4144 71.1175 41.3334 71.1175 39.9999C71.1175 38.6665 70.0375 37.5854 68.7054 37.5854Z" fill="#B3B3B3"/>
<path d="M68.7054 32.7565H63.881C65.2132 32.7565 66.2932 33.8376 66.2932 35.171C66.2932 36.5045 65.2132 37.5856 63.881 37.5856H68.7054C70.0375 37.5856 71.1175 36.5045 71.1175 35.171C71.1177 33.8374 70.0375 32.7565 68.7054 32.7565Z" fill="#CCCCCC"/>
<path d="M68.7054 27.9275H63.881C65.2132 27.9275 66.2932 29.0086 66.2932 30.342C66.2932 31.6754 65.2132 32.7565 63.881 32.7565H68.7054C70.0375 32.7565 71.1175 31.6754 71.1175 30.342C71.1175 29.0086 70.0375 27.9275 68.7054 27.9275Z" fill="#B3B3B3"/>
<path d="M68.7054 23.0985H63.881C65.2132 23.0985 66.2932 24.1796 66.2932 25.5131C66.2932 26.8465 65.2132 27.9276 63.881 27.9276H68.7054C70.0375 27.9276 71.1175 26.8465 71.1175 25.5131C71.1177 24.1795 70.0375 23.0985 68.7054 23.0985Z" fill="#CCCCCC"/>
<path d="M68.7054 18.2697H63.881C65.2132 18.2697 66.2932 19.3507 66.2932 20.6842C66.2932 22.0176 65.2132 23.0987 63.881 23.0987H68.7054C70.0375 23.0987 71.1175 22.0176 71.1175 20.6842C71.1175 19.3507 70.0375 18.2697 68.7054 18.2697Z" fill="#B3B3B3"/>
<path d="M68.7054 13.4406H63.881C65.2132 13.4406 66.2932 14.5217 66.2932 15.8551C66.2932 17.1886 65.2132 18.2697 63.881 18.2697H68.7054C70.0375 18.2697 71.1175 17.1886 71.1175 15.8551C71.1175 14.5217 70.0375 13.4406 68.7054 13.4406Z" fill="#CCCCCC"/>
</g>
<path d="M106.76 30.6309H102.559V40H97.2852V14.4062H106.795C109.818 14.4062 112.15 15.0801 113.791 16.4277C115.432 17.7754 116.252 19.6797 116.252 22.1406C116.252 23.8867 115.871 25.3457 115.109 26.5176C114.359 27.6777 113.217 28.6035 111.682 29.2949L117.219 39.7539V40H111.559L106.76 30.6309ZM102.559 26.3594H106.812C108.137 26.3594 109.162 26.0254 109.889 25.3574C110.615 24.6777 110.979 23.7461 110.979 22.5625C110.979 21.3555 110.633 20.4062 109.941 19.7148C109.262 19.0234 108.213 18.6777 106.795 18.6777H102.559V26.3594ZM125.885 40H120.611V14.4062H125.885V40ZM151.812 27.7832C151.812 30.3027 151.367 32.5117 150.477 34.4102C149.586 36.3086 148.309 37.7734 146.645 38.8047C144.992 39.8359 143.094 40.3516 140.949 40.3516C138.828 40.3516 136.936 39.8418 135.271 38.8223C133.607 37.8027 132.318 36.3496 131.404 34.4629C130.49 32.5645 130.027 30.3848 130.016 27.9238V26.6582C130.016 24.1387 130.467 21.9238 131.369 20.0137C132.283 18.0918 133.566 16.6211 135.219 15.6016C136.883 14.5703 138.781 14.0547 140.914 14.0547C143.047 14.0547 144.939 14.5703 146.592 15.6016C148.256 16.6211 149.539 18.0918 150.441 20.0137C151.355 21.9238 151.812 24.1328 151.812 26.6406V27.7832ZM146.469 26.623C146.469 23.9395 145.988 21.9004 145.027 20.5059C144.066 19.1113 142.695 18.4141 140.914 18.4141C139.145 18.4141 137.779 19.1055 136.818 20.4883C135.857 21.8594 135.371 23.875 135.359 26.5352V27.7832C135.359 30.3965 135.84 32.4238 136.801 33.8652C137.762 35.3066 139.145 36.0273 140.949 36.0273C142.719 36.0273 144.078 35.3359 145.027 33.9531C145.977 32.5586 146.457 30.5312 146.469 27.8711V26.623Z" fill="#424242"/>
<path d="M101.493 63.9375H100.034V69H96.9492V56.2031H100.034V61.1514H101.221L103.682 56.2031H107.417L103.901 62.1094L107.856 69H104.209L101.493 63.9375ZM115.89 66.6094H111.662L110.924 69H107.628L112.321 56.2031H115.222L119.95 69H116.637L115.89 66.6094ZM112.4 64.2275H115.151L113.771 59.7891L112.4 64.2275ZM129.539 58.585H123.993V60.6064H125.584C126.598 60.6064 127.494 60.7793 128.273 61.125C129.053 61.4707 129.65 61.96 130.066 62.5928C130.488 63.2197 130.699 63.9404 130.699 64.7549C130.699 66.0146 130.23 67.0371 129.293 67.8223C128.361 68.6074 127.107 69 125.531 69H120.891V56.2031H129.539V58.585ZM123.993 62.9795V66.627H125.575C126.202 66.627 126.697 66.4512 127.061 66.0996C127.43 65.748 127.614 65.2939 127.614 64.7373C127.614 64.21 127.433 63.7852 127.069 63.4629C126.706 63.1406 126.202 62.9795 125.558 62.9795H123.993ZM140.077 63.5771H135.226V66.627H140.956V69H132.141V56.2031H140.974V58.585H135.226V61.2832H140.077V63.5771ZM152.979 56.2031V69H149.895V58.585H147.021L146.81 62.8828C146.722 64.3652 146.517 65.5488 146.194 66.4336C145.872 67.3184 145.412 67.9658 144.814 68.376C144.223 68.7803 143.414 68.9883 142.389 69H141.562V66.627L141.993 66.583C142.608 66.4951 143.054 66.1201 143.329 65.458C143.604 64.79 143.783 63.668 143.865 62.0918L144.085 56.2031H152.979ZM158.007 60.6064H159.598C160.611 60.6064 161.508 60.7793 162.287 61.125C163.066 61.4707 163.664 61.96 164.08 62.5928C164.502 63.2197 164.713 63.9404 164.713 64.7549C164.713 66.0146 164.244 67.0371 163.307 67.8223C162.375 68.6074 161.121 69 159.545 69H154.913V56.2031H158.007V60.6064ZM158.007 62.9795V66.627H159.589C160.216 66.627 160.711 66.4512 161.074 66.0996C161.443 65.748 161.628 65.2939 161.628 64.7373C161.628 64.21 161.446 63.7852 161.083 63.4629C160.72 63.1406 160.216 62.9795 159.571 62.9795H158.007Z" fill="white"/>
<rect x="95" y="47" width="71" height="4" rx="2" fill="#D68458"/>
<defs>
<clipPath id="clip0">
<rect width="80" height="80" fill="white"/>
</clipPath>
</defs>
</svg>
