<svg width="442" height="442" viewBox="0 0 442 442" fill="none" xmlns="http://www.w3.org/2000/svg">
<path d="M442 360.75V81.25C442 76.075 440.008 71.369 436.771 67.814C436.722 67.756 436.667 67.701 436.616 67.643C432.962 63.721 427.77 61.25 422 61.25H20C14.237 61.25 9.051 63.715 5.398 67.628C5.342 67.692 5.281 67.753 5.226 67.817C1.991 71.372 0 76.077 0 81.25V360.75C0 365.926 1.993 370.634 5.231 374.189C5.275 374.242 5.325 374.291 5.371 374.343C9.025 378.273 14.223 380.75 20 380.75H422C427.77 380.75 432.962 378.279 436.616 374.357C436.667 374.299 436.722 374.245 436.771 374.186C440.008 370.631 442 365.925 442 360.75ZM98.04 279.059C94.057 275.234 87.726 275.363 83.901 279.347L20 345.897V96.103L139.924 221L107.529 254.739C103.704 258.722 103.833 265.053 107.817 268.878C109.755 270.739 112.25 271.665 114.741 271.665C117.368 271.665 119.992 270.636 121.956 268.591L153.788 235.439L199.935 283.5C205.523 289.32 213.004 292.525 221 292.525C228.996 292.525 236.477 289.319 242.065 283.5L288.212 235.439L408.535 360.75H33.465L98.327 293.198C102.152 289.215 102.023 282.884 98.04 279.059ZM227.639 269.648C225.858 271.503 223.5 272.525 221 272.525C218.5 272.525 216.143 271.503 214.361 269.648L33.465 81.25H408.534L227.639 269.648ZM302.076 221L422 96.103L422.002 345.9L302.076 221Z" fill="white"/>
</svg>
