<svg width="20" height="20" viewBox="0 0 20 20" fill="none" xmlns="http://www.w3.org/2000/svg">
<path d="M20 16.3235V3.67646C20 3.4423 19.9099 3.22936 19.7634 3.0685C19.7612 3.06587 19.7587 3.06338 19.7564 3.06076C19.591 2.88329 19.3561 2.77148 19.095 2.77148H0.904977C0.644208 2.77148 0.409548 2.88302 0.244253 3.06008C0.241719 3.06298 0.238959 3.06574 0.236471 3.06863C0.0900905 3.22949 0 3.44239 0 3.67646V16.3235C0 16.5577 0.090181 16.7708 0.236697 16.9316C0.238688 16.934 0.24095 16.9362 0.243032 16.9386C0.408371 17.1164 0.643575 17.2285 0.904977 17.2285H19.095C19.3561 17.2285 19.591 17.1167 19.7564 16.9392C19.7587 16.9366 19.7612 16.9342 19.7634 16.9315C19.9099 16.7706 20 16.5577 20 16.3235ZM4.4362 12.6271C4.25597 12.454 3.9695 12.4599 3.79643 12.6401L0.904977 15.6514V4.34854L6.3314 9.99999L4.86557 11.5266C4.69249 11.7069 4.69833 11.9933 4.8786 12.1664C4.96629 12.2506 5.07919 12.2925 5.1919 12.2925C5.31077 12.2925 5.4295 12.246 5.51837 12.1534L6.95873 10.6533L9.04683 12.828C9.29968 13.0914 9.63819 13.2364 10 13.2364C10.3618 13.2364 10.7003 13.0913 10.9532 12.828L13.0413 10.6533L18.4857 16.3235H1.51425L4.44919 13.2669C4.62226 13.0866 4.61643 12.8002 4.4362 12.6271ZM10.3004 12.2013C10.2198 12.2852 10.1131 12.3314 10 12.3314C9.88688 12.3314 9.78023 12.2852 9.69959 12.2013L1.51425 3.67646H18.4857L10.3004 12.2013ZM13.6686 9.99999L19.095 4.34854L19.0951 15.6516L13.6686 9.99999Z" fill="#D68458"/>
</svg>
