<svg width="20" height="20" viewBox="0 0 20 20" fill="none" xmlns="http://www.w3.org/2000/svg">
<path d="M9.9704 0C5.92265 0 2.62918 3.29347 2.62918 7.34163C2.62918 8.39755 2.8453 9.40571 3.27122 10.3384C5.10673 14.3549 8.62592 18.5955 9.66102 19.7994C9.73857 19.8894 9.85163 19.9412 9.97061 19.9412C10.0896 19.9412 10.2026 19.8894 10.2802 19.7994C11.3149 18.5957 14.8341 14.3553 16.6702 10.3384C17.0963 9.40571 17.3122 8.39755 17.3122 7.34163C17.3118 3.29347 14.0184 0 9.9704 0ZM9.9704 11.1549C7.86775 11.1549 6.15694 9.44408 6.15694 7.34143C6.15694 5.23857 7.86775 3.52775 9.9704 3.52775C12.0731 3.52775 13.7839 5.23857 13.7839 7.34143C13.7841 9.44408 12.0733 11.1549 9.9704 11.1549Z" fill="#D68458"/>
</svg>
