<svg width="98" height="98" viewBox="0 0 98 98" fill="none" xmlns="http://www.w3.org/2000/svg">
<g clip-path="url(#clip0)">
<path d="M48.855 0C29.021 0 12.883 16.138 12.883 35.974C12.883 41.148 13.942 46.088 16.029 50.658C25.023 70.339 42.267 91.118 47.339 97.017C47.719 97.458 48.273 97.712 48.856 97.712C49.439 97.712 49.993 97.458 50.373 97.017C55.443 91.119 72.687 70.341 81.684 50.658C83.772 46.088 84.83 41.148 84.83 35.974C84.828 16.138 68.69 0 48.855 0ZM48.855 54.659C38.552 54.659 30.169 46.276 30.169 35.973C30.169 25.669 38.552 17.286 48.855 17.286C59.158 17.286 67.541 25.669 67.541 35.973C67.542 46.276 59.159 54.659 48.855 54.659Z" fill="white"/>
</g>
<defs>
<clipPath id="clip0">
<rect width="97.713" height="97.713" fill="white"/>
</clipPath>
</defs>
</svg>
