<svg width="50" height="50" viewBox="0 0 50 50" fill="none" xmlns="http://www.w3.org/2000/svg">
<circle cx="25" cy="25" r="25" fill="white"/>
<g clip-path="url(#clip0)">
<path d="M36.3468 30.6136L32.9975 27.2643C31.8013 26.0681 29.7679 26.5467 29.2894 28.1016C28.9305 29.1782 27.7344 29.7763 26.6578 29.537C24.2655 28.9389 21.0358 25.8289 20.4377 23.317C20.0789 22.2404 20.7966 21.0442 21.8731 20.6854C23.4282 20.2069 23.9066 18.1734 22.7105 16.9773L19.3612 13.628C18.4043 12.7907 16.9688 12.7907 16.1315 13.628L13.8588 15.9007C11.5861 18.293 14.098 24.6327 19.72 30.2547C25.342 35.8767 31.6817 38.5083 34.0741 36.116L36.3468 33.8432C37.1841 32.8863 37.1841 31.4509 36.3468 30.6136Z" fill="#D68458"/>
</g>
<defs>
<clipPath id="clip0">
<rect width="24" height="24" fill="white" transform="translate(13 13)"/>
</clipPath>
</defs>
</svg>
