<svg xmlns="http://www.w3.org/2000/svg">
<defs>
<font id="PTSansPro-Demi" horiz-adv-x="555" >
  <font-face 
    font-family="PTSansPro-Demi"
    font-weight="400"
    font-stretch="normal"
    units-per-em="1000"
    panose-1="2 11 6 3 2 2 3 2 2 4"
    ascent="770"
    descent="-230"
    x-height="500"
    cap-height="700"
    bbox="-440 -258.003 1137 1001"
    underline-thickness="50"
    underline-position="-50"
    unicode-range="U+0020-FB04"
  />
<missing-glyph horiz-adv-x="750" 
d="M50 0v700h650v-700h-650zM620 570l-50 50l-195 -217l-195 217l-50 -50l197 -220l-197 -220l50 -50l195 217l195 -217l50 50l-198 220zM129 63v-36h8v12h4c10.667 0 16 4 16 12s-5.66699 12 -17 12h-11zM137 57h4c5.33301 0 8 -1.66699 8 -5c0 -4 -3 -6 -9 -6h-3v11z
M189 57v6h-31v-6h12v-30h7v30h12zM222 37c0 -2.66699 -2.33203 -4.00098 -6.99902 -4.00098c-3.33301 0 -6.33301 0.666992 -9 2l-3 -7c5.33301 -1.33301 9.66602 -2 12.999 -2c9.33301 0 14 4 14 12c0 4.66699 -3 8 -9 10s-9 4 -9 6s2 3 6 3c2 0 5 -0.666992 9 -2l2 7
c-5.33301 1.33301 -9 2 -11 2c-9.33301 0 -14 -3.66699 -14 -11c0 -4.66699 3 -8.16699 9 -10.5s9 -4.16602 9 -5.49902zM235.001 51.999l2 -5c4 1.33301 7 2 9 2c3.33301 0 5 -1.33301 5 -4v-2l-1 1h-4c-8 0 -12 -3.33301 -12 -10c0 -5.33301 2.66699 -8 8 -8
c4 0 7 1.66699 9 5l2 -4h6c-0.666992 0.666992 -1 3 -1 7v11c0 6.66699 -3.33301 10 -10 10c-2.66699 0 -7 -1 -13 -3zM245.001 31.999c-2.66699 0 -4 1.33301 -4 4s1.66699 4 5 4h4l1 -1v-3c-0.666992 -2.66699 -2.66699 -4 -6 -4zM284.001 26.999h8v16c0 8 -3 12 -9 12
c-4.66699 0 -8 -1.66699 -10 -5l-2 4h-5v-27h7v17c0.666992 2.66699 2.66699 4 6 4s5 -2 5 -6v-15zM299.001 33.999l-2 -6c4 -1.33301 7.33301 -2 10 -2c7.33301 0 11 3 11 9c0 3.33301 -2.66699 6.33301 -8 9c-3.33301 1.33301 -5 2.33301 -5 3c0 1.33301 1 2 3 2
c1.33301 0 4 -0.666992 8 -2l2 6c-4 1.33301 -7.33301 2 -10 2c-6.66699 0 -10 -3 -10 -9c0 -3.33301 2.66699 -6.33301 8 -9c3.33301 -1.33301 5 -2.33301 5 -3c0 -1.33301 -1 -2 -3 -2s-5 0.666992 -9 2zM338.001 41.999c0 -14 6.66699 -21 20 -21s20 7 20 21

<glyph glyph-name="IJ" unicode="IJ" horiz-adv-x="592" 
d="M404 196v504h107v-531c0 -55.333 -12.833 -99.166 -38.5 -131.499s-64.167 -48.5 -115.5 -48.5c-40.667 0 -74.667 6.33301 -102 19l22 89c16.667 -8 36.667 -12 60 -12c26 0 43.667 9.16699 53 27.5s14 46.166 14 83.499zM90 0v700h107v-700h-107z" />
    <glyph glyph-name="ij" unicode="ij" horiz-adv-x="496" 
d="M313 9l0.000976562 491h102v-524c0 -124 -47.333 -186 -142 -186c-16 0 -31 1.33301 -45 4v86h7c31.333 0 52.166 10 62.499 30s15.5 53 15.5 99zM294.001 647c0 17.333 6.16699 32 18.5 44s28.5 18 48.5 18s36.667 -6 50 -18s20 -26.667 20 -44s-6.5 -31.5 -19.5 -42.5
s-29.833 -16.5 -50.5 -16.5c-20 0 -36.167 5.5 -48.5 16.5s-18.5 25.167 -18.5 42.5zM65.001 647c0 17.333 6.16699 32 18.5 44s28.5 18 48.5 18s36.667 -6 50 -18s20 -26.667 20 -44s-6.5 -31.5 -19.5 -42.5s-29.833 -16.5 -50.5 -16.5c-20 0 -36.167 5.5 -48.5 16.5
s-18.5 25.167 -18.5 42.5zM83.001 0v500h102v-500h-102z" />
    <glyph glyph-name="uniF374.var.accented" unicode="&#xf374;`" horiz-adv-x="489" 
d="M421 104l21.001 -81c-31.333 -22 -80 -33 -146 -33c-72.667 0 -132.167 22 -178.5 66s-69.5 113 -69.5 207c0 49.333 7.33301 92.333 22 129s34.5 65 59.5 85s51.667 34.667 80 44s58.166 14 89.499 14c51.333 0 96.333 -6.66699 135 -20l-20 -87
c-26 11.333 -61 17 -105 17c-39.333 0 -72.5 -11.667 -99.5 -35s-44.167 -57 -51.5 -101h226v-81h-227c5.33301 -46.667 22 -83 50 -109s64.333 -39 109 -39c38 0 73 8 105 24zM243.001 594l57 151h108v-25l-106 -126h-59z" />
    <glyph glyph-name="uniF376.var.accented" unicode="&#xf376;`" horiz-adv-x="284" 
d="M96 594l57 151h108v-25l-106 -126h-59zM90 0v525h104v-525h-104z" />
    <glyph glyph-name="uniF377.var.accented" unicode="&#xf377;`" horiz-adv-x="368" 
d="M8 682c0 16.667 5.16699 30.334 15.5 41.001s24.166 16 41.499 16c15.333 0 27.833 -5.33301 37.5 -16s14.5 -24.334 14.5 -41.001c0 -16 -4.66699 -29.167 -14 -39.5s-22 -15.5 -38 -15.5c-17.333 0 -31.166 5.16699 -41.499 15.5s-15.5 23.5 -15.5 39.5zM250 682
c0 16.667 4.83301 30.334 14.5 41.001s22.167 16 37.5 16c17.333 0 31.166 -5.33301 41.499 -16s15.5 -24.334 15.5 -41.001c0 -16 -5.16699 -29.167 -15.5 -39.5s-24.166 -15.5 -41.499 -15.5c-15.333 0 -27.833 5.16699 -37.5 15.5s-14.5 23.5 -14.5 39.5zM117 626l54 157
h85v-24l-98 -133h-41zM131 0v525h104v-525h-104z" />
    <glyph glyph-name="uniF350.var.accented" unicode="&#xf350;`" horiz-adv-x="490" 
d="M377 0l-45 115h-182l-43 -115h-102l203 530h74l203 -530h-108zM222 315l-45 -117h131l-45 117l-19 84h-3zM220 594l57 151h108v-25l-106 -126h-59z" />
    <glyph glyph-name="uniF355.var.accented" unicode="&#xf355;`" horiz-adv-x="464" 
d="M74 0v525h331v-87h-227v-129h207v-87h-207v-135h231v-87h-335zM197 594l57 151h108v-25l-106 -126h-59z" />
    <glyph glyph-name="uniF358.var.accented" unicode="&#xf358;`" horiz-adv-x="575" 
d="M397 0v289l8 74h-4l-39 -75l-219 -288h-69v525h104v-282l-8 -76h5l39 77l218 281h69v-525h-104zM240 594l57 151h108v-25l-106 -126h-59z" />
    <glyph glyph-name="uniF35E.var.accented" unicode="&#xf35e;`" horiz-adv-x="571" 
d="M48 263c0 86.667 20.6689 153.667 62.002 201s99.666 71 174.999 71c78.667 0 138 -24.333 178 -73s60 -115 60 -199c0 -86.667 -20.833 -153.834 -62.5 -201.501s-100.167 -71.5 -175.5 -71.5c-78.667 0 -137.834 24.333 -177.501 73s-59.5 115.334 -59.5 200.001z
M157.002 263c0 -56 10.667 -100.5 32 -133.5s53.333 -49.5 96 -49.5c86 0 129 61 129 183c0 54.667 -10.5 98.667 -31.5 132s-53.5 50 -97.5 50c-85.333 0 -128 -60.667 -128 -182zM230.002 594l57 151h108v-25l-106 -126h-59z" />
    <glyph glyph-name="uniF363.var.accented" unicode="&#xf363;`" horiz-adv-x="460" 
d="M120 525l115 -232.001l20 -74h5l14 76l86 230h106l-147 -365c-24.667 -61.333 -48 -104.166 -70 -128.499s-52.667 -36.5 -92 -36.5c-36 0 -63 6.33301 -81 19l28 80c14 -8 29.333 -12 46 -12c26.667 0 45.667 21 57 63l-207 380h120zM184 593.999l57 151h108v-25
l-106 -126h-59z" />
    <glyph glyph-name="uniF36B.var.accented" unicode="&#xf36b;`" horiz-adv-x="685" 
d="M507 0v525h104v-525h-104zM74 5v520h104v-188c24 4 46 6 66 6c133.333 0 200 -56 200 -168c0 -60 -19.333 -105.5 -58 -136.5s-94.667 -46.5 -168 -46.5c-60.667 0 -108.667 4.33301 -144 13zM231 79c32.667 0 58.5 8 77.5 24s28.5 39 28.5 69c0 57.333 -36 86 -108 86
c-22 0 -39 -2.66699 -51 -8v-166c12 -3.33301 29.667 -5 53 -5zM286 594l57 151h108v-25l-106 -126h-59z" />
    <glyph glyph-name="uniF36D.var.accented" unicode="&#xf36d;`" horiz-adv-x="489" 
d="M118 225l0.000976562 80.999h218c-4.66699 44.667 -20.334 79 -47.001 103s-63 36 -109 36c-47.333 0 -88.333 -9 -123 -27l-24 84c46 22 97.667 33 155 33c78.667 0 140.5 -21.667 185.5 -65s67.5 -112.333 67.5 -207c0 -93.333 -25.167 -162.166 -75.5 -206.499
s-114.833 -66.5 -193.5 -66.5c-54 0 -101 9 -141 27l27 87c33.333 -16 73.666 -24 120.999 -24c44.667 0 81.334 11.833 110.001 35.5s44.667 60.167 48 109.5h-219zM140.001 593.999l57 151h108v-25l-106 -126h-59z" />
    <glyph glyph-name="uniF36E.var.accented" unicode="&#xf36e;`" horiz-adv-x="759" 
d="M178 525v-212.001h79c6.66699 70.667 29 125.334 67 164.001s90.667 58 158 58c78.667 0 136.5 -24 173.5 -72s55.5 -114.667 55.5 -200c0 -88 -19.333 -155.5 -58 -202.5s-95.667 -70.5 -171 -70.5c-69.333 0 -122.833 20.333 -160.5 61s-59.167 96.667 -64.5 168h-79
v-219h-104v525h104zM362 262.999c0 -122 39.999 -183 119.999 -183c40.667 0 70.834 14.5 90.501 43.5s29.5 75.5 29.5 139.5c0 121.333 -40 182 -120 182s-120 -60.667 -120 -182zM307.999 593.999l57 151h108v-25l-106 -126h-59z" />
    <glyph glyph-name="uniF36F.var.accented" unicode="&#xf36f;`" horiz-adv-x="500" 
d="M426 520l0.000976562 -520h-104v207l-66 -13l-118 -194h-121l115 174l49 33c-37.333 8.66699 -67.333 26 -90 52s-34 60.333 -34 103c0 114 77.667 171 233 171c53.333 0 98.666 -4.33301 135.999 -13zM272.001 446c-31.333 0 -57.167 -7 -77.5 -21
s-30.5 -36.333 -30.5 -67c0 -30 10 -52.333 30 -67s46.333 -22 79 -22h49v173c-11.333 2.66699 -28 4 -50 4zM233 594l57 151h108v-25l-106 -126h-59z" />
    <glyph glyph-name="uniF371.var.accented" unicode="&#xf371;`" horiz-adv-x="464" 
d="M62 682c0 16.667 5.16699 30.334 15.5 41.001s24.166 16 41.499 16c15.333 0 27.833 -5.33301 37.5 -16s14.5 -24.334 14.5 -41.001c0 -16 -4.66699 -29.167 -14 -39.5s-22 -15.5 -38 -15.5c-17.333 0 -31.166 5.16699 -41.499 15.5s-15.5 23.5 -15.5 39.5zM304 682
c0 16.667 4.83301 30.334 14.5 41.001s22.167 16 37.5 16c17.333 0 31.166 -5.33301 41.499 -16s15.5 -24.334 15.5 -41.001c0 -16 -5.16699 -29.167 -15.5 -39.5s-24.166 -15.5 -41.499 -15.5c-15.333 0 -27.833 5.16699 -37.5 15.5s-14.5 23.5 -14.5 39.5zM171 626l54 157
h85v-24l-98 -133h-41zM74 0v525h331v-87h-227v-129h207v-87h-207v-135h231v-87h-335z" />
    <glyph glyph-name="uniF38A.var.accented" unicode="&#xf38a;`" horiz-adv-x="489" 
d="M415 375l-137.001 -380h-75l-210 530h117l118 -306l17 -92h4l14 93l52 164c18.667 56.667 38.334 95.5 59.001 116.5s50 31.5 88 31.5c31.333 0 59 -5.66699 83 -17l-24 -85c-18 8 -33.333 12 -46 12c-23.333 0 -43.333 -22.333 -60 -67zM191.999 594l57 151h108v-25
l-106 -126h-59z" />
    <glyph glyph-name="afii10053.var.accented" unicode="&#x404;`" horiz-adv-x="580" 
d="M510 115l22.999 -85.998c-37.333 -28 -96.666 -42 -177.999 -42c-42.667 0 -82.167 7 -118.5 21s-68.833 35.167 -97.5 63.5s-51 66.333 -67 114s-24 102.5 -24 164.5c0 64 9 120.167 27 168.5s42.167 86.166 72.5 113.499s63.166 47.666 98.499 60.999s72.333 20 111 20
c68 0 123.333 -8.33301 166 -25l-23 -93c-30 14.667 -74.667 22 -134 22c-53.333 0 -98.666 -17.333 -135.999 -52s-59.666 -88 -66.999 -160h292v-90h-294c5.33301 -74 27.166 -131.167 65.499 -171.5s88.5 -60.5 150.5 -60.5c54 0 98.333 10.667 133 32zM287.999 752.002
l112 118h134v-25l-162 -93h-84z" />
    <glyph glyph-name="afii10055.var.accented" unicode="&#x406;`" horiz-adv-x="287" 
d="M96 752l112 118h134v-25l-162 -93h-84zM90 0v700h107v-700h-107z" />
    <glyph glyph-name="afii10056.var.accented" unicode="&#x407;`" horiz-adv-x="297" 
d="M106 860l72 83h123v-23l-128 -60h-67zM27 792c0 17.333 5 31 15 41s23.333 15 40 15c16 0 29 -5 39 -15s15 -23.667 15 -41c0 -16 -5 -28.833 -15 -38.5s-23 -14.5 -39 -14.5c-16.667 0 -30 4.66699 -40 14s-15 22.333 -15 39zM161 792c0 17.333 5 31 15 41s23 15 39 15
c16.667 0 30 -5 40 -15s15 -23.667 15 -41c0 -16.667 -5 -29.667 -15 -39s-23.333 -14 -40 -14c-16 0 -29 4.83301 -39 14.5s-15 22.5 -15 38.5zM94 0v700h107v-700h-107z" />
    <glyph glyph-name="afii10017.var.accented" unicode="&#x410;`" horiz-adv-x="594" 
d="M477 0l-65 177h-239l-63 -177h-105l259 708h66l260 -708h-113zM269 452l-66 -188h183l-67 189l-24 108h-2zM258 752l112 118h134v-25l-162 -93h-84z" />
    <glyph glyph-name="afii10022.var.accented" unicode="&#x415;`" horiz-adv-x="530" 
d="M74 0v700h396v-94h-289v-202h264v-94h-264v-216h294v-94h-401zM189 752l112 118h134v-25l-162 -93h-84z" />
    <glyph glyph-name="afii10026.var.accented" unicode="&#x418;`" horiz-adv-x="674" 
d="M494 0v436l6 85h-4l-45 -88l-304 -433h-73v700h107v-436l-9 -86h5l47 89l304 433h73v-700h-107zM256 752l112 118h134v-25l-162 -93h-84z" />
    <glyph glyph-name="afii10032.var.accented" unicode="&#x41e;`" horiz-adv-x="678" 
d="M48 350c0 116 25.167 205.5 75.5 268.5s121.833 94.5 214.5 94.5c96.667 0 169.5 -32.333 218.5 -97s73.5 -153.334 73.5 -266.001c0 -116 -25.5 -205.5 -76.5 -268.5s-122.833 -94.5 -215.5 -94.5c-96 0 -168.333 32.333 -217 97s-73 153.334 -73 266.001zM161 350
c0 -78.667 14.832 -143.167 44.499 -193.5s73.834 -75.5 132.501 -75.5c57.333 0 101.5 22.167 132.5 66.5s46.5 111.833 46.5 202.5c0 78.667 -14.833 143.167 -44.5 193.5s-74.5 75.5 -134.5 75.5c-56 0 -99.5 -22.5 -130.5 -67.5s-46.5 -112.167 -46.5 -201.5z
M281.999 752l112 118h134v-25l-162 -93h-84z" />
    <glyph glyph-name="afii10037.var.accented" unicode="&#x423;`" horiz-adv-x="560" 
d="M125 700l161.999 -342l23 -90h6l18 93l121 339h110l-181 -468c-35.333 -92.667 -65.666 -155.5 -90.999 -188.5s-61.333 -49.5 -108 -49.5c-37.333 0 -68.333 7.66699 -93 23l29 88c19.333 -10 41.333 -15 66 -15c32.667 0 57 31.667 73 95l-260 515h125zM207.999 752
l112 118h134v-25l-162 -93h-84z" />
    <glyph glyph-name="afii10045.var.accented" unicode="&#x42b;`" horiz-adv-x="781" 
d="M600 0v700h107v-700h-107zM74 7l-0.000976562 693h107v-263c24.667 5.33301 52.667 8 84 8c164.667 0 247 -72 247 -216c0 -78.667 -23.667 -138 -71 -178s-113.666 -60 -198.999 -60c-69.333 0 -125.333 5.33301 -168 16zM249.999 85c45.333 0 81.5 11.5 108.5 34.5
s40.5 57.5 40.5 103.5c0 85.333 -50.333 128 -151 128c-26.667 0 -49 -3 -67 -9v-251c16 -4 39 -6 69 -6zM288.999 752l112 118h134v-25l-162 -93h-84z" />
    <glyph glyph-name="afii10047.var.accented" unicode="&#x42d;`" horiz-adv-x="576" 
d="M141 312l-0.00292969 86.998h279c-4.66699 70 -25.667 124.167 -63 162.5s-86 57.5 -146 57.5s-110 -11.667 -150 -35l-25 88c48.667 27.333 109.667 41 183 41c94.667 0 169.834 -29.167 225.501 -87.5s83.5 -150.166 83.5 -275.499
c0 -64.667 -8.83301 -121.167 -26.5 -169.5s-42.167 -86.166 -73.5 -113.499s-66.166 -47.5 -104.499 -60.5s-80.166 -19.5 -125.499 -19.5c-66 0 -120.667 9.66699 -164 29l28 93c38.667 -18.667 86.667 -28 144 -28c58 0 107.333 19 148 57s63 96 67 174h-280z
M145.997 751.998l112 118h134v-25l-162 -93h-84z" />
    <glyph glyph-name="afii10048.var.accented" unicode="&#x42e;`" horiz-adv-x="895" 
d="M181 700v-296h110c7.33301 99.333 34.5 175.666 81.5 228.999s112.5 80 196.5 80c96 0 166.333 -31.833 211 -95.5s67 -152.834 67 -267.501c0 -117.333 -23.5 -207.166 -70.5 -269.499s-116.167 -93.5 -207.5 -93.5c-88 0 -155 28.333 -201 85
s-71.667 135.334 -77 236.001h-110v-308h-107v700h107zM401 350c0 -52 5.16699 -97.333 15.5 -136s28.5 -70.5 54.5 -95.5s58.667 -37.5 98 -37.5c56 0 97.5 21.833 124.5 65.5s40.5 111.5 40.5 203.5c0 179.333 -55 269 -165 269c-112 0 -168 -89.667 -168 -269zM319 752
l112 118h134v-25l-162 -93h-84z" />
    <glyph glyph-name="afii10049.var.accented" unicode="&#x42f;`" horiz-adv-x="574" 
d="M500 693v-693.001h-107v293l-90 -21l-161 -272h-125l150 242l61 43c-48 11.333 -86.833 34.333 -116.5 69s-44.5 80.334 -44.5 137.001c0 145.333 91.333 218 274 218c62.667 0 115.667 -5.33301 159 -16zM331 614.999c-100.667 0 -150.999 -42.334 -150.999 -127.001
c0 -43.333 14 -75.666 42 -96.999s64.667 -32 110 -32h61v250c-16.667 4 -37.334 6 -62.001 6zM264.001 751.998l112 118h134v-25l-162 -93h-84z" />
    <glyph glyph-name="afii10023.var.accented" unicode="&#x401;`" horiz-adv-x="530" 
d="M348 810c0 15.333 5.16699 27.834 15.5 37.501s23.833 14.5 40.5 14.5c20.667 0 36.5 -4.66699 47.5 -14s16.5 -22 16.5 -38s-5.5 -28.5 -16.5 -37.5s-26.833 -13.5 -47.5 -13.5c-16.667 0 -30.167 4.66699 -40.5 14s-15.5 21.666 -15.5 36.999zM61 810.001
c0 16 5.66699 28.666 17 37.999s27 14 47 14c16.667 0 30.167 -4.83301 40.5 -14.5s15.5 -22.167 15.5 -37.5s-5 -27.666 -15 -36.999s-23.667 -14 -41 -14c-20 0 -35.667 4.5 -47 13.5s-17 21.5 -17 37.5zM176 755l62 127h112v-25l-105 -102h-69zM74 0v700h396v-94h-289
v-202h264v-94h-264v-216h294v-94h-401z" />
    <glyph glyph-name="afii10065.var.accented" unicode="&#x430;`" horiz-adv-x="496" 
d="M91 390l-28.999 74.999c50.667 29.333 118 44 202 44c64 0 108 -14.667 132 -44s36 -69 36 -119c0 -25.333 -1.16699 -62.166 -3.5 -110.499s-3.5 -83.166 -3.5 -104.499c0 -53.333 5.33301 -97.333 16 -132h-80l-21 69h-5c-34.667 -50.667 -85.334 -76 -152.001 -76
c-44.667 0 -81 13.167 -109 39.5s-42 61.166 -42 104.499c0 104 84 156 252 156c20 0 35 -0.333008 45 -1c2 16.667 3 31.667 3 45c0 32 -6.66699 54.333 -20 67s-37 19 -71 19c-58.667 0 -108.667 -10.667 -150 -32zM215.001 76.999c55.333 0 93.333 23.332 114 69.999v75
c-21.333 1.33301 -37 2 -47 2c-95.333 0 -143 -25 -143 -75c0 -21.333 7 -38.666 21 -51.999s32.333 -20 55 -20zM198.001 568.998l56 151h109v-25l-106 -126h-59z" />
    <glyph glyph-name="afii10070.var.accented" unicode="&#x435;`" horiz-adv-x="508" 
d="M413 111l35.9971 -69.998c-44.667 -36 -105 -54 -181 -54s-132.667 23 -170 69s-56 110.667 -56 194c0 85.333 19.833 150.5 59.5 195.5s96.167 67.5 169.5 67.5c25.333 0 48.833 -3 70.5 -9s42 -15.833 61 -29.5s34 -33.334 45 -59.001s16.833 -56.5 17.5 -92.5
c0 -32.667 -2.33301 -63.334 -7 -92.001h-312c1.33301 -52.667 13.333 -92.5 36 -119.5s59.334 -40.5 110.001 -40.5c22.667 0 45.334 4 68.001 12s40.334 17.333 53.001 28zM270.997 429.002c-74.667 0 -115.333 -42.668 -122 -128.001h219c0 1.33301 0.166992 4 0.5 8
s0.5 7 0.5 9c0 36.667 -8.66699 64.334 -26 83.001s-41.333 28 -72 28zM222.998 569.001l56 151h109v-25l-106 -126h-59z" />
    <glyph glyph-name="afii10074.var.accented" unicode="&#x438;`" horiz-adv-x="545" 
d="M375 0v266l5 66h-3l-42 -68l-205 -264h-62v500h102v-275l-4 -63h4l40 66l205 272h62v-500h-102zM232 569l56 151h109v-25l-106 -126h-59z" />
    <glyph glyph-name="afii10080.var.accented" unicode="&#x43e;`" horiz-adv-x="537" 
d="M42 250c0 84 19.667 148.833 59 194.5s95 68.5 167 68.5c74.667 0 131.167 -23.5 169.5 -70.5s57.5 -111.167 57.5 -192.5c0 -84 -19.833 -148.833 -59.5 -194.5s-95.5 -68.5 -167.5 -68.5c-74.667 0 -131 23.333 -169 70s-57 111 -57 193zM149 250
c0 -52 9.66602 -94.333 28.999 -127s49.333 -49 90 -49c80 0 120 58.667 120 176c0 53.333 -9.66699 96 -29 128s-49.666 48 -90.999 48c-79.333 0 -119 -58.667 -119 -176zM219.999 569l56 151h109v-25l-106 -126h-59z" />
    <glyph glyph-name="afii10085.var.accented" unicode="&#x443;`" horiz-adv-x="471" 
d="M123 500l108 -305l23 -88h6l18 89l88 304h104l-150 -450c-11.333 -34.667 -20.5 -61.667 -27.5 -81s-16.333 -41.833 -28 -67.5s-22.834 -45 -33.501 -58s-23.667 -24.333 -39 -34s-31.666 -14.5 -48.999 -14.5c-29.333 0 -52.333 4.33301 -69 13l18 87
c9.33301 -4 18.333 -6 27 -6c42 0 71.333 37 88 111l-204 500h120zM205 569l56 151h109v-25l-106 -126h-59z" />
    <glyph glyph-name="afii10093.var.accented" unicode="&#x44b;`" horiz-adv-x="679" 
d="M170 237l-0.000976562 -151c22.667 -4 44.334 -6 65.001 -6c34.667 0 59.667 7 75 21s23 35 23 63c0 53.333 -31.667 80 -95 80c-26 0 -48.667 -2.33301 -68 -7zM169.999 500v-185.001c30 4.66699 60.333 7 91 7c119.333 0 179 -50.667 179 -152
c0 -61.333 -17.167 -106.166 -51.5 -134.499s-90.5 -42.5 -168.5 -42.5c-48 0 -98.667 2.33301 -152 7v500h102zM508.999 -0.000976562v500h102v-500h-102zM264.999 568.999l56 151h109v-25l-106 -126h-59z" />
    <glyph glyph-name="afii10095.var.accented" unicode="&#x44d;`" horiz-adv-x="462" 
d="M116 214l-0.000976562 78h200c-3.33301 41.333 -16.166 74 -38.499 98s-53.5 36 -93.5 36c-42 0 -82 -11.333 -120 -34l-31 76c43.333 30 100.333 45 171 45c144.667 0 217 -87.667 217 -263c0 -85.333 -20 -150.5 -60 -195.5s-95.667 -67.5 -167 -67.5
c-69.333 0 -123 11 -161 33l27 83c35.333 -19.333 75.333 -29 120 -29c44 0 77 11.333 99 34s34.667 58 38 106h-201zM147.999 569l56 151h109v-25l-106 -126h-59z" />
    <glyph glyph-name="afii10096.var.accented" unicode="&#x44e;`" horiz-adv-x="726" 
d="M472 -13c-70.667 0 -122.666 19.5 -155.999 58.5s-52 94.833 -56 167.5h-90v-213h-102v500h102v-200h91c12.667 142 83.667 213 213 213c71.333 0 124.166 -23.167 158.499 -69.5s51.5 -110.833 51.5 -193.5c0 -85.333 -17.833 -150.5 -53.5 -195.5
s-88.5 -67.5 -158.5 -67.5zM359.001 250c0 -117.333 38 -176 114 -176c36.667 0 63.167 13.833 79.5 41.5s24.5 72.5 24.5 134.5c0 56 -7.83301 99.333 -23.5 130s-43.167 46 -82.5 46c-38.667 0 -67 -14 -85 -42s-27 -72.667 -27 -134zM284.001 569l56 151h109v-25
l-106 -126h-59z" />
    <glyph glyph-name="afii10097.var.accented" unicode="&#x44f;`" horiz-adv-x="487" 
d="M324 0v199.001l-70 -12l-116 -187h-123l110 165l44 37c-34.667 6 -63.334 21.167 -86.001 45.5s-34 55.166 -34 92.499c0 115.333 76 173 228 173c42.667 0 92.334 -5.33301 149.001 -16v-497h-102zM324 255.001v161c-16.667 6.66699 -34.667 10 -54 10
c-76 0 -114 -29.333 -114 -88c0 -27.333 10.5 -48.333 31.5 -63s50.5 -22 88.5 -22c2 0 18 0.666992 48 2zM226 569.001l56 151h109v-25l-106 -126h-59z" />
    <glyph glyph-name="afii10071.var.accented" unicode="&#x451;`" horiz-adv-x="508" 
d="M413 111l35.9971 -69.998c-44.667 -36 -105 -54 -181 -54s-132.667 23 -170 69s-56 110.667 -56 194c0 85.333 19.833 150.5 59.5 195.5s96.167 67.5 169.5 67.5c25.333 0 48.833 -3 70.5 -9s42 -15.833 61 -29.5s34 -33.334 45 -59.001s16.833 -56.5 17.5 -92.5
c0 -32.667 -2.33301 -63.334 -7 -92.001h-312c1.33301 -52.667 13.333 -92.5 36 -119.5s59.334 -40.5 110.001 -40.5c22.667 0 45.334 4 68.001 12s40.334 17.333 53.001 28zM270.997 429.002c-74.667 0 -115.333 -42.668 -122 -128.001h219c0 1.33301 0.166992 4 0.5 8
s0.5 7 0.5 9c0 36.667 -8.66699 64.334 -26 83.001s-41.333 28 -72 28zM86.998 629.001c0 16.667 5.16699 30.334 15.5 41.001s24.166 16 41.499 16c15.333 0 27.833 -5.33301 37.5 -16s14.5 -24.334 14.5 -41.001c0 -16 -4.66699 -29.333 -14 -40s-22 -16 -38 -16
c-17.333 0 -31.166 5.33301 -41.499 16s-15.5 24 -15.5 40zM328.998 629.001c0 16.667 4.83301 30.334 14.5 41.001s22.167 16 37.5 16c17.333 0 31.166 -5.33301 41.499 -16s15.5 -24.334 15.5 -41.001c0 -16 -5.16699 -29.333 -15.5 -40s-24.166 -16 -41.499 -16
c-14.667 0 -27 5.33301 -37 16s-15 24 -15 40zM195.998 573.001l54 157h85v-24l-97 -133h-42z" />
    <glyph glyph-name="afii10101.var.accented" unicode="&#x454;`" horiz-adv-x="465" 
d="M409 110l28 -78.001c-41.333 -30 -95.666 -45 -162.999 -45c-76 0 -133.333 23.333 -172 70s-58 111 -58 193c0 82.667 21.333 147.167 64 193.5s99.667 69.5 171 69.5c60.667 0 110.667 -10.333 150 -31l-27 -85c-33.333 17.333 -70 26 -110 26
c-83.333 0 -131 -43.667 -143 -131h217v-77h-217c5.33301 -41.333 20.5 -74.666 45.5 -99.999s60.167 -38 105.5 -38c43.333 0 79.666 11 108.999 33zM228 568.999l56 151h109v-25l-106 -126h-59z" />
    <glyph glyph-name="afii10103.var.accented" unicode="&#x456;`" horiz-adv-x="269" 
d="M65 647c0 17.333 6.16699 32 18.5 44s28.5 18 48.5 18s36.667 -6 50 -18s20 -26.667 20 -44s-6.5 -31.5 -19.5 -42.5s-29.833 -16.5 -50.5 -16.5c-20 0 -36.167 5.5 -48.5 16.5s-18.5 25.167 -18.5 42.5zM78 752l112 118h134v-25l-162 -93h-84zM83 0v500h102v-500h-102z
" />
    <glyph glyph-name="afii10104.var.accented" unicode="&#x457;`" horiz-adv-x="278" 
d="M23 650c0 17.333 4.66699 31 14 41s22.333 15 39 15c16 0 28.5 -5 37.5 -15s13.5 -23.667 13.5 -41c0 -16.667 -4.5 -29.834 -13.5 -39.501s-21.5 -14.5 -37.5 -14.5c-16.667 0 -29.667 4.83301 -39 14.5s-14 22.834 -14 39.501zM152 650c0 17.333 4.5 31 13.5 41
s21.5 15 37.5 15c16.667 0 29.5 -5 38.5 -15s13.5 -23.667 13.5 -41c0 -16.667 -4.5 -29.834 -13.5 -39.501s-21.833 -14.5 -38.5 -14.5c-16 0 -28.5 4.83301 -37.5 14.5s-13.5 22.834 -13.5 39.501zM87 0v500h102v-500h-102zM82 752l112 118h134v-25l-162 -93h-84z" />
    <glyph glyph-name="afii10062.var.accented" unicode="&#x40e;`" horiz-adv-x="560" 
d="M125 700l161.999 -342l23 -90h6l18 93l121 339h110l-181 -468c-35.333 -92.667 -65.666 -155.5 -90.999 -188.5s-61.333 -49.5 -108 -49.5c-37.333 0 -68.333 7.66699 -93 23l29 88c19.333 -10 41.333 -15 66 -15c32.667 0 57 31.667 73 95l-260 515h125zM112.999 852
l98.999 20.001c5.33301 -50.667 35.333 -76 90 -76c24.667 0 45.167 6.16699 61.5 18.5s26.833 29.166 31.5 50.499l81 -16c-15.333 -76 -75.666 -114 -180.999 -114c-110 0 -170.667 39 -182 117zM248.998 835.001l97 118h131v-25l-161 -93h-67z" />
    <glyph glyph-name="afii10110.var.accented" unicode="&#x45e;`" horiz-adv-x="471" 
d="M123 500l108 -305l23 -88h6l18 89l88 304h104l-150 -450c-11.333 -34.667 -20.5 -61.667 -27.5 -81s-16.333 -41.833 -28 -67.5s-22.834 -45 -33.501 -58s-23.667 -24.333 -39 -34s-31.666 -14.5 -48.999 -14.5c-29.333 0 -52.333 4.33301 -69 13l18 87
c9.33301 -4 18.333 -6 27 -6c42 0 71.333 37 88 111l-204 500h120zM70 678l87 24.999c9.33301 -51.333 38 -77 86 -77c49.333 0 80 25.333 92 76l71 -22c-7.33301 -39.333 -25.833 -69.666 -55.5 -90.999s-66.5 -32 -110.5 -32c-44.667 0 -82.5 10 -113.5 30
s-49.833 50.333 -56.5 91zM211 679.999l51 151h105v-25l-109 -126h-47z" />
    <glyph glyph-name="afii10148.var.accented" unicode="&#x474;`" horiz-adv-x="612" 
d="M499 515l-176 -523h-64l-266 708h121l161 -450l21 -112h3l16 114l73 244c25.333 84.667 50.333 141.167 75 169.5s60.334 42.5 107.001 42.5c38 0 70.667 -7.33301 98 -22l-26 -91c-20 11.333 -42 17 -66 17c-16.667 0 -30.834 -7.5 -42.501 -22.5
s-23.167 -39.833 -34.5 -74.5zM231 752l112 118h134v-25l-162 -93h-84z" />
    <glyph glyph-name="afii10196.var.accented" unicode="&#x475;`" horiz-adv-x="516" 
d="M419 344l-144.998 -352h-54l-217 508h118l108 -279l23 -87h2l21 89l29 79c27.333 78.667 51.166 132.667 71.499 162s50.833 44 91.5 44c28.667 0 51.667 -4.33301 69 -13l-15 -86c-14.667 6 -26 9 -34 9c-24.667 0 -47.334 -24.667 -68.001 -74zM213.002 569l56 151h109
v-25l-106 -126h-59z" />
    <glyph glyph-name="uni04AE.var.accented" unicode="&#x4ae;`" horiz-adv-x="573" 
d="M234 0v270l-231 430h127l148 -287l16 -67h2l17 69l142 285h115l-229 -429v-271h-107zM219 752l112 118h134v-25l-162 -93h-84z" />
    <glyph glyph-name="uni04AF.var.accented" unicode="&#x4af;`" horiz-adv-x="487" 
d="M198 0l-195 500h118l109 -312l23 -100h3l20 102l99 310h110l-185 -500v-200h-102v200zM204 569l56 151h109v-25l-106 -126h-59z" />
    <glyph glyph-name="uni04B0.var.accented" unicode="&#x4b0;`" horiz-adv-x="573" 
d="M81 214v75h143l-221 411h127l148 -287l16 -67h2l17 69l142 285h115l-220 -411h144v-75h-153v-214h-107v214h-153zM220 752l112 118h134v-25l-162 -93h-84z" />
    <glyph glyph-name="uni04B1.var.accented" unicode="&#x4b1;`" horiz-adv-x="487" 
d="M79 -69v69h119l-195 500h118l109 -312l23 -100h3l20 102l99 310h110l-185 -500h119v-69h-119v-131h-102v131h-119zM201 569l56 151h109v-25l-106 -126h-59z" />
    <glyph glyph-name="uni04D0.var.accented" unicode="&#x4d0;`" horiz-adv-x="594" 
d="M477 0l-65 177h-239l-63 -177h-105l259 708h66l260 -708h-113zM269 452l-66 -188h183l-67 189l-24 108h-2zM115 852l98.999 20.001c5.33301 -50.667 35.333 -76 90 -76c24.667 0 45.167 6.16699 61.5 18.5s26.833 29.166 31.5 50.499l81 -16
c-15.333 -76 -75.666 -114 -180.999 -114c-110 0 -170.667 39 -182 117zM250.999 835.001l97 118h131v-25l-161 -93h-67z" />
    <glyph glyph-name="uni04D1.var.accented" unicode="&#x4d1;`" horiz-adv-x="496" 
d="M91 390l-28.999 74.999c50.667 29.333 118 44 202 44c64 0 108 -14.667 132 -44s36 -69 36 -119c0 -25.333 -1.16699 -62.166 -3.5 -110.499s-3.5 -83.166 -3.5 -104.499c0 -53.333 5.33301 -97.333 16 -132h-80l-21 69h-5c-34.667 -50.667 -85.334 -76 -152.001 -76
c-44.667 0 -81 13.167 -109 39.5s-42 61.166 -42 104.499c0 104 84 156 252 156c20 0 35 -0.333008 45 -1c2 16.667 3 31.667 3 45c0 32 -6.66699 54.333 -20 67s-37 19 -71 19c-58.667 0 -108.667 -10.667 -150 -32zM215.001 76.999c55.333 0 93.333 23.332 114 69.999v75
c-21.333 1.33301 -37 2 -47 2c-95.333 0 -143 -25 -143 -75c0 -21.333 7 -38.666 21 -51.999s32.333 -20 55 -20zM86.001 677.998l87 24.999c9.33301 -51.333 38 -77 86 -77c49.333 0 80 25.333 92 76l71 -22c-7.33301 -39.333 -25.833 -69.666 -55.5 -90.999
s-66.5 -32 -110.5 -32c-44.667 0 -82.5 10 -113.5 30s-49.833 50.333 -56.5 91zM227.001 679.997l51 151h105v-25l-109 -126h-47z" />
    <glyph glyph-name="uni04D2.var.accented" unicode="&#x4d2;`" horiz-adv-x="594" 
d="M477 0l-65 177h-239l-63 -177h-105l259 708h66l260 -708h-113zM269 452l-66 -188h183l-67 189l-24 108h-2zM378 810c0 15.333 5.16699 27.834 15.5 37.501s23.833 14.5 40.5 14.5c20.667 0 36.5 -4.66699 47.5 -14s16.5 -22 16.5 -38s-5.5 -28.5 -16.5 -37.5
s-26.833 -13.5 -47.5 -13.5c-16.667 0 -30.167 4.66699 -40.5 14s-15.5 21.666 -15.5 36.999zM91 810.001c0 16 5.66699 28.666 17 37.999s27 14 47 14c16.667 0 30.167 -4.83301 40.5 -14.5s15.5 -22.167 15.5 -37.5s-5 -27.666 -15 -36.999s-23.667 -14 -41 -14
c-20 0 -35.667 4.5 -47 13.5s-17 21.5 -17 37.5zM206 755l62 127h112v-25l-105 -102h-69z" />
    <glyph glyph-name="uni04D3.var.accented" unicode="&#x4d3;`" horiz-adv-x="496" 
d="M91 390l-28.999 74.999c50.667 29.333 118 44 202 44c64 0 108 -14.667 132 -44s36 -69 36 -119c0 -25.333 -1.16699 -62.166 -3.5 -110.499s-3.5 -83.166 -3.5 -104.499c0 -53.333 5.33301 -97.333 16 -132h-80l-21 69h-5c-34.667 -50.667 -85.334 -76 -152.001 -76
c-44.667 0 -81 13.167 -109 39.5s-42 61.166 -42 104.499c0 104 84 156 252 156c20 0 35 -0.333008 45 -1c2 16.667 3 31.667 3 45c0 32 -6.66699 54.333 -20 67s-37 19 -71 19c-58.667 0 -108.667 -10.667 -150 -32zM215.001 76.999c55.333 0 93.333 23.332 114 69.999v75
c-21.333 1.33301 -37 2 -47 2c-95.333 0 -143 -25 -143 -75c0 -21.333 7 -38.666 21 -51.999s32.333 -20 55 -20zM72.001 628.998c0 16.667 5.16699 30.334 15.5 41.001s24.166 16 41.499 16c15.333 0 27.833 -5.33301 37.5 -16s14.5 -24.334 14.5 -41.001
c0 -16 -4.66699 -29.333 -14 -40s-22 -16 -38 -16c-17.333 0 -31.166 5.33301 -41.499 16s-15.5 24 -15.5 40zM314.001 628.998c0 16.667 4.83301 30.334 14.5 41.001s22.167 16 37.5 16c17.333 0 31.166 -5.33301 41.499 -16s15.5 -24.334 15.5 -41.001
c0 -16 -5.16699 -29.333 -15.5 -40s-24.166 -16 -41.499 -16c-14.667 0 -27 5.33301 -37 16s-15 24 -15 40zM181.001 572.998l54 157h85v-24l-97 -133h-42z" />
    <glyph glyph-name="uni04D4.var.accented" unicode="&#x4d4;`" horiz-adv-x="853" 
d="M397 570h-5l-34 -103l-111 -195h150v298zM397 0v185h-201l-106 -185h-115l419 700h399v-94h-289v-202h264v-94h-264v-216h294v-94h-401zM410 752l112 118h134v-25l-162 -93h-84z" />
    <glyph glyph-name="uni04D5.var.accented" unicode="&#x4d5;`" horiz-adv-x="791" 
d="M215 77c55.333 0 93.333 23.333 114 70v75c-16 1.33301 -28.667 2 -38 2c-48 -0.666992 -85.333 -6.33398 -112 -17.001s-40 -30 -40 -58c0 -21.333 7 -38.666 21 -51.999s32.333 -20 55 -20zM366 80l-7.00195 0.00292969c-43.333 -58.667 -102 -88 -176 -88
c-44.667 0 -81 13.167 -109 39.5s-42 61.166 -42 104.499c0 104.667 81.667 157 245 157c12 0 29.333 -0.666992 52 -2c2 16.667 3 31.667 3 45c0 32 -6.66699 54.333 -20 67s-37 19 -71 19c-56.667 0 -106.667 -11.667 -150 -35l-29 75c54 31.333 121.333 47 202 47
c66.667 0 111.667 -20 135 -60c16 20.667 38 36.5 66 47.5s57.667 16.5 89 16.5c25.333 0 48.833 -3.16699 70.5 -9.5s42.167 -16.333 61.5 -30s34.5 -33.334 45.5 -59.001s16.5 -56.5 16.5 -92.5c0 -32 -2.33301 -62.333 -7 -91h-313
c1.33301 -52.667 13.5 -92.5 36.5 -119.5s59.833 -40.5 110.5 -40.5c22.667 0 45.334 4 68.001 12s40.334 17.333 53.001 28l36 -70c-45.333 -36 -105.666 -54 -180.999 -54c-41.333 0 -78.333 8.16699 -111 24.5s-57.334 39.166 -74.001 68.499zM553.998 429.003
c-75.333 0 -116.333 -42.667 -123 -128h220v16c0 36.667 -8.5 64.5 -25.5 83.5s-40.833 28.5 -71.5 28.5zM355.998 569.003l56 151h109v-25l-106 -126h-59z" />
    <glyph glyph-name="uni04D6.var.accented" unicode="&#x4d6;`" horiz-adv-x="530" 
d="M74 0v700h396v-94h-289v-202h264v-94h-264v-216h294v-94h-401zM99 852l98.999 20.001c5.33301 -50.667 35.333 -76 90 -76c24.667 0 45.167 6.16699 61.5 18.5s26.833 29.166 31.5 50.499l81 -16c-15.333 -76 -75.666 -114 -180.999 -114c-110 0 -170.667 39 -182 117z
M234.999 835.001l97 118h131v-25l-161 -93h-67z" />
    <glyph glyph-name="uni04D7.var.accented" unicode="&#x4d7;`" horiz-adv-x="508" 
d="M413 111l35.9971 -69.998c-44.667 -36 -105 -54 -181 -54s-132.667 23 -170 69s-56 110.667 -56 194c0 85.333 19.833 150.5 59.5 195.5s96.167 67.5 169.5 67.5c25.333 0 48.833 -3 70.5 -9s42 -15.833 61 -29.5s34 -33.334 45 -59.001s16.833 -56.5 17.5 -92.5
c0 -32.667 -2.33301 -63.334 -7 -92.001h-312c1.33301 -52.667 13.333 -92.5 36 -119.5s59.334 -40.5 110.001 -40.5c22.667 0 45.334 4 68.001 12s40.334 17.333 53.001 28zM270.997 429.002c-74.667 0 -115.333 -42.668 -122 -128.001h219c0 1.33301 0.166992 4 0.5 8
s0.5 7 0.5 9c0 36.667 -8.66699 64.334 -26 83.001s-41.333 28 -72 28zM98.998 678.001l87 24.999c9.33301 -51.333 38 -77 86 -77c49.333 0 80 25.333 92 76l71 -22c-7.33301 -39.333 -25.833 -69.666 -55.5 -90.999s-66.5 -32 -110.5 -32c-44.667 0 -82.5 10 -113.5 30
s-49.833 50.333 -56.5 91zM239.998 680l51 151h105v-25l-109 -126h-47z" />
    <glyph glyph-name="uni04D8.var.accented" unicode="&#x4d8;`" horiz-adv-x="635" 
d="M480 310h-318.999c-2 -14 -3 -30.333 -3 -49c0 -54 13 -98.167 39 -132.5s63 -51.5 111 -51.5c55.333 0 97.666 19.667 126.999 59s44.333 97.333 45 174zM56.001 400l424.002 0.00195312c-5.33301 73.333 -24 128.166 -56 164.499s-80 54.5 -144 54.5
c-54.667 0 -106.334 -14.667 -155.001 -44l-25 89c54.667 32.667 121 49 199 49c192 0 288 -121 288 -363c0 -116.667 -23.333 -206.334 -70 -269.001s-117.334 -94 -212.001 -94c-83.333 0 -147.5 26 -192.5 78s-67.5 121.333 -67.5 208c0 42.667 3.66699 85 11 127z
M230.003 752.002l112 118h134v-25l-162 -93h-84z" />
    <glyph glyph-name="afii10846.var.accented" unicode="&#x4d9;`" horiz-adv-x="508" 
d="M96 387l-38 72c44.667 36 105 54 181 54c75.333 0 131.833 -23.333 169.5 -70s56.5 -111 56.5 -193c0 -83.333 -19.5 -148 -58.5 -194s-92.833 -69 -161.5 -69c-65.333 0 -115.5 20 -150.5 60s-52.5 94 -52.5 162c0 18.667 2.66699 43.334 8 74.001h316
c-3.33301 50.667 -16.5 87.667 -39.5 111s-60.167 35 -111.5 35c-22.667 0 -45 -4.33301 -67 -13s-39.333 -18.334 -52 -29.001zM245 71c35.333 0 63.834 12.832 85.501 38.499s32.5 59.834 32.5 102.501h-224v-20c0.666992 -38.667 10.667 -68.5 30 -89.5
s44.666 -31.5 75.999 -31.5zM197.001 568.999l56 151h109v-25l-106 -126h-59z" />
    <glyph glyph-name="uni04DA.var.accented" unicode="&#x4da;`" horiz-adv-x="635" 
d="M480 310h-318.999c-2 -14 -3 -30.333 -3 -49c0 -54 13 -98.167 39 -132.5s63 -51.5 111 -51.5c55.333 0 97.666 19.667 126.999 59s44.333 97.333 45 174zM56.001 400l424.002 0.00195312c-5.33301 73.333 -24 128.166 -56 164.499s-80 54.5 -144 54.5
c-54.667 0 -106.334 -14.667 -155.001 -44l-25 89c54.667 32.667 121 49 199 49c192 0 288 -121 288 -363c0 -116.667 -23.333 -206.334 -70 -269.001s-117.334 -94 -212.001 -94c-83.333 0 -147.5 26 -192.5 78s-67.5 121.333 -67.5 208c0 42.667 3.66699 85 11 127z
M388.003 810.002c0 15.333 5.16699 27.834 15.5 37.501s23.833 14.5 40.5 14.5c20.667 0 36.5 -4.66699 47.5 -14s16.5 -22 16.5 -38s-5.5 -28.5 -16.5 -37.5s-26.833 -13.5 -47.5 -13.5c-16.667 0 -30.167 4.66699 -40.5 14s-15.5 21.666 -15.5 36.999zM101.003 810.003
c0 16 5.66699 28.666 17 37.999s27 14 47 14c16.667 0 30.167 -4.83301 40.5 -14.5s15.5 -22.167 15.5 -37.5s-5 -27.666 -15 -36.999s-23.667 -14 -41 -14c-20 0 -35.667 4.5 -47 13.5s-17 21.5 -17 37.5zM216.003 755.002l62 127h112v-25l-105 -102h-69z" />
    <glyph glyph-name="uni04DB.var.accented" unicode="&#x4db;`" horiz-adv-x="508" 
d="M96 387l-38 72c44.667 36 105 54 181 54c75.333 0 131.833 -23.333 169.5 -70s56.5 -111 56.5 -193c0 -83.333 -19.5 -148 -58.5 -194s-92.833 -69 -161.5 -69c-65.333 0 -115.5 20 -150.5 60s-52.5 94 -52.5 162c0 18.667 2.66699 43.334 8 74.001h316
c-3.33301 50.667 -16.5 87.667 -39.5 111s-60.167 35 -111.5 35c-22.667 0 -45 -4.33301 -67 -13s-39.333 -18.334 -52 -29.001zM245 71c35.333 0 63.834 12.832 85.501 38.499s32.5 59.834 32.5 102.501h-224v-20c0.666992 -38.667 10.667 -68.5 30 -89.5
s44.666 -31.5 75.999 -31.5zM75.001 628.999c0 16.667 5.16699 30.334 15.5 41.001s24.166 16 41.499 16c15.333 0 27.833 -5.33301 37.5 -16s14.5 -24.334 14.5 -41.001c0 -16 -4.66699 -29.333 -14 -40s-22 -16 -38 -16c-17.333 0 -31.166 5.33301 -41.499 16
s-15.5 24 -15.5 40zM317.001 628.999c0 16.667 4.83301 30.334 14.5 41.001s22.167 16 37.5 16c17.333 0 31.166 -5.33301 41.499 -16s15.5 -24.334 15.5 -41.001c0 -16 -5.16699 -29.333 -15.5 -40s-24.166 -16 -41.499 -16c-14.667 0 -27 5.33301 -37 16s-15 24 -15 40z
M184.001 572.999l54 157h85v-24l-97 -133h-42z" />
    <glyph glyph-name="uni04E2.var.accented" unicode="&#x4e2;`" horiz-adv-x="674" 
d="M494 0v436l6 85h-4l-45 -88l-304 -433h-73v700h107v-436l-9 -86h5l47 89l304 433h73v-700h-107zM270 831l112 118h134v-25l-162 -93h-84zM182 731v74h328v-74h-328z" />
    <glyph glyph-name="uni04E3.var.accented" unicode="&#x4e3;`" horiz-adv-x="545" 
d="M375 0v266l5 66h-3l-42 -68l-205 -264h-62v500h102v-275l-4 -63h4l40 66l205 272h62v-500h-102zM121 568v76h308v-76h-308zM220 679l56 151h109v-25l-106 -126h-59z" />
    <glyph glyph-name="uni04E4.var.accented" unicode="&#x4e4;`" horiz-adv-x="674" 
d="M422 810c0 15.333 5.16699 27.834 15.5 37.501s23.833 14.5 40.5 14.5c20.667 0 36.5 -4.66699 47.5 -14s16.5 -22 16.5 -38s-5.5 -28.5 -16.5 -37.5s-26.833 -13.5 -47.5 -13.5c-16.667 0 -30.167 4.66699 -40.5 14s-15.5 21.666 -15.5 36.999zM135 810.001
c0 16 5.66699 28.666 17 37.999s27 14 47 14c16.667 0 30.167 -4.83301 40.5 -14.5s15.5 -22.167 15.5 -37.5s-5 -27.666 -15 -36.999s-23.667 -14 -41 -14c-20 0 -35.667 4.5 -47 13.5s-17 21.5 -17 37.5zM250 755l62 127h112v-25l-105 -102h-69zM494 0v436l6 85h-4
l-45 -88l-304 -433h-73v700h107v-436l-9 -86h5l47 89l304 433h73v-700h-107z" />
    <glyph glyph-name="uni04E5.var.accented" unicode="&#x4e5;`" horiz-adv-x="545" 
d="M375 0v266l5 66h-3l-42 -68l-205 -264h-62v500h102v-275l-4 -63h4l40 66l205 272h62v-500h-102zM99 629c0 16.667 5.16699 30.334 15.5 41.001s24.166 16 41.499 16c15.333 0 27.833 -5.33301 37.5 -16s14.5 -24.334 14.5 -41.001c0 -16 -4.66699 -29.333 -14 -40
s-22 -16 -38 -16c-17.333 0 -31.166 5.33301 -41.499 16s-15.5 24 -15.5 40zM341 629c0 16.667 4.83301 30.334 14.5 41.001s22.167 16 37.5 16c17.333 0 31.166 -5.33301 41.499 -16s15.5 -24.334 15.5 -41.001c0 -16 -5.16699 -29.333 -15.5 -40s-24.166 -16 -41.499 -16
c-14.667 0 -27 5.33301 -37 16s-15 24 -15 40zM208 573l54 157h85v-24l-97 -133h-42z" />
    <glyph glyph-name="uni04E6.var.accented" unicode="&#x4e6;`" horiz-adv-x="678" 
d="M423 810c0 15.333 5.16699 27.834 15.5 37.501s23.833 14.5 40.5 14.5c20.667 0 36.5 -4.66699 47.5 -14s16.5 -22 16.5 -38s-5.5 -28.5 -16.5 -37.5s-26.833 -13.5 -47.5 -13.5c-16.667 0 -30.167 4.66699 -40.5 14s-15.5 21.666 -15.5 36.999zM136 810.001
c0 16 5.66699 28.666 17 37.999s27 14 47 14c16.667 0 30.167 -4.83301 40.5 -14.5s15.5 -22.167 15.5 -37.5s-5 -27.666 -15 -36.999s-23.667 -14 -41 -14c-20 0 -35.667 4.5 -47 13.5s-17 21.5 -17 37.5zM251 755l62 127h112v-25l-105 -102h-69zM48 350
c0 116 25.167 205.5 75.5 268.5s121.833 94.5 214.5 94.5c96.667 0 169.5 -32.333 218.5 -97s73.5 -153.334 73.5 -266.001c0 -116 -25.5 -205.5 -76.5 -268.5s-122.833 -94.5 -215.5 -94.5c-96 0 -168.333 32.333 -217 97s-73 153.334 -73 266.001zM161 350
c0 -78.667 14.832 -143.167 44.499 -193.5s73.834 -75.5 132.501 -75.5c57.333 0 101.5 22.167 132.5 66.5s46.5 111.833 46.5 202.5c0 78.667 -14.833 143.167 -44.5 193.5s-74.5 75.5 -134.5 75.5c-56 0 -99.5 -22.5 -130.5 -67.5s-46.5 -112.167 -46.5 -201.5z" />
    <glyph glyph-name="uni04E7.var.accented" unicode="&#x4e7;`" horiz-adv-x="537" 
d="M98 629c0 16.667 5.16699 30.334 15.5 41.001s24.166 16 41.499 16c15.333 0 27.833 -5.33301 37.5 -16s14.5 -24.334 14.5 -41.001c0 -16 -4.66699 -29.333 -14 -40s-22 -16 -38 -16c-17.333 0 -31.166 5.33301 -41.499 16s-15.5 24 -15.5 40zM340 629
c0 16.667 4.83301 30.334 14.5 41.001s22.167 16 37.5 16c17.333 0 31.166 -5.33301 41.499 -16s15.5 -24.334 15.5 -41.001c0 -16 -5.16699 -29.333 -15.5 -40s-24.166 -16 -41.499 -16c-14.667 0 -27 5.33301 -37 16s-15 24 -15 40zM207 573l54 157h85v-24l-97 -133h-42z
M42 250c0 84 19.667 148.833 59 194.5s95 68.5 167 68.5c74.667 0 131.167 -23.5 169.5 -70.5s57.5 -111.167 57.5 -192.5c0 -84 -19.833 -148.833 -59.5 -194.5s-95.5 -68.5 -167.5 -68.5c-74.667 0 -131 23.333 -169 70s-57 111 -57 193zM149 250
c0 -52 9.66602 -94.333 28.999 -127s49.333 -49 90 -49c80 0 120 58.667 120 176c0 53.333 -9.66699 96 -29 128s-49.666 48 -90.999 48c-79.333 0 -119 -58.667 -119 -176z" />
    <glyph glyph-name="uni04E8.var.accented" unicode="&#x4e8;`" horiz-adv-x="678" 
d="M48 350c0 116 25.167 205.5 75.5 268.5s121.833 94.5 214.5 94.5c96.667 0 169.5 -32.333 218.5 -97s73.5 -153.334 73.5 -266.001c0 -116 -25.5 -205.5 -76.5 -268.5s-122.833 -94.5 -215.5 -94.5c-96 0 -168.333 32.333 -217 97s-73 153.334 -73 266.001zM338 81
c109.333 0 169 76.001 179 228.001h-356c5.33301 -68.667 22.833 -123.834 52.5 -165.501s71.167 -62.5 124.5 -62.5zM338 619.001c-51.333 0 -92.333 -18.333 -123 -55s-48.667 -91.667 -54 -165h355c-6 66 -23.667 119.167 -53 159.5s-71 60.5 -125 60.5zM288 752.001
l112 118h134v-25l-162 -93h-84z" />
    <glyph glyph-name="uni04E9.var.accented" unicode="&#x4e9;`" horiz-adv-x="537" 
d="M42 250c0 84 19.667 148.833 59 194.5s95 68.5 167 68.5c74.667 0 131.167 -23.5 169.5 -70.5s57.5 -111.167 57.5 -192.5c0 -84 -19.833 -148.833 -59.5 -194.5s-95.5 -68.5 -167.5 -68.5c-74.667 0 -131 23.333 -169 70s-57 111 -57 193zM149 285l239.001 0.000976562
c-10.667 94 -50.667 141 -120 141c-32.667 0 -59.834 -11.333 -81.501 -34s-34.167 -58.334 -37.5 -107.001zM388.001 213.001h-239.001c3.33301 -44 15.833 -78.167 37.5 -102.5s48.834 -36.5 81.501 -36.5c72.667 0 112.667 46.333 120 139zM231 569.001l56 151h109v-25
l-106 -126h-59z" />
    <glyph glyph-name="uni04EA.var.accented" unicode="&#x4ea;`" horiz-adv-x="678" 
d="M48 350c0 116 25.167 205.5 75.5 268.5s121.833 94.5 214.5 94.5c96.667 0 169.5 -32.333 218.5 -97s73.5 -153.334 73.5 -266.001c0 -116 -25.5 -205.5 -76.5 -268.5s-122.833 -94.5 -215.5 -94.5c-96 0 -168.333 32.333 -217 97s-73 153.334 -73 266.001zM338 81
c109.333 0 169 76.001 179 228.001h-356c5.33301 -68.667 22.833 -123.834 52.5 -165.501s71.167 -62.5 124.5 -62.5zM338 619.001c-51.333 0 -92.333 -18.333 -123 -55s-48.667 -91.667 -54 -165h355c-6 66 -23.667 119.167 -53 159.5s-71 60.5 -125 60.5zM424 810.001
c0 15.333 5.16699 27.834 15.5 37.501s23.833 14.5 40.5 14.5c20.667 0 36.5 -4.66699 47.5 -14s16.5 -22 16.5 -38s-5.5 -28.5 -16.5 -37.5s-26.833 -13.5 -47.5 -13.5c-16.667 0 -30.167 4.66699 -40.5 14s-15.5 21.666 -15.5 36.999zM137 810.002
c0 16 5.66699 28.666 17 37.999s27 14 47 14c16.667 0 30.167 -4.83301 40.5 -14.5s15.5 -22.167 15.5 -37.5s-5 -27.666 -15 -36.999s-23.667 -14 -41 -14c-20 0 -35.667 4.5 -47 13.5s-17 21.5 -17 37.5zM252 755.001l62 127h112v-25l-105 -102h-69z" />
    <glyph glyph-name="uni04EB.var.accented" unicode="&#x4eb;`" horiz-adv-x="537" 
d="M42 250c0 84 19.667 148.833 59 194.5s95 68.5 167 68.5c74.667 0 131.167 -23.5 169.5 -70.5s57.5 -111.167 57.5 -192.5c0 -84 -19.833 -148.833 -59.5 -194.5s-95.5 -68.5 -167.5 -68.5c-74.667 0 -131 23.333 -169 70s-57 111 -57 193zM149 285l239.001 0.000976562
c-10.667 94 -50.667 141 -120 141c-32.667 0 -59.834 -11.333 -81.501 -34s-34.167 -58.334 -37.5 -107.001zM388.001 213.001h-239.001c3.33301 -44 15.833 -78.167 37.5 -102.5s48.834 -36.5 81.501 -36.5c72.667 0 112.667 46.333 120 139zM98 629.001
c0 16.667 5.16699 30.334 15.5 41.001s24.166 16 41.499 16c15.333 0 27.833 -5.33301 37.5 -16s14.5 -24.334 14.5 -41.001c0 -16 -4.66699 -29.333 -14 -40s-22 -16 -38 -16c-17.333 0 -31.166 5.33301 -41.499 16s-15.5 24 -15.5 40zM340 629.001
c0 16.667 4.83301 30.334 14.5 41.001s22.167 16 37.5 16c17.333 0 31.166 -5.33301 41.499 -16s15.5 -24.334 15.5 -41.001c0 -16 -5.16699 -29.333 -15.5 -40s-24.166 -16 -41.499 -16c-14.667 0 -27 5.33301 -37 16s-15 24 -15 40zM207 573.001l54 157h85v-24l-97 -133
h-42z" />
    <glyph glyph-name="uni04EC.var.accented" unicode="&#x4ec;`" horiz-adv-x="576" 
d="M141 312l-0.00292969 86.998h279c-4.66699 70 -25.667 124.167 -63 162.5s-86 57.5 -146 57.5s-110 -11.667 -150 -35l-25 88c48.667 27.333 109.667 41 183 41c94.667 0 169.834 -29.167 225.501 -87.5s83.5 -150.166 83.5 -275.499
c0 -64.667 -8.83301 -121.167 -26.5 -169.5s-42.167 -86.166 -73.5 -113.499s-66.166 -47.5 -104.499 -60.5s-80.166 -19.5 -125.499 -19.5c-66 0 -120.667 9.66699 -164 29l28 93c38.667 -18.667 86.667 -28 144 -28c58 0 107.333 19 148 57s63 96 67 174h-280z
M337.997 809.998c0 15.333 5.16699 27.834 15.5 37.501s23.833 14.5 40.5 14.5c20.667 0 36.5 -4.66699 47.5 -14s16.5 -22 16.5 -38s-5.5 -28.5 -16.5 -37.5s-26.833 -13.5 -47.5 -13.5c-16.667 0 -30.167 4.66699 -40.5 14s-15.5 21.666 -15.5 36.999zM50.9971 809.999
c0 16 5.66699 28.666 17 37.999s27 14 47 14c16.667 0 30.167 -4.83301 40.5 -14.5s15.5 -22.167 15.5 -37.5s-5 -27.666 -15 -36.999s-23.667 -14 -41 -14c-20 0 -35.667 4.5 -47 13.5s-17 21.5 -17 37.5zM165.997 754.998l62 127h112v-25l-105 -102h-69z" />
    <glyph glyph-name="uni04ED.var.accented" unicode="&#x4ed;`" horiz-adv-x="462" 
d="M38 629c0 16.667 5.16699 30.334 15.5 41.001s24.166 16 41.499 16c15.333 0 27.833 -5.33301 37.5 -16s14.5 -24.334 14.5 -41.001c0 -16 -4.66699 -29.333 -14 -40s-22 -16 -38 -16c-17.333 0 -31.166 5.33301 -41.499 16s-15.5 24 -15.5 40zM280 629
c0 16.667 4.83301 30.334 14.5 41.001s22.167 16 37.5 16c17.333 0 31.166 -5.33301 41.499 -16s15.5 -24.334 15.5 -41.001c0 -16 -5.16699 -29.333 -15.5 -40s-24.166 -16 -41.499 -16c-14.667 0 -27 5.33301 -37 16s-15 24 -15 40zM147 573l54 157h85v-24l-97 -133h-42z
M116 214l-0.000976562 78h200c-3.33301 41.333 -16.166 74 -38.499 98s-53.5 36 -93.5 36c-42 0 -82 -11.333 -120 -34l-31 76c43.333 30 100.333 45 171 45c144.667 0 217 -87.667 217 -263c0 -85.333 -20 -150.5 -60 -195.5s-95.667 -67.5 -167 -67.5
c-69.333 0 -123 11 -161 33l27 83c35.333 -19.333 75.333 -29 120 -29c44 0 77 11.333 99 34s34.667 58 38 106h-201z" />
    <glyph glyph-name="uni04EE.var.accented" unicode="&#x4ee;`" horiz-adv-x="560" 
d="M125 700l161.999 -342l23 -90h6l18 93l121 339h110l-181 -468c-35.333 -92.667 -65.666 -155.5 -90.999 -188.5s-61.333 -49.5 -108 -49.5c-37.333 0 -68.333 7.66699 -93 23l29 88c19.333 -10 41.333 -15 66 -15c32.667 0 57 31.667 73 95l-260 515h125zM216.999 831
l112 118h134v-25l-162 -93h-84zM128.999 731v74h328v-74h-328z" />
    <glyph glyph-name="uni04EF.var.accented" unicode="&#x4ef;`" horiz-adv-x="471" 
d="M123 500l108 -305l23 -88h6l18 89l88 304h104l-150 -450c-11.333 -34.667 -20.5 -61.667 -27.5 -81s-16.333 -41.833 -28 -67.5s-22.834 -45 -33.501 -58s-23.667 -24.333 -39 -34s-31.666 -14.5 -48.999 -14.5c-29.333 0 -52.333 4.33301 -69 13l18 87
c9.33301 -4 18.333 -6 27 -6c42 0 71.333 37 88 111l-204 500h120zM192 679l56 151h109v-25l-106 -126h-59zM92 568v76h308v-76h-308z" />
    <glyph glyph-name="uni04F0.var.accented" unicode="&#x4f0;`" horiz-adv-x="560" 
d="M125 700l161.999 -342l23 -90h6l18 93l121 339h110l-181 -468c-35.333 -92.667 -65.666 -155.5 -90.999 -188.5s-61.333 -49.5 -108 -49.5c-37.333 0 -68.333 7.66699 -93 23l29 88c19.333 -10 41.333 -15 66 -15c32.667 0 57 31.667 73 95l-260 515h125zM378.999 810
c0 15.333 5.16699 27.834 15.5 37.501s23.833 14.5 40.5 14.5c20.667 0 36.5 -4.66699 47.5 -14s16.5 -22 16.5 -38s-5.5 -28.5 -16.5 -37.5s-26.833 -13.5 -47.5 -13.5c-16.667 0 -30.167 4.66699 -40.5 14s-15.5 21.666 -15.5 36.999zM91.999 810.001
c0 16 5.66699 28.666 17 37.999s27 14 47 14c16.667 0 30.167 -4.83301 40.5 -14.5s15.5 -22.167 15.5 -37.5s-5 -27.666 -15 -36.999s-23.667 -14 -41 -14c-20 0 -35.667 4.5 -47 13.5s-17 21.5 -17 37.5zM206.999 755l62 127h112v-25l-105 -102h-69z" />
    <glyph glyph-name="uni04F1.var.accented" unicode="&#x4f1;`" horiz-adv-x="471" 
d="M67 629c0 16.667 5.16699 30.334 15.5 41.001s24.166 16 41.499 16c15.333 0 27.833 -5.33301 37.5 -16s14.5 -24.334 14.5 -41.001c0 -16 -4.66699 -29.333 -14 -40s-22 -16 -38 -16c-17.333 0 -31.166 5.33301 -41.499 16s-15.5 24 -15.5 40zM309 629
c0 16.667 4.83301 30.334 14.5 41.001s22.167 16 37.5 16c17.333 0 31.166 -5.33301 41.499 -16s15.5 -24.334 15.5 -41.001c0 -16 -5.16699 -29.333 -15.5 -40s-24.166 -16 -41.499 -16c-14.667 0 -27 5.33301 -37 16s-15 24 -15 40zM176 573l54 157h85v-24l-97 -133h-42z
M123 500l108 -305l23 -88h6l18 89l88 304h104l-150 -450c-11.333 -34.667 -20.5 -61.667 -27.5 -81s-16.333 -41.833 -28 -67.5s-22.834 -45 -33.501 -58s-23.667 -24.333 -39 -34s-31.666 -14.5 -48.999 -14.5c-29.333 0 -52.333 4.33301 -69 13l18 87
c9.33301 -4 18.333 -6 27 -6c42 0 71.333 37 88 111l-204 500h120z" />
    <glyph glyph-name="uni04F2.var.accented" unicode="&#x4f2;`" horiz-adv-x="560" 
d="M125 700l161.999 -342l23 -90h6l18 93l121 339h110l-181 -468c-35.333 -92.667 -65.666 -155.5 -90.999 -188.5s-61.333 -49.5 -108 -49.5c-37.333 0 -68.333 7.66699 -93 23l29 88c19.333 -10 41.333 -15 66 -15c32.667 0 57 31.667 73 95l-260 515h125zM117.999 731
l25 89h98v-16l-60 -73h-63zM322.999 731l133 89h116v-16l-173 -73h-76zM226.999 752l101 118h119v-19l-138 -99h-82z" />
    <glyph glyph-name="uni04F3.var.accented" unicode="&#x4f3;`" horiz-adv-x="471" 
d="M123 500l108 -305l23 -88h6l18 89l88 304h104l-150 -450c-11.333 -34.667 -20.5 -61.667 -27.5 -81s-16.333 -41.833 -28 -67.5s-22.834 -45 -33.501 -58s-23.667 -24.333 -39 -34s-31.666 -14.5 -48.999 -14.5c-29.333 0 -52.333 4.33301 -69 13l18 87
c9.33301 -4 18.333 -6 27 -6c42 0 71.333 37 88 111l-204 500h120zM106 571l15 129h93v-16l-53 -113h-55zM273 571l103 129h101v-16l-146 -113h-58zM220 622l58 148h97v-19l-101 -129h-54z" />
    <glyph glyph-name="uni04F8.var.accented" unicode="&#x4f8;`" horiz-adv-x="781" 
d="M600 0v700h107v-700h-107zM74 7l-0.000976562 693h107v-263c24.667 5.33301 52.667 8 84 8c164.667 0 247 -72 247 -216c0 -78.667 -23.667 -138 -71 -178s-113.666 -60 -198.999 -60c-69.333 0 -125.333 5.33301 -168 16zM249.999 85c45.333 0 81.5 11.5 108.5 34.5
s40.5 57.5 40.5 103.5c0 85.333 -50.333 128 -151 128c-26.667 0 -49 -3 -67 -9v-251c16 -4 39 -6 69 -6zM461.999 810c0 15.333 5.16699 27.834 15.5 37.501s23.833 14.5 40.5 14.5c20.667 0 36.5 -4.66699 47.5 -14s16.5 -22 16.5 -38s-5.5 -28.5 -16.5 -37.5
s-26.833 -13.5 -47.5 -13.5c-16.667 0 -30.167 4.66699 -40.5 14s-15.5 21.666 -15.5 36.999zM174.999 810.001c0 16 5.66699 28.666 17 37.999s27 14 47 14c16.667 0 30.167 -4.83301 40.5 -14.5s15.5 -22.167 15.5 -37.5s-5 -27.666 -15 -36.999s-23.667 -14 -41 -14
c-20 0 -35.667 4.5 -47 13.5s-17 21.5 -17 37.5zM289.999 755l62 127h112v-25l-105 -102h-69z" />
    <glyph glyph-name="uni04F9.var.accented" unicode="&#x4f9;`" horiz-adv-x="679" 
d="M170 237l-0.000976562 -151c22.667 -4 44.334 -6 65.001 -6c34.667 0 59.667 7 75 21s23 35 23 63c0 53.333 -31.667 80 -95 80c-26 0 -48.667 -2.33301 -68 -7zM169.999 500v-185.001c30 4.66699 60.333 7 91 7c119.333 0 179 -50.667 179 -152
c0 -61.333 -17.167 -106.166 -51.5 -134.499s-90.5 -42.5 -168.5 -42.5c-48 0 -98.667 2.33301 -152 7v500h102zM508.999 -0.000976562v500h102v-500h-102zM165.999 628.999c0 16.667 5.16699 30.334 15.5 41.001s24.166 16 41.499 16c15.333 0 27.833 -5.33301 37.5 -16
s14.5 -24.334 14.5 -41.001c0 -16 -4.66699 -29.333 -14 -40s-22 -16 -38 -16c-17.333 0 -31.166 5.33301 -41.499 16s-15.5 24 -15.5 40zM407.999 628.999c0 16.667 4.83301 30.334 14.5 41.001s22.167 16 37.5 16c17.333 0 31.166 -5.33301 41.499 -16
s15.5 -24.334 15.5 -41.001c0 -16 -5.16699 -29.333 -15.5 -40s-24.166 -16 -41.499 -16c-14.667 0 -27 5.33301 -37 16s-15 24 -15 40zM274.999 572.999l54 157h85v-24l-97 -133h-42z" />
    <glyph glyph-name="uniF37E.var.accented" unicode="&#xf37e;`" horiz-adv-x="460" 
d="M120 525l115 -232.001l20 -74h5l14 76l86 230h106l-147 -365c-24.667 -61.333 -48 -104.166 -70 -128.499s-52.667 -36.5 -92 -36.5c-36 0 -63 6.33301 -81 19l28 80c14 -8 29.333 -12 46 -12c26.667 0 45.667 21 57 63l-207 380h120zM70 702.999l87 24.999
c9.33301 -51.333 38 -77 86 -77c49.333 0 80 25.333 92 76l71 -22c-7.33301 -39.333 -25.833 -69.666 -55.5 -90.999s-66.5 -32 -110.5 -32c-44.667 0 -82.5 10 -113.5 30s-49.833 50.333 -56.5 91zM211 704.998l51 151h105v-25l-109 -126h-47z" />
    <glyph glyph-name="uniF3A2.var.accented" unicode="&#xf3a2;`" horiz-adv-x="478" 
d="M188 0v193l-184 332h121l106 -200l14 -57h3l15 58l102 199h109l-182 -331v-194h-104zM199 594l57 151h108v-25l-106 -126h-59z" />
    <glyph glyph-name="uniF3A3.var.accented" unicode="&#xf3a3;`" horiz-adv-x="478" 
d="M75 123v71h112l-183 331h121l106 -200l14 -57h3l15 58l102 199h109l-182 -331h113v-71h-113v-123h-104v123h-113zM206 594l57 151h108v-25l-106 -126h-59z" />
    <glyph glyph-name="uniF3B2.var.accented" unicode="&#xf3b2;`" horiz-adv-x="490" 
d="M377 0l-45 115h-182l-43 -115h-102l203 530h74l203 -530h-108zM222 315l-45 -117h131l-45 117l-19 84h-3zM77 703l87 24.999c9.33301 -51.333 38 -77 86 -77c49.333 0 80 25.333 92 76l71 -22c-7.33301 -39.333 -25.833 -69.666 -55.5 -90.999s-66.5 -32 -110.5 -32
c-44.667 0 -82.5 10 -113.5 30s-49.833 50.333 -56.5 91zM218 704.999l51 151h105v-25l-109 -126h-47z" />
    <glyph glyph-name="uniF3B3.var.accented" unicode="&#xf3b3;`" horiz-adv-x="490" 
d="M377 0l-45 115h-182l-43 -115h-102l203 530h74l203 -530h-108zM222 315l-45 -117h131l-45 117l-19 84h-3zM67 682c0 16.667 5.16699 30.334 15.5 41.001s24.166 16 41.499 16c15.333 0 27.833 -5.33301 37.5 -16s14.5 -24.334 14.5 -41.001
c0 -16 -4.66699 -29.167 -14 -39.5s-22 -15.5 -38 -15.5c-17.333 0 -31.166 5.16699 -41.499 15.5s-15.5 23.5 -15.5 39.5zM309 682c0 16.667 4.83301 30.334 14.5 41.001s22.167 16 37.5 16c17.333 0 31.166 -5.33301 41.499 -16s15.5 -24.334 15.5 -41.001
c0 -16 -5.16699 -29.167 -15.5 -39.5s-24.166 -15.5 -41.499 -15.5c-15.333 0 -27.833 5.16699 -37.5 15.5s-14.5 23.5 -14.5 39.5zM176 626l54 157h85v-24l-98 -133h-41z" />
    <glyph glyph-name="uniF3B4.var.accented" unicode="&#xf3b4;`" horiz-adv-x="701" 
d="M316 402h-4l-25 -69l-81 -124h110v193zM316 0v127h-154l-78 -127h-109l334 525h333v-87h-224v-129h204v-87h-204v-135h228v-87h-330zM323 594l57 151h108v-25l-106 -126h-59z" />
    <glyph glyph-name="uniF3B5.var.accented" unicode="&#xf3b5;`" horiz-adv-x="464" 
d="M74 703l87 24.999c9.33301 -51.333 38 -77 86 -77c49.333 0 80 25.333 92 76l71 -22c-7.33301 -39.333 -25.833 -69.666 -55.5 -90.999s-66.5 -32 -110.5 -32c-44.667 0 -82.5 10 -113.5 30s-49.833 50.333 -56.5 91zM215 704.999l51 151h105v-25l-109 -126h-47z
M74 -0.000976562v525h331v-87h-227v-129h207v-87h-207v-135h231v-87h-335z" />
    <glyph glyph-name="uniF3B6.var.accented" unicode="&#xf3b6;`" horiz-adv-x="533" 
d="M381 228h-229.002c-1.33301 -17.333 -2 -30.666 -2 -39.999c0.666992 -28.667 10.334 -54.334 29.001 -77.001s45.334 -34 80.001 -34c80 0 120.667 50.333 122 151zM53.998 306h328c-4 48 -17.333 83.167 -40 105.5s-59 33.5 -109 33.5c-48 0 -89.667 -10.333 -125 -31
l-23 84c44 24.667 98.667 37 164 37c157.333 0 236 -90.667 236 -272c0 -182 -76.667 -273 -230 -273c-67.333 0 -119 19.833 -155 59.5s-54 94.5 -54 164.5c0 32 2.66699 62.667 8 92zM218.998 594l57 151h108v-25l-106 -126h-59z" />
    <glyph glyph-name="uniF3B7.var.accented" unicode="&#xf3b7;`" horiz-adv-x="533" 
d="M381 228h-229.002c-1.33301 -17.333 -2 -30.666 -2 -39.999c0.666992 -28.667 10.334 -54.334 29.001 -77.001s45.334 -34 80.001 -34c80 0 120.667 50.333 122 151zM53.998 306h328c-4 48 -17.333 83.167 -40 105.5s-59 33.5 -109 33.5c-48 0 -89.667 -10.333 -125 -31
l-23 84c44 24.667 98.667 37 164 37c157.333 0 236 -90.667 236 -272c0 -182 -76.667 -273 -230 -273c-67.333 0 -119 19.833 -155 59.5s-54 94.5 -54 164.5c0 32 2.66699 62.667 8 92zM85.998 682c0 16.667 5.16699 30.334 15.5 41.001s24.166 16 41.499 16
c15.333 0 27.833 -5.33301 37.5 -16s14.5 -24.334 14.5 -41.001c0 -16 -4.66699 -29.167 -14 -39.5s-22 -15.5 -38 -15.5c-17.333 0 -31.166 5.16699 -41.499 15.5s-15.5 23.5 -15.5 39.5zM327.998 682c0 16.667 4.83301 30.334 14.5 41.001s22.167 16 37.5 16
c17.333 0 31.166 -5.33301 41.499 -16s15.5 -24.334 15.5 -41.001c0 -16 -5.16699 -29.167 -15.5 -39.5s-24.166 -15.5 -41.499 -15.5c-15.333 0 -27.833 5.16699 -37.5 15.5s-14.5 23.5 -14.5 39.5zM194.998 626l54 157h85v-24l-98 -133h-41z" />
    <glyph glyph-name="uniF3BB.var.accented" unicode="&#xf3bb;`" horiz-adv-x="575" 
d="M397 0v289l8 74h-4l-39 -75l-219 -288h-69v525h104v-282l-8 -76h5l39 77l218 281h69v-525h-104zM143 593v76h308v-76h-308zM242 704l56 151h109v-25l-106 -126h-59z" />
    <glyph glyph-name="uniF3BC.var.accented" unicode="&#xf3bc;`" horiz-adv-x="575" 
d="M118 682c0 16.667 5.16699 30.334 15.5 41.001s24.166 16 41.499 16c15.333 0 27.833 -5.33301 37.5 -16s14.5 -24.334 14.5 -41.001c0 -16 -4.66699 -29.167 -14 -39.5s-22 -15.5 -38 -15.5c-17.333 0 -31.166 5.16699 -41.499 15.5s-15.5 23.5 -15.5 39.5zM360 682
c0 16.667 4.83301 30.334 14.5 41.001s22.167 16 37.5 16c17.333 0 31.166 -5.33301 41.499 -16s15.5 -24.334 15.5 -41.001c0 -16 -5.16699 -29.167 -15.5 -39.5s-24.166 -15.5 -41.499 -15.5c-15.333 0 -27.833 5.16699 -37.5 15.5s-14.5 23.5 -14.5 39.5zM227 626l54 157
h85v-24l-98 -133h-41zM397 0v289l8 74h-4l-39 -75l-219 -288h-69v525h104v-282l-8 -76h5l39 77l218 281h69v-525h-104z" />
    <glyph glyph-name="uniF3BD.var.accented" unicode="&#xf3bd;`" horiz-adv-x="571" 
d="M113 682c0 16.667 5.16699 30.334 15.5 41.001s24.166 16 41.499 16c15.333 0 27.833 -5.33301 37.5 -16s14.5 -24.334 14.5 -41.001c0 -16 -4.66699 -29.167 -14 -39.5s-22 -15.5 -38 -15.5c-17.333 0 -31.166 5.16699 -41.499 15.5s-15.5 23.5 -15.5 39.5zM355 682
c0 16.667 4.83301 30.334 14.5 41.001s22.167 16 37.5 16c17.333 0 31.166 -5.33301 41.499 -16s15.5 -24.334 15.5 -41.001c0 -16 -5.16699 -29.167 -15.5 -39.5s-24.166 -15.5 -41.499 -15.5c-15.333 0 -27.833 5.16699 -37.5 15.5s-14.5 23.5 -14.5 39.5zM222 626l54 157
h85v-24l-98 -133h-41zM48 263c0 86.667 20.6689 153.667 62.002 201s99.666 71 174.999 71c78.667 0 138 -24.333 178 -73s60 -115 60 -199c0 -86.667 -20.833 -153.834 -62.5 -201.501s-100.167 -71.5 -175.5 -71.5c-78.667 0 -137.834 24.333 -177.501 73
s-59.5 115.334 -59.5 200.001zM157.002 263c0 -56 10.667 -100.5 32 -133.5s53.333 -49.5 96 -49.5c86 0 129 61 129 183c0 54.667 -10.5 98.667 -31.5 132s-53.5 50 -97.5 50c-85.333 0 -128 -60.667 -128 -182z" />
    <glyph glyph-name="uniF3BE.var.accented" unicode="&#xf3be;`" horiz-adv-x="571" 
d="M48 263c0 86.667 20.6689 153.667 62.002 201s99.666 71 174.999 71c78.667 0 138 -24.333 178 -73s60 -115 60 -199c0 -86.667 -20.833 -153.834 -62.5 -201.501s-100.167 -71.5 -175.5 -71.5c-78.667 0 -137.834 24.333 -177.501 73s-59.5 115.334 -59.5 200.001z
M285.002 80c76 0 118.333 47.999 127 143.999h-253c4.66699 -45.333 17.5 -80.666 38.5 -105.999s50.167 -38 87.5 -38zM285.002 444.999c-75.333 0 -117.333 -47.001 -126 -141.001h253c-4.66699 42.667 -17.5 76.834 -38.5 102.501s-50.5 38.5 -88.5 38.5z
M240.002 593.998l57 151h108v-25l-106 -126h-59z" />
    <glyph glyph-name="uniF3BF.var.accented" unicode="&#xf3bf;`" horiz-adv-x="571" 
d="M109 682c0 16.667 5.16699 30.334 15.5 41.001s24.166 16 41.499 16c15.333 0 27.833 -5.33301 37.5 -16s14.5 -24.334 14.5 -41.001c0 -16 -4.66699 -29.167 -14 -39.5s-22 -15.5 -38 -15.5c-17.333 0 -31.166 5.16699 -41.499 15.5s-15.5 23.5 -15.5 39.5zM351 682
c0 16.667 4.83301 30.334 14.5 41.001s22.167 16 37.5 16c17.333 0 31.166 -5.33301 41.499 -16s15.5 -24.334 15.5 -41.001c0 -16 -5.16699 -29.167 -15.5 -39.5s-24.166 -15.5 -41.499 -15.5c-15.333 0 -27.833 5.16699 -37.5 15.5s-14.5 23.5 -14.5 39.5zM218 626l54 157
h85v-24l-98 -133h-41zM48 263c0 86.667 20.6689 153.667 62.002 201s99.666 71 174.999 71c78.667 0 138 -24.333 178 -73s60 -115 60 -199c0 -86.667 -20.833 -153.834 -62.5 -201.501s-100.167 -71.5 -175.5 -71.5c-78.667 0 -137.834 24.333 -177.501 73
s-59.5 115.334 -59.5 200.001zM285.002 80c76 0 118.333 47.999 127 143.999h-253c4.66699 -45.333 17.5 -80.666 38.5 -105.999s50.167 -38 87.5 -38zM285.002 444.999c-75.333 0 -117.333 -47.001 -126 -141.001h253c-4.66699 42.667 -17.5 76.834 -38.5 102.501
s-50.5 38.5 -88.5 38.5z" />
    <glyph glyph-name="uniF3C0.var.accented" unicode="&#xf3c0;`" horiz-adv-x="489" 
d="M118 225l0.000976562 80.999h218c-4.66699 44.667 -20.334 79 -47.001 103s-63 36 -109 36c-47.333 0 -88.333 -9 -123 -27l-24 84c46 22 97.667 33 155 33c78.667 0 140.5 -21.667 185.5 -65s67.5 -112.333 67.5 -207c0 -93.333 -25.167 -162.166 -75.5 -206.499
s-114.833 -66.5 -193.5 -66.5c-54 0 -101 9 -141 27l27 87c33.333 -16 73.666 -24 120.999 -24c44.667 0 81.334 11.833 110.001 35.5s44.667 60.167 48 109.5h-219zM39.001 681.999c0 16.667 5.16699 30.334 15.5 41.001s24.166 16 41.499 16
c15.333 0 27.833 -5.33301 37.5 -16s14.5 -24.334 14.5 -41.001c0 -16 -4.66699 -29.167 -14 -39.5s-22 -15.5 -38 -15.5c-17.333 0 -31.166 5.16699 -41.499 15.5s-15.5 23.5 -15.5 39.5zM281.001 681.999c0 16.667 4.83301 30.334 14.5 41.001s22.167 16 37.5 16
c17.333 0 31.166 -5.33301 41.499 -16s15.5 -24.334 15.5 -41.001c0 -16 -5.16699 -29.167 -15.5 -39.5s-24.166 -15.5 -41.499 -15.5c-15.333 0 -27.833 5.16699 -37.5 15.5s-14.5 23.5 -14.5 39.5zM148.001 625.999l54 157h85v-24l-98 -133h-41z" />
    <glyph glyph-name="uniF3C1.var.accented" unicode="&#xf3c1;`" horiz-adv-x="460" 
d="M120 525l115 -232.001l20 -74h5l14 76l86 230h106l-147 -365c-24.667 -61.333 -48 -104.166 -70 -128.499s-52.667 -36.5 -92 -36.5c-36 0 -63 6.33301 -81 19l28 80c14 -8 29.333 -12 46 -12c26.667 0 45.667 21 57 63l-207 380h120zM87 592.999v76h308v-76h-308z
M186 703.999l56 151h109v-25l-106 -126h-59z" />
    <glyph glyph-name="uniF3C2.var.accented" unicode="&#xf3c2;`" horiz-adv-x="460" 
d="M120 525l115 -232.001l20 -74h5l14 76l86 230h106l-147 -365c-24.667 -61.333 -48 -104.166 -70 -128.499s-52.667 -36.5 -92 -36.5c-36 0 -63 6.33301 -81 19l28 80c14 -8 29.333 -12 46 -12c26.667 0 45.667 21 57 63l-207 380h120zM69 681.999
c0 16.667 5.16699 30.334 15.5 41.001s24.166 16 41.499 16c15.333 0 27.833 -5.33301 37.5 -16s14.5 -24.334 14.5 -41.001c0 -16 -4.66699 -29.167 -14 -39.5s-22 -15.5 -38 -15.5c-17.333 0 -31.166 5.16699 -41.499 15.5s-15.5 23.5 -15.5 39.5zM311 681.999
c0 16.667 4.83301 30.334 14.5 41.001s22.167 16 37.5 16c17.333 0 31.166 -5.33301 41.499 -16s15.5 -24.334 15.5 -41.001c0 -16 -5.16699 -29.167 -15.5 -39.5s-24.166 -15.5 -41.499 -15.5c-15.333 0 -27.833 5.16699 -37.5 15.5s-14.5 23.5 -14.5 39.5zM178 625.999
l54 157h85v-24l-98 -133h-41z" />
    <glyph glyph-name="uniF3C3.var.accented" unicode="&#xf3c3;`" horiz-adv-x="460" 
d="M120 525l115 -232.001l20 -74h5l14 76l86 230h106l-147 -365c-24.667 -61.333 -48 -104.166 -70 -128.499s-52.667 -36.5 -92 -36.5c-36 0 -63 6.33301 -81 19l28 80c14 -8 29.333 -12 46 -12c26.667 0 45.667 21 57 63l-207 380h120zM108 595.999l15 129h93v-16
l-53 -113h-55zM275 595.999l103 129h101v-16l-146 -113h-58zM222 646.999l58 148h97v-19l-101 -129h-54z" />
    <glyph glyph-name="uniF3C6.var.accented" unicode="&#xf3c6;`" horiz-adv-x="685" 
d="M507 0v525h104v-525h-104zM74 5v520h104v-188c24 4 46 6 66 6c133.333 0 200 -56 200 -168c0 -60 -19.333 -105.5 -58 -136.5s-94.667 -46.5 -168 -46.5c-60.667 0 -108.667 4.33301 -144 13zM231 79c32.667 0 58.5 8 77.5 24s28.5 39 28.5 69c0 57.333 -36 86 -108 86
c-22 0 -39 -2.66699 -51 -8v-166c12 -3.33301 29.667 -5 53 -5zM162 682c0 16.667 5.16699 30.334 15.5 41.001s24.166 16 41.499 16c15.333 0 27.833 -5.33301 37.5 -16s14.5 -24.334 14.5 -41.001c0 -16 -4.66699 -29.167 -14 -39.5s-22 -15.5 -38 -15.5
c-17.333 0 -31.166 5.16699 -41.499 15.5s-15.5 23.5 -15.5 39.5zM404 682c0 16.667 4.83301 30.334 14.5 41.001s22.167 16 37.5 16c17.333 0 31.166 -5.33301 41.499 -16s15.5 -24.334 15.5 -41.001c0 -16 -5.16699 -29.167 -15.5 -39.5s-24.166 -15.5 -41.499 -15.5
c-15.333 0 -27.833 5.16699 -37.5 15.5s-14.5 23.5 -14.5 39.5zM271 626l54 157h85v-24l-98 -133h-41z" />
    <glyph glyph-name="uniF684" unicode="&#xf769;&#xf76a;" horiz-adv-x="545" 
d="M360 169v356h104v-382c0 -44 -10.667 -80.5 -32 -109.5s-55 -43.5 -101 -43.5c-36 0 -67 5.66699 -93 17l21 87c14.667 -6.66699 30.667 -10 48 -10c20.667 0 34.667 7 42 21s11 35.333 11 64zM90 0v525h104v-525h-104z" />
    <glyph glyph-name="f_f" unicode="ff" horiz-adv-x="606" 
d="M377 413l-184.007 -0.00195312v-413h-102v413h-74v87h74v28c0 62.667 11.833 108.167 35.5 136.5s61.834 42.5 114.501 42.5c38.667 0 74.334 -6.33301 107.001 -19l-22 -81c-20.667 8.66699 -43 13 -67 13c-29.333 0 -47.666 -8.66699 -54.999 -26
s-11 -48.666 -11 -93.999h184v28c0 62.667 11.833 108.167 35.5 136.5s61.5 42.5 113.5 42.5c46.667 0 86.334 -6.33301 119.001 -19l-21 -82c-26 9.33301 -52.667 14 -80 14c-12.667 0 -23.167 -1.83301 -31.5 -5.5s-14.666 -8.16699 -18.999 -13.5
s-7.66602 -14 -9.99902 -26s-3.66602 -22.667 -3.99902 -32s-0.5 -23.666 -0.5 -42.999h124v-87h-124v-413h-102v413z" />
    <glyph glyph-name="fi" unicode="fi" horiz-adv-x="546" 
d="M193 500h281.999v-500h-102v413h-180v-413h-102v413h-74v87h74v28c0 120 62.333 180 187 180c83.333 0 147 -13 191 -39l-30 -81c-36.667 22 -84.667 33 -144 33c-41.333 0 -68.666 -9.33301 -81.999 -28s-20 -49.667 -20 -93z" />
    <glyph glyph-name="fl" unicode="fl" horiz-adv-x="587" 
d="M369 100l0.00195312 517.001c-27.333 6 -57.333 9 -90 9c-36 0 -59.333 -9.83301 -70 -29.5s-16 -51.834 -16 -96.501h91v-87h-91v-413h-102v413h-74v87h74v28c0 63.333 14.667 110 44 140s77.333 45 144 45c74.667 0 138.667 -6.33301 192 -19v-551c0 -44 14 -66 42 -66
c19.333 0 38.666 3.66699 57.999 11l11 -80c-26.667 -14 -61.334 -21 -104.001 -21c-72.667 0 -109 37.667 -109 113z" />
    <glyph glyph-name="f_f_i" unicode="ffi" horiz-adv-x="831" 
d="M376 413l-183.004 -0.000976562v-413h-102v413h-74v87h74v28c0 62.667 11.833 108.167 35.5 136.5s61.834 42.5 114.501 42.5c38.667 0 74.334 -6.33301 107.001 -19l-22 -81c-20.667 8.66699 -43 13 -67 13c-29.333 0 -47.666 -8.66699 -54.999 -26
s-11 -48.666 -11 -93.999h183v28c0 120 62.333 180 187 180c83.333 0 147 -13 191 -39l-30 -81c-36.667 22 -84.667 33 -144 33c-41.333 0 -68.666 -9.33301 -81.999 -28s-20 -49.667 -20 -93h282v-500h-102v413h-180v-413h-102v413z" />
    <glyph glyph-name="f_f_l" unicode="ffl" horiz-adv-x="873" 
d="M377 413h-184.001v-413h-102v413h-74v87h74v28c0 62.667 11.833 108.167 35.5 136.5s61.834 42.5 114.501 42.5c38.667 0 74.334 -6.33301 107.001 -19l-22 -81c-20.667 8.66699 -43 13 -67 13c-29.333 0 -47.666 -8.66699 -54.999 -26s-11 -48.666 -11 -93.999h184v28
c0 63.333 14.667 110 44 140s77.333 45 144 45c74.667 0 138.667 -6.33301 192 -19v-551c0 -44 14 -66 42 -66c19.333 0 38.666 3.66699 57.999 11l11 -80c-26.667 -14 -61.334 -21 -104.001 -21c-72.667 0 -109 37.667 -109 113v517c-27.333 6 -57.333 9 -90 9
c-36 0 -59.333 -9.83301 -70 -29.5s-16 -51.834 -16 -96.501h91v-87h-91v-413h-102v413z" />
    <glyph glyph-name=".notdef" horiz-adv-x="750" 
d="M50 0v700h650v-700h-650zM620 570l-50 50l-195 -217l-195 217l-50 -50l197 -220l-197 -220l50 -50l195 217l195 -217l50 50l-198 220zM129 63v-36h8v12h4c10.667 0 16 4 16 12s-5.66699 12 -17 12h-11zM137 57h4c5.33301 0 8 -1.66699 8 -5c0 -4 -3 -6 -9 -6h-3v11z
M189 57v6h-31v-6h12v-30h7v30h12zM222 37c0 -2.66699 -2.33203 -4.00098 -6.99902 -4.00098c-3.33301 0 -6.33301 0.666992 -9 2l-3 -7c5.33301 -1.33301 9.66602 -2 12.999 -2c9.33301 0 14 4 14 12c0 4.66699 -3 8 -9 10s-9 4 -9 6s2 3 6 3c2 0 5 -0.666992 9 -2l2 7
c-5.33301 1.33301 -9 2 -11 2c-9.33301 0 -14 -3.66699 -14 -11c0 -4.66699 3 -8.16699 9 -10.5s9 -4.16602 9 -5.49902zM235.001 51.999l2 -5c4 1.33301 7 2 9 2c3.33301 0 5 -1.33301 5 -4v-2l-1 1h-4c-8 0 -12 -3.33301 -12 -10c0 -5.33301 2.66699 -8 8 -8
c4 0 7 1.66699 9 5l2 -4h6c-0.666992 0.666992 -1 3 -1 7v11c0 6.66699 -3.33301 10 -10 10c-2.66699 0 -7 -1 -13 -3zM245.001 31.999c-2.66699 0 -4 1.33301 -4 4s1.66699 4 5 4h4l1 -1v-3c-0.666992 -2.66699 -2.66699 -4 -6 -4zM284.001 26.999h8v16c0 8 -3 12 -9 12
c-4.66699 0 -8 -1.66699 -10 -5l-2 4h-5v-27h7v17c0.666992 2.66699 2.66699 4 6 4s5 -2 5 -6v-15zM299.001 33.999l-2 -6c4 -1.33301 7.33301 -2 10 -2c7.33301 0 11 3 11 9c0 3.33301 -2.66699 6.33301 -8 9c-3.33301 1.33301 -5 2.33301 -5 3c0 1.33301 1 2 3 2
c1.33301 0 4 -0.666992 8 -2l2 6c-4 1.33301 -7.33301 2 -10 2c-6.66699 0 -10 -3 -10 -9c0 -3.33301 2.66699 -6.33301 8 -9c3.33301 -1.33301 5 -2.33301 5 -3c0 -1.33301 -1 -2 -3 -2s-5 0.666992 -9 2zM338.001 41.999c0 -14 6.66699 -21 20 -21s20 7 20 21
c0 13.333 -6.66699 20 -20 20c-5.33301 0 -10 -1.83301 -14 -5.5s-6 -8.5 -6 -14.5zM344.001 41.999c0 10 4.66699 15 14 15s14 -5 14 -15s-4.66699 -15 -14 -15s-14 5 -14 15zM365.001 32.999l-1 5c-1.33301 -0.666992 -2.66602 -1 -3.99902 -1c-2.66699 0 -4 1.66699 -4 5
c0 2.66699 1.33301 4 4 4h3l2 4c-2 1.33301 -4.33301 2 -7 2c-6 0 -9 -3.33301 -9 -10c0 -7.33301 3 -11 9 -11c3.33301 0 5.66602 0.666992 6.99902 2zM399.001 62.999v-36h8v12h4c10.667 0 16 4 16 12s-5.66699 12 -17 12h-11zM407.001 56.999h4
c5.33301 0 8 -1.66699 8 -5c0 -4 -3 -6 -9 -6h-3v11zM430.001 51.999l2 -5c4 1.33301 7 2 9 2c3.33301 0 5 -1.33301 5 -4v-2l-2 1h-3c-8.66699 0 -13 -3.33301 -13 -10c0 -5.33301 3 -8 9 -8c4 0 7 1.66699 9 5l2 -4h6c-0.666992 0.666992 -1 3 -1 7v11
c0 6.66699 -3.33301 10 -10 10c-2.66699 0 -7 -1 -13 -3zM440.001 31.999c-2.66699 0 -4 1.33301 -4 4s1.66699 4 5 4h3l2 -1v-3c-0.666992 -2.66699 -2.66699 -4 -6 -4zM477.001 46.999l1 7c-0.666992 0.666992 -2 1 -4 1c-2.66699 0 -4.66699 -1.66699 -6 -5h-1l-1 4h-6
v-27h8v17c0 2.66699 2 4 6 4zM482.001 51.999l1 -5c5.33301 1.33301 8.33301 2 9 2c3.33301 0 5 -1.33301 5 -4v-2l-1 1h-4c-8.66699 0 -13 -3.33301 -13 -10c0 -5.33301 3 -8 9 -8c4.66699 0 7.66699 1.66699 9 5h1l1 -4h6c-0.666992 0.666992 -1 3 -1 7v11
c0 6.66699 -3.33301 10 -10 10c-2 0 -6 -1 -12 -3zM491.001 31.999c-2.66699 0 -4 1.33301 -4 4s1.66699 4 5 4h4l1 -1v-3c-0.666992 -2.66699 -2.66699 -4 -6 -4zM533.001 56.999v6h-31v-6h12v-30h7v30h12zM547.001 38.999l-6.00098 15h-8l12 -27
c-1.33301 -3.33301 -3 -5 -5 -5l-1 1l-2 -6c0.666992 -0.666992 2.33398 -1 5.00098 -1c4 0 7.33301 4.33301 10 13l10 25h-8l-5 -15v-5h-1zM565 53.999v-38h8v12c1.33301 -1.33301 3 -2 5 -2c9.33301 0 14 5 14 15c0 9.33301 -3.66699 14 -11 14
c-3.33301 0 -6.33301 -1.33301 -9 -4h-1l-1 3h-5zM579 48.999c3.33301 0 4.99902 -2.66699 4.99902 -8c0 -6 -2.33301 -9 -7 -9c-1.33301 0 -2.66602 0.666992 -3.99902 2v10c0 3.33301 2 5 6 5zM620.999 28.999l-3.00098 5c-1.33301 -1.33301 -3.66602 -2 -6.99902 -2
c-4.66699 0 -7 2 -7 6h18v6c0 7.33301 -4 11 -12 11c-9.33301 0 -14 -5 -14 -15c0 -9.33301 4.66699 -14 14 -14c3.33301 0 7 1 11 3zM609.998 48.999c4 0 5.66699 -2 5 -6h-11c0 4 2 6 6 6z" />
    <glyph glyph-name="space" unicode=" " horiz-adv-x="261" 
 />
    <glyph glyph-name="exclam" unicode="!" horiz-adv-x="300" 
d="M115 361v339h107v-339l-21 -170h-65zM99 55c0 20 6.16895 36.001 18.502 48.001s28.5 18 48.5 18c21.333 0 38.166 -5.83301 50.499 -17.5s18.5 -27.834 18.5 -48.501c0 -20 -6.33301 -36 -19 -48s-29.334 -18 -50.001 -18c-20 0 -36.167 6 -48.5 18s-18.5 28 -18.5 48z
" />
    <glyph glyph-name="quotedbl" unicode="&#x22;" horiz-adv-x="365" 
d="M221 497v203h94l-33 -203h-61zM90 497v203h94l-33 -203h-61z" />
    <glyph glyph-name="numbersign" unicode="#" 
d="M256 55l38 161h-98l-38 -161h-86l38 161h-76l18 79h77l28 120h-73l18 78h74l36 152h86l-36 -152h98l36 152h86l-36 -152h74l-20 -78h-73l-28 -120h71l-20 -79h-70l-38 -161h-86zM243 415l-28 -120h98l28 120h-98z" />
    <glyph glyph-name="dollar" unicode="$" 
d="M240 -100l-0.000976562 86.999c-72.667 2 -128 13.333 -166 34l32 91c34.667 -20 79.334 -31.667 134.001 -35v242c-24.667 11.333 -45.167 22 -61.5 32s-33.333 23.167 -51 39.5s-31 35.666 -40 57.999s-13.5 47.833 -13.5 76.5c0 52 14.333 93.833 43 125.5
s69.667 51.167 123 58.5v91h84v-88c52.667 -2 99.667 -12 141 -30l-30 -88c-30 14.667 -67 23.667 -111 27v-220c26 -12.667 47.167 -24 63.5 -34s34 -23.333 53 -40s33.167 -36.167 42.5 -58.5s14 -47.5 14 -75.5c0 -55.333 -15 -100.166 -45 -134.499
s-72.667 -56.166 -128 -65.499v-93h-84zM391.999 181.999c0 24.667 -8.33203 45.333 -24.999 62s-40.334 32.667 -71.001 48v-213c64 8.66699 96 43 96 103zM179 532.998c0 -22.667 7.5 -42 22.5 -58s37.167 -31.667 66.5 -47v194c-59.333 -5.33301 -89 -35 -89 -89z" />
    <glyph glyph-name="percent" unicode="%" horiz-adv-x="803" 
d="M62 542c0 57.333 14.833 100 44.5 128s69.5 42 119.5 42c50.667 0 90.667 -13.5 120 -40.5s44 -70.167 44 -129.5s-14.667 -102.5 -44 -129.5s-69.333 -40.5 -120 -40.5s-90.667 13.5 -120 40.5s-44 70.167 -44 129.5zM155 542c0 -67.333 23.667 -101 71 -101
c24 0 41.833 7.5 53.5 22.5s17.5 41.167 17.5 78.5s-5.83301 63.5 -17.5 78.5s-29.5 22.5 -53.5 22.5s-41.833 -7.5 -53.5 -22.5s-17.5 -41.167 -17.5 -78.5zM441 170c0 57.333 14.833 100 44.5 128s69.5 42 119.5 42c50.667 0 90.667 -13.5 120 -40.5s44 -70.167 44 -129.5
s-14.667 -102.5 -44 -129.5s-69.333 -40.5 -120 -40.5s-90.667 13.5 -120 40.5s-44 70.167 -44 129.5zM534 170c0 -67.333 23.667 -101 71 -101c24 0 41.833 7.5 53.5 22.5s17.5 41.167 17.5 78.5s-5.83301 63.5 -17.5 78.5s-29.5 22.5 -53.5 22.5s-41.833 -7.5 -53.5 -22.5
s-17.5 -41.167 -17.5 -78.5zM114 40l541 674l60 -51l-541 -676z" />
    <glyph glyph-name="ampersand" unicode="&#x26;" horiz-adv-x="814" 
d="M107 190c0 49.333 15.6689 94.832 47.002 136.499s72 77.167 122 106.5c-38.667 55.333 -58 104 -58 146c0 37.333 13 69 39 95s65.333 39 118 39c54 0 93.5 -11.833 118.5 -35.5s37.5 -52.834 37.5 -87.501c0 -63.333 -44 -120.666 -132 -171.999
c47.333 -77.333 103 -148.333 167 -213c27.333 30 52.666 79 75.999 147l77 -38c-8.66699 -23.333 -22.5 -52.166 -41.5 -86.499s-36.167 -61.166 -51.5 -80.499c42 -38.667 80.667 -67.334 116 -86.001l-58 -74c-36.667 18 -76.334 47.667 -119.001 89
c-60.667 -59.333 -134.334 -89 -221.001 -89c-67.333 0 -123.666 18.167 -168.999 54.5s-68 85.833 -68 148.5zM504.002 138.999c-67.333 70.667 -127.667 147.667 -181 231c-38 -28.667 -66.5 -56.5 -85.5 -83.5s-28.5 -57.167 -28.5 -90.5c0 -37.333 14.167 -67 42.5 -89
s63.833 -33 106.5 -33c28.667 0 56.5 6.5 83.5 19.5s47.833 28.167 62.5 45.5zM320.001 575.999c0 -33.333 13 -68.667 39 -106c57.333 36.667 86 70.667 86 102c0 42 -21.333 63 -64 63c-40.667 0 -61 -19.667 -61 -59z" />
    <glyph glyph-name="quotesingle" unicode="'" horiz-adv-x="234" 
d="M90 497v203h94l-33 -203h-61z" />
    <glyph glyph-name="parenleft" unicode="(" horiz-adv-x="300" 
d="M294 -175l-67 -44.999c-57.333 60 -99.5 131.5 -126.5 214.5s-40.5 165.833 -40.5 248.5c0 82 13.667 164.667 41 248s70.333 157 129 221l64 -44c-88 -114.667 -132 -256.334 -132 -425.001c0 -72 11 -146.167 33 -222.5s55 -141.5 99 -195.5z" />
    <glyph glyph-name="parenright" unicode=")" horiz-adv-x="300" 
d="M6 666l66.999 46c57.333 -60 99.5 -131.5 126.5 -214.5s40.5 -165.833 40.5 -248.5c0 -82 -13.667 -164.667 -41 -248s-70.333 -157 -129 -221l-64 44c88 114 132 255.667 132 425c0 70.667 -11.167 144.167 -33.5 220.5s-55.166 141.833 -98.499 196.5z" />
    <glyph glyph-name="asterisk" unicode="*" horiz-adv-x="363" 
d="M80 690l56 32l26 -44l17 -57l18 56l26 44l55 -30l-27 -47l-47 -46l66 14h52v-64h-49l-63 14l47 -47l25 -41l-55 -31l-26 43l-22 62l-16 -58l-27 -45l-57 32l28 46l44 39l-57 -14h-54v64h54l61 -14l-47 44z" />
    <glyph glyph-name="plus" unicode="+" horiz-adv-x="515" 
d="M41 293v90h170v176h93v-176h170v-90h-170v-176h-93v176h-170z" />
    <glyph glyph-name="comma" unicode="," horiz-adv-x="237" 
d="M46 52c0 18.667 6.16504 33.834 18.498 45.501s28.166 17.5 47.499 17.5c24 0 43.167 -8.33301 57.5 -25s21.5 -39.334 21.5 -68.001c0 -47.333 -12.167 -85 -36.5 -113s-52.166 -47 -83.499 -57l-31 45c20.667 8 37.334 21.167 50.001 39.5s19.334 37.5 20.001 57.5
c-2.66699 -0.666992 -6.66699 -1 -12 -1c-15.333 0 -27.833 5.16699 -37.5 15.5s-14.5 24.833 -14.5 43.5z" />
    <glyph glyph-name="hyphen" unicode="-" horiz-adv-x="360" 
d="M57 242v92h246v-92h-246z" />
    <glyph glyph-name="period" unicode="." horiz-adv-x="228" 
d="M46 55c0 20 6.16895 36.001 18.502 48.001s28.5 18 48.5 18c21.333 0 38.166 -5.83301 50.499 -17.5s18.5 -27.834 18.5 -48.501c0 -20 -6.33301 -36 -19 -48s-29.334 -18 -50.001 -18c-20 0 -36.167 6 -48.5 18s-18.5 28 -18.5 48z" />
    <glyph glyph-name="slash" unicode="/" horiz-adv-x="378" 
d="M-31 -104l361 816l79 -35l-362 -817z" />
    <glyph glyph-name="zero" unicode="0" 
d="M42 350c0 120 20 210.499 60 271.499s98.333 91.5 175 91.5c81.333 0 141 -29.667 179 -89s57 -150.666 57 -273.999c0 -120 -20.167 -210.5 -60.5 -271.5s-98.833 -91.5 -175.5 -91.5c-156.667 0 -235 121 -235 363zM146 349.999c0 -184 43.667 -276.001 131 -276.001
c46 0 79.5 22.333 100.5 67s31.5 114.334 31.5 209.001c0 184 -44 276 -132 276c-45.333 0 -78.5 -22.5 -99.5 -67.5s-31.5 -114.5 -31.5 -208.5z" />
    <glyph glyph-name="one" unicode="1" 
d="M105 0v90h139v445l13 63l-44 -53l-101 -71l-45 62l223 176h53v-622h136v-90h-374z" />
    <glyph glyph-name="two" unicode="2" 
d="M459 536c0 -105.333 -69.668 -242.666 -209.001 -411.999l-51 -42v-4l68 12h206v-90h-408v46c29.333 30.667 57.833 62.334 85.5 95.001s58.334 71.667 92.001 117s60.667 91 81 137s30.5 87 30.5 123c0 31.333 -8.83301 56.666 -26.5 75.999s-43.834 29 -78.501 29
c-47.333 0 -90.666 -16.667 -129.999 -50l-42 73c54.667 44.667 119.667 67 195 67c57.333 0 102.833 -15.833 136.5 -47.5s50.5 -74.834 50.5 -129.501z" />
    <glyph glyph-name="three" unicode="3" 
d="M237 74c43.333 0 78.166 12.3311 104.499 36.998s39.5 56.334 39.5 95.001c0 84 -49.667 126 -149 126h-74v46l135 197l50 44l-71 -9h-184v90h368v-48l-151 -216l-39 -28v-4l37 6c52.667 -2 95.834 -20.167 129.501 -54.5s50.5 -81.166 50.5 -140.499
c0 -72 -23 -128 -69 -168s-104.667 -60 -176 -60c-61.333 0 -113 9.33301 -155 28l28 87c37.333 -18.667 79.333 -28 126 -28z" />
    <glyph glyph-name="four" unicode="4" 
d="M537 290v-84h-114v-206h-98v206h-305v51l325 451h78v-418h114zM325 290v190l10 83h-3l-35 -70l-125 -166l-48 -44l67 7h134z" />
    <glyph glyph-name="five" unicode="5" 
d="M216 77c45.333 0 81.5 12.334 108.5 37.001s40.5 59 40.5 103c0 87.333 -54.333 131.666 -163 132.999l-82 -4v354h326v-96h-235v-170l43 3c65.333 -1.33301 117.166 -21 155.499 -59s57.5 -90 57.5 -156c0 -74.667 -23.5 -132.5 -70.5 -173.5
s-107.167 -61.5 -180.5 -61.5c-56 0 -103.667 8 -143 24l27 86c34.667 -13.333 73.334 -20 116.001 -20z" />
    <glyph glyph-name="six" unicode="6" 
d="M504 214c0 -64.667 -20 -118.666 -60 -161.999s-93.333 -65 -160 -65c-68.667 0 -123.667 22.167 -165 66.5s-62 107.166 -62 188.499c0 128.667 32.667 235.667 98 321s147.333 135.333 246 150l22 -81c-68 -12 -125.667 -44 -173 -96s-77 -111.667 -89 -179
c31.333 44 78.333 66 141 66c62 0 111.167 -18.333 147.5 -55s54.5 -88 54.5 -154zM402 206.001c0 86.667 -40.999 130 -122.999 130c-28.667 0 -53.834 -6.83301 -75.501 -20.5s-37.167 -30.5 -46.5 -50.5c-1.33301 -10.667 -2 -23.667 -2 -39
c0 -41.333 11.167 -77 33.5 -107s53.833 -45 94.5 -45c35.333 0 64 12.5 86 37.5s33 56.5 33 94.5z" />
    <glyph glyph-name="seven" unicode="7" 
d="M209 0h-102l242 565l44 49l-60 -10h-273v96h433v-32z" />
    <glyph glyph-name="eight" unicode="8" 
d="M65 169c0 42.667 10.834 79 32.501 109s54.167 57 97.5 81c-36.667 22 -64.834 46.667 -84.501 74s-29.5 60.666 -29.5 99.999c0 52.667 18.333 95.834 55 129.501s85.667 50.5 147 50.5c57.333 0 103.5 -15 138.5 -45s52.5 -69.333 52.5 -118
c0 -38.667 -8.66699 -72.167 -26 -100.5s-45 -55.5 -83 -81.5c40.667 -24 71.667 -50.167 93 -78.5s32 -63.833 32 -106.5c0 -58.667 -19.5 -106 -58.5 -142s-91.833 -54 -158.5 -54c-64 0 -114.667 17 -152 51s-56 77.667 -56 131zM391.001 180
c0 17.333 -3.49902 33.166 -10.499 47.499s-17.667 27.5 -32 39.5s-27.833 21.833 -40.5 29.5s-29 16.834 -49 27.501c-66 -37.333 -99 -84 -99 -140c0 -31.333 10.5 -57.5 31.5 -78.5s49.5 -31.5 85.5 -31.5c33.333 0 60.666 9.16699 81.999 27.5s32 44.5 32 78.5z
M180.002 534c0 -31.333 10.333 -56.667 31 -76s51 -39 91 -59c50.667 40.667 76 84 76 130c0 30 -9.33301 53.667 -28 71s-41.667 26 -69 26c-31.333 0 -56 -9 -74 -27s-27 -39.667 -27 -65z" />
    <glyph glyph-name="nine" unicode="9" 
d="M49 485c0 68 19.498 123.001 58.498 165.001s93.833 63 164.5 63s126.167 -22.5 166.5 -67.5s60.5 -108.167 60.5 -189.5c0 -144.667 -32.167 -256.334 -96.5 -335.001s-147.5 -123.334 -249.5 -134.001l-23 81c73.333 10.667 132.333 39.334 177 86.001
s72.334 104.667 83.001 174c-16.667 -19.333 -35.167 -32.833 -55.5 -40.5s-47.166 -11.5 -80.499 -11.5c-56.667 0 -105 18.5 -145 55.5s-60 88.167 -60 153.5zM150.998 493.001c0 -42 11.498 -74.5 34.498 -97.5s53.167 -34.5 90.5 -34.5c58.667 0 99.334 18 122.001 54
c2 15.333 3 29.333 3 42c0 47.333 -11.167 87.333 -33.5 120s-55.166 49 -98.499 49c-37.333 0 -66.333 -11.667 -87 -35s-31 -56 -31 -98z" />
    <glyph glyph-name="colon" unicode=":" horiz-adv-x="241" 
d="M92 440c0 20 6.16895 36.001 18.502 48.001s28.5 18 48.5 18c21.333 0 38.166 -5.83301 50.499 -17.5s18.5 -27.834 18.5 -48.501c0 -20 -6.33301 -36 -19 -48s-29.334 -18 -50.001 -18c-20 0 -36.167 6 -48.5 18s-18.5 28 -18.5 48zM92.002 67.001
c0 20 6.16895 36.001 18.502 48.001s28.5 18 48.5 18c21.333 0 38.166 -5.83301 50.499 -17.5s18.5 -27.834 18.5 -48.501c0 -20 -6.33301 -36 -19 -48s-29.334 -18 -50.001 -18c-20 0 -36.167 6 -48.5 18s-18.5 28 -18.5 48z" />
    <glyph glyph-name="semicolon" unicode=";" horiz-adv-x="247" 
d="M86 52c0 18.667 6.16504 33.834 18.498 45.501s28.166 17.5 47.499 17.5c24 0 43.167 -8.33301 57.5 -25s21.5 -39.334 21.5 -68.001c0 -47.333 -12.167 -85 -36.5 -113s-52.166 -47 -83.499 -57l-31 45c20.667 8 37.334 21.167 50.001 39.5s19.334 37.5 20.001 57.5
c-2.66699 -0.666992 -6.66699 -1 -12 -1c-15.333 0 -27.833 5.16699 -37.5 15.5s-14.5 24.833 -14.5 43.5zM89.998 440c0 20 6.16895 36.001 18.502 48.001s28.5 18 48.5 18c21.333 0 38.166 -5.83301 50.499 -17.5s18.5 -27.834 18.5 -48.501c0 -20 -6.33301 -36 -19 -48
s-29.334 -18 -50.001 -18c-20 0 -36.167 6 -48.5 18s-18.5 28 -18.5 48z" />
    <glyph glyph-name="less" unicode="&#x3c;" horiz-adv-x="515" 
d="M428 75l-387 221v47l382 231l46 -74l-231 -142l-91 -37l90 -32l237 -141z" />
    <glyph glyph-name="equal" unicode="=" horiz-adv-x="515" 
d="M41 382v90h433v-90h-433zM41 204v90h433v-90h-433z" />
    <glyph glyph-name="greater" unicode="&#x3e;" horiz-adv-x="515" 
d="M87 574l387 -221v-47l-382 -231l-46 74l231 142l91 37l-90 32l-237 141z" />
    <glyph glyph-name="question" unicode="?" horiz-adv-x="444" 
d="M230 191l-85.999 -0.000976562c-0.666992 6 -1 14.667 -1 26c0 32 5.66699 61 17 87s24.833 47.667 40.5 65s31.5 33.833 47.5 49.5s29.667 33.167 41 52.5s17 40 17 62c0 62 -34 93 -102 93c-46.667 0 -92 -15 -136 -45l-37 78c56 36 120.667 54 194 54
c59.333 0 105.5 -15.167 138.5 -45.5s49.5 -70.166 49.5 -119.499c0 -35.333 -6.33301 -66.5 -19 -93.5s-27.834 -49.5 -45.501 -67.5l-53.5 -52.5c-18 -17 -33.333 -37.5 -46 -61.5s-19 -51.333 -19 -82zM124.001 54.999c0 20 6.16895 36.001 18.502 48.001
s28.5 18 48.5 18c21.333 0 38.166 -5.83301 50.499 -17.5s18.5 -27.834 18.5 -48.501c0 -20 -6.33301 -36 -19 -48s-29.334 -18 -50.001 -18c-20 0 -36.167 6 -48.5 18s-18.5 28 -18.5 48z" />
    <glyph glyph-name="at" unicode="@" horiz-adv-x="1062" 
d="M662 456l33.002 31.998h50l-51 -280c-5.33301 -29.333 -8 -53 -8 -71c0 -28 13 -42 39 -42c43.333 0 81.833 21 115.5 63s50.5 98 50.5 168c0 97.333 -31.333 172 -94 224s-144.667 78 -246 78c-107.333 0 -197.5 -36.667 -270.5 -110s-109.5 -165.666 -109.5 -276.999
s33.167 -198.666 99.5 -261.999s157.5 -95 273.5 -95c47.333 0 91.666 9.33301 132.999 28l24 -78c-48.667 -22.667 -106 -34 -172 -34c-85.333 0 -161.333 16.167 -228 48.5s-120 82 -160 149s-60 146.5 -60 238.5c0 141.333 46 256 138 344s204 132 336 132
c124 0 226 -34.667 306 -104s120 -163.333 120 -282c0 -86 -27.667 -160 -83 -222s-121.333 -93 -198 -93c-66 0 -99 30 -99 90c0 12.667 0.666992 22.667 2 30h-4c-52 -80 -111 -120 -177 -120c-33.333 0 -61.5 13.833 -84.5 41.5s-34.5 63.5 -34.5 107.5
c0 86 25.667 163.333 77 232s111 103 179 103c35.333 0 69.666 -13 102.999 -39zM607.002 227.998l28 152c-20 20.667 -43.667 31 -71 31c-44.667 0 -83.167 -24.333 -115.5 -73s-48.5 -100.667 -48.5 -156c0 -58 22.667 -87 68 -87c22 0 46 13.167 72 39.5
s48.333 57.5 67 93.5z" />
    <glyph glyph-name="A" unicode="A" horiz-adv-x="594" 
d="M477 0l-65 177h-239l-63 -177h-105l259 708h66l260 -708h-113zM269 452l-66 -188h183l-67 189l-24 108h-2z" />
    <glyph glyph-name="B" unicode="B" horiz-adv-x="587" 
d="M518 539c0 -38 -10.832 -72.167 -32.499 -102.5s-53.834 -50.833 -96.501 -61.5v-5c44 -7.33301 80 -25 108 -53s42 -67.667 42 -119c0 -46 -13.167 -85.167 -39.5 -117.5s-59 -55.333 -98 -69s-81.833 -20.5 -128.5 -20.5c-92.667 0 -159 4.66699 -199 14v689
c55.333 10 122.333 15 201 15c162 0 243 -56.667 243 -170zM278.001 81c42 0 77.167 10.168 105.5 30.501s42.5 49.166 42.5 86.499c0 76.667 -55.333 115 -166 115h-82v-226c16 -4 49.333 -6 100 -6zM178.001 397.001h49c32 0 56.333 1.33301 73 4
c32 10.667 58 25.667 78 45s30 43 30 71c0 68 -45.333 102 -136 102c-48 0 -79.333 -1.66699 -94 -5v-217z" />
    <glyph glyph-name="C" unicode="C" horiz-adv-x="566" 
d="M510 115l22.999 -85.9961c-37.333 -28 -96.666 -42 -177.999 -42c-42.667 0 -82.167 7 -118.5 21s-68.833 35.167 -97.5 63.5s-51 66.333 -67 114s-24 102.5 -24 164.5c0 64 9 120.167 27 168.5s42.167 86.166 72.5 113.499s63.166 47.666 98.499 60.999
s72.333 20 111 20c68 0 123.333 -8.33301 166 -25l-23 -93c-30 14.667 -74.667 22 -134 22c-60 0 -109.167 -21.833 -147.5 -65.5s-57.5 -110.834 -57.5 -201.501c0 -84.667 19.333 -150.334 58 -197.001s91.334 -70 158.001 -70c54 0 98.333 10.667 133 32z" />
    <glyph glyph-name="D" unicode="D" horiz-adv-x="651" 
d="M74 -1l-0.000976562 700.999c44.667 6 109.334 9 194.001 9c113.333 0 197.5 -31.667 252.5 -95s82.5 -149.666 82.5 -258.999c0 -49.333 -6.33301 -95 -19 -137s-32 -80.5 -58 -115.5s-62 -62.5 -108 -82.5s-99.667 -30 -161 -30c-75.333 0 -136.333 3 -183 9z
M273.999 612.999c-46.667 0 -77.666 -1.33496 -92.999 -4.00195v-519c17.333 -2.66699 45.333 -4 84 -4c42 0 78.167 7.33301 108.5 22s53.666 35 69.999 61s28.166 54.333 35.499 85s11 64.334 11 101.001c0 32.667 -3.5 63.334 -10.5 92.001s-18.167 56 -33.5 82
s-37.666 46.5 -66.999 61.5s-64.333 22.5 -105 22.5z" />
    <glyph glyph-name="E" unicode="E" horiz-adv-x="530" 
d="M74 0v700h396v-94h-289v-202h264v-94h-264v-216h294v-94h-401z" />
    <glyph glyph-name="F" unicode="F" horiz-adv-x="513" 
d="M74 0v700h396v-94h-289v-212h268v-94h-268v-300h-107z" />
    <glyph glyph-name="G" unicode="G" horiz-adv-x="611" 
d="M315 293l0.000976562 62.998h246v-310c-23.333 -18.667 -53.5 -33.167 -90.5 -43.5s-74.5 -15.5 -112.5 -15.5c-93.333 0 -168.333 30.333 -225 91s-85 151.334 -85 272.001c0 62.667 9.16699 118.167 27.5 166.5s43.166 86.333 74.499 114s65.333 48.334 102 62.001
s75 20.5 115 20.5c66 0 123 -8.66699 171 -26l-24 -92c-33.333 14.667 -78.666 22 -135.999 22c-62.667 0 -114.5 -21.5 -155.5 -64.5s-61.5 -110.833 -61.5 -203.5c0 -88 19.167 -154.333 57.5 -199s89.166 -67 152.499 -67c42.667 0 76.667 8.33301 102 25v167z" />
    <glyph glyph-name="H" unicode="H" horiz-adv-x="663" 
d="M482 0v308h-301v-308h-107v700h107v-296h301v296h107v-700h-107z" />
    <glyph glyph-name="I" unicode="I" horiz-adv-x="287" 
d="M90 0v700h107v-700h-107z" />
    <glyph glyph-name="J" unicode="J" horiz-adv-x="310" 
d="M120 196v504h107v-531c0 -55.333 -12.833 -99.166 -38.5 -131.499s-64.167 -48.5 -115.5 -48.5c-40.667 0 -74.667 6.33301 -102 19l22 89c16.667 -8 36.667 -12 60 -12c26 0 43.667 9.16699 53 27.5s14 46.166 14 83.499z" />
    <glyph glyph-name="K" unicode="K" horiz-adv-x="615" 
d="M456 0l-233 313h-42v-313h-107v700h107v-319l39 14l217 305h122l-221 -298l-47 -35l53 -40l246 -327h-134z" />
    <glyph glyph-name="L" unicode="L" horiz-adv-x="516" 
d="M501 96v-96h-427v700h107v-604h320z" />
    <glyph glyph-name="M" unicode="M" horiz-adv-x="795" 
d="M614 0v423l12 119h-5l-40 -103l-168 -291h-33l-177 292l-40 102h-5l18 -118v-424h-102v700h90l205 -341l33 -79h3l30 81l195 339h91v-700h-107z" />
    <glyph glyph-name="N" unicode="N" horiz-adv-x="666" 
d="M523 -8l-302 425l-55 104h-4l14 -104v-417h-102v708h69l304 -425l52 -101h5l-14 101v417h102v-708h-69z" />
    <glyph glyph-name="O" unicode="O" horiz-adv-x="678" 
d="M48 350c0 116 25.167 205.5 75.5 268.5s121.833 94.5 214.5 94.5c96.667 0 169.5 -32.333 218.5 -97s73.5 -153.334 73.5 -266.001c0 -116 -25.5 -205.5 -76.5 -268.5s-122.833 -94.5 -215.5 -94.5c-96 0 -168.333 32.333 -217 97s-73 153.334 -73 266.001zM161 350
c0 -78.667 14.832 -143.167 44.499 -193.5s73.834 -75.5 132.501 -75.5c57.333 0 101.5 22.167 132.5 66.5s46.5 111.833 46.5 202.5c0 78.667 -14.833 143.167 -44.5 193.5s-74.5 75.5 -134.5 75.5c-56 0 -99.5 -22.5 -130.5 -67.5s-46.5 -112.167 -46.5 -201.5z" />
    <glyph glyph-name="P" unicode="P" horiz-adv-x="565" 
d="M74 0l0.00195312 692.999c46 10.667 106 16 180 16c36 0 69.167 -3.16699 99.5 -9.5s59.666 -17.166 87.999 -32.499s50.666 -38.333 66.999 -69s24.5 -68 24.5 -112c0 -80 -26 -139.167 -78 -177.5s-116.333 -57.5 -193 -57.5c-41.333 0 -68.333 1.33301 -81 4v-255
h-107zM259.002 614.999c-38 0 -64 -1.66699 -78 -5v-260c10 -3.33301 33.333 -5 70 -5c112.667 0 169 47.333 169 142c0 46 -15.333 78.833 -46 98.5s-69 29.5 -115 29.5z" />
    <glyph glyph-name="Q" unicode="Q" horiz-adv-x="678" 
d="M703 -92v-93c-28.667 -8 -60.334 -12 -95.001 -12c-47.333 0 -110.833 11 -190.5 33s-134.5 33 -164.5 33c-15.333 0 -30.666 -2 -45.999 -6v93c20 4 39.333 6 58 6c34.667 0 90 -10.667 166 -32s136.667 -32 182 -32c30.667 0 60.667 3.33301 90 10zM48 350
c0 116 25.167 205.5 75.5 268.5s121.833 94.5 214.5 94.5c96.667 0 169.5 -32.333 218.5 -97s73.5 -153.334 73.5 -266.001c0 -116 -25.5 -205.5 -76.5 -268.5s-122.833 -94.5 -215.5 -94.5c-96 0 -168.333 32.333 -217 97s-73 153.334 -73 266.001zM161 350
c0 -78.667 14.832 -143.167 44.499 -193.5s73.834 -75.5 132.501 -75.5c57.333 0 101.5 22.167 132.5 66.5s46.5 111.833 46.5 202.5c0 78.667 -14.833 143.167 -44.5 193.5s-74.5 75.5 -134.5 75.5c-56 0 -99.5 -22.5 -130.5 -67.5s-46.5 -112.167 -46.5 -201.5z" />
    <glyph glyph-name="R" unicode="R" horiz-adv-x="598" 
d="M74 0l-0.000976562 693c58.667 10.667 121.334 16 188.001 16c45.333 0 85.5 -5.66699 120.5 -17s64.5 -32.166 88.5 -62.499s36 -68.833 36 -115.5c0 -54 -14 -98.833 -42 -134.5s-65.333 -59.834 -112 -72.501l48 -35l168 -272h-124l-178 290l-86 14v-304h-107z
M266.999 615c-44 0 -72.668 -2 -86.001 -6v-234h69c44.667 0 79.834 10.667 105.501 32s38.5 53.333 38.5 96c0 33.333 -11.333 60.333 -34 81s-53.667 31 -93 31z" />
    <glyph glyph-name="S" unicode="S" horiz-adv-x="530" 
d="M382 182c0 27.333 -11.333 50.666 -34 69.999s-50 35.833 -82 49.5s-64 28.5 -96 44.5s-59.333 39.167 -82 69.5s-34 66.833 -34 109.5c0 60 20.167 106.333 60.5 139s95.833 49 166.5 49c83.333 0 148.333 -12 195 -36l-33 -91c-38.667 22 -93.334 33 -164.001 33
c-37.333 0 -66 -8 -86 -24s-30 -36.667 -30 -62c0 -21.333 8.16699 -40.666 24.5 -57.999s36.5 -31.5 60.5 -42.5s50.333 -23.833 79 -38.5s55 -29.667 79 -45s44.167 -36.5 60.5 -63.5s24.5 -57.833 24.5 -92.5c0 -65.333 -22 -116 -66 -152s-104 -54 -180 -54
c-89.333 0 -158.666 13 -207.999 39l35 93c46 -25.333 102 -38 168 -38c44 0 78.667 8.5 104 25.5s38 42.167 38 75.5z" />
    <glyph glyph-name="T" unicode="T" horiz-adv-x="561" 
d="M546 700v-96h-212v-604h-107v604h-212v96h531z" />
    <glyph glyph-name="U" unicode="U" horiz-adv-x="640" 
d="M466 257v443h102v-460c0 -84.667 -21.167 -147.5 -63.5 -188.5s-100.833 -61.5 -175.5 -61.5c-171.333 0 -257 77.667 -257 233v477h107v-443c0 -62.667 12 -106.834 36 -132.501s62 -38.5 114 -38.5c48 0 82.833 13.333 104.5 40s32.5 70.334 32.5 131.001z" />
    <glyph glyph-name="V" unicode="V" horiz-adv-x="583" 
d="M116 700l161 -450l22 -112h2l24 114l153 448h110l-262 -708h-65l-266 708h121z" />
    <glyph glyph-name="W" unicode="W" horiz-adv-x="843" 
d="M120 700l111 -434l14 -120h3l16 122l134 432h62l134 -434l15 -120h3l16 122l103 432h108l-194 -708h-67l-134 433l-18 107h-5l-17 -108l-134 -432h-69l-196 708h115z" />
    <glyph glyph-name="X" unicode="X" horiz-adv-x="625" 
d="M19 0l225 356l-205 344h129l127 -222l24 -63l24 63l133 222h118l-212 -337l222 -363h-127l-142 236l-28 66l-25 -66l-145 -236h-118z" />
    <glyph glyph-name="Y" unicode="Y" horiz-adv-x="573" 
d="M234 0v270l-231 430h127l148 -287l16 -67h2l17 69l142 285h115l-229 -429v-271h-107z" />
    <glyph glyph-name="Z" unicode="Z" horiz-adv-x="542" 
d="M33 0v96l328 468l46 40h-374v96h477v-96l-330 -471l-46 -37h376v-96h-477z" />
    <glyph glyph-name="bracketleft" unicode="[" horiz-adv-x="313" 
d="M74 -230v930h205v-87h-107v-756h107v-87h-205z" />
    <glyph glyph-name="backslash" unicode="\" horiz-adv-x="399" 
d="M51 712l365 -816l-80 -36l-367 816z" />
    <glyph glyph-name="bracketright" unicode="]" horiz-adv-x="313" 
d="M239 700v-930h-205v87h107v756h-107v87h205z" />
    <glyph glyph-name="asciicircum" unicode="^" horiz-adv-x="500" 
d="M35 425l191 283h47l176 -283h-104l-76 129l-22 70l-28 -71l-86 -128h-98z" />
    <glyph glyph-name="underscore" unicode="_" horiz-adv-x="424" 
d="M0 -214v87h424v-87h-424z" />
    <glyph glyph-name="grave" unicode="`" horiz-adv-x="296" 
d="M173 720l63 -151h-57l-119 126v25h113z" />
    <glyph glyph-name="a" unicode="a" horiz-adv-x="496" 
d="M91 390l-28.999 74.999c50.667 29.333 118 44 202 44c64 0 108 -14.667 132 -44s36 -69 36 -119c0 -25.333 -1.16699 -62.166 -3.5 -110.499s-3.5 -83.166 -3.5 -104.499c0 -53.333 5.33301 -97.333 16 -132h-80l-21 69h-5c-34.667 -50.667 -85.334 -76 -152.001 -76
c-44.667 0 -81 13.167 -109 39.5s-42 61.166 -42 104.499c0 104 84 156 252 156c20 0 35 -0.333008 45 -1c2 16.667 3 31.667 3 45c0 32 -6.66699 54.333 -20 67s-37 19 -71 19c-58.667 0 -108.667 -10.667 -150 -32zM215.001 76.999c55.333 0 93.333 23.332 114 69.999v75
c-21.333 1.33301 -37 2 -47 2c-95.333 0 -143 -25 -143 -75c0 -21.333 7 -38.666 21 -51.999s32.333 -20 55 -20z" />
    <glyph glyph-name="b" unicode="b" horiz-adv-x="538" 
d="M68 26v673.999h102v-245h4c30.667 38 74.667 57 132 57c126.667 0 190 -84 190 -252c0 -87.333 -21.5 -154.166 -64.5 -200.499s-103.5 -69.5 -181.5 -69.5c-77.333 0 -138 12 -182 36zM282 424.999c-56.667 0 -94 -30.667 -112 -92v-238c23.333 -12 53.333 -18 90 -18
c86 0 129 60.667 129 182c0 110.667 -35.667 166 -107 166z" />
    <glyph glyph-name="c" unicode="c" horiz-adv-x="443" 
d="M387 110l28.001 -78c-41.333 -30 -94 -45 -158 -45c-143.333 0 -215 87.667 -215 263c0 84 19 148.833 57 194.5s92.333 68.5 163 68.5c57.333 0 105.666 -10.333 144.999 -31l-27 -85c-33.333 17.333 -68.333 26 -105 26c-84 0 -126 -57.667 -126 -173
c0 -50.667 10.833 -92.167 32.5 -124.5s55.167 -48.5 100.5 -48.5c40.667 0 75.667 11 105 33z" />
    <glyph glyph-name="d" unicode="d" horiz-adv-x="538" 
d="M470 700v-526.001c0 -77.333 3.33301 -135.666 10 -174.999h-71l-19 68h-4c-13.333 -24 -32.833 -43.333 -58.5 -58s-55.167 -22 -88.5 -22c-131.333 0 -197 86 -197 258c0 84.667 19.833 150 59.5 196s95.5 69 167.5 69c36.667 0 69.667 -5.33301 99 -16v206h102z
M260 73.999c58 0 94 30.667 108 92v233c-20 16 -50 24 -90 24c-86 0 -129 -59.667 -129 -179c0 -113.333 37 -170 111 -170z" />
    <glyph glyph-name="e" unicode="e" horiz-adv-x="508" 
d="M413 111l35.9971 -69.998c-44.667 -36 -105 -54 -181 -54s-132.667 23 -170 69s-56 110.667 -56 194c0 85.333 19.833 150.5 59.5 195.5s96.167 67.5 169.5 67.5c25.333 0 48.833 -3 70.5 -9s42 -15.833 61 -29.5s34 -33.334 45 -59.001s16.833 -56.5 17.5 -92.5
c0 -32.667 -2.33301 -63.334 -7 -92.001h-312c1.33301 -52.667 13.333 -92.5 36 -119.5s59.334 -40.5 110.001 -40.5c22.667 0 45.334 4 68.001 12s40.334 17.333 53.001 28zM270.997 429.002c-74.667 0 -115.333 -42.668 -122 -128.001h219c0 1.33301 0.166992 4 0.5 8
s0.5 7 0.5 9c0 36.667 -8.66699 64.334 -26 83.001s-41.333 28 -72 28z" />
    <glyph glyph-name="f" unicode="f" horiz-adv-x="320" 
d="M17 413l-0.00390625 86.999h74v28c0 62.667 11.833 108.167 35.5 136.5s61.5 42.5 113.5 42.5c46.667 0 86.334 -6.33301 119.001 -19l-21 -82c-26 9.33301 -52.667 14 -80 14c-12.667 0 -23.167 -1.83301 -31.5 -5.5s-14.666 -8.16699 -18.999 -13.5
s-7.66602 -14 -9.99902 -26s-3.66602 -22.667 -3.99902 -32s-0.5 -23.666 -0.5 -42.999h123v-87h-123v-413h-102v413h-74z" />
    <glyph glyph-name="g" unicode="g" horiz-adv-x="537" 
d="M469 480l0.000976562 -493.001c0 -132.667 -71 -199 -213 -199c-72.667 0 -128.334 9.66699 -167.001 29l24 83c43.333 -16.667 85.333 -25 126 -25c49.333 0 83.333 10 102 30s28 53 28 99v41h-4c-25.333 -36.667 -68.333 -55 -129 -55
c-66 0 -114.833 20.833 -146.5 62.5s-47.5 105.834 -47.5 192.501c0 86 20.833 151.667 62.5 197s102.5 68 182.5 68c67.333 0 128 -10 182 -30zM260.001 73.999c56 0 91.666 30 106.999 90v243c-23.333 10.667 -53.666 16 -90.999 16c-84.667 0 -127 -58.667 -127 -176
c0 -115.333 37 -173 111 -173z" />
    <glyph glyph-name="h" unicode="h" horiz-adv-x="546" 
d="M485 0h-102.001v284c0 49.333 -6.83301 84.833 -20.5 106.5s-38.5 32.5 -74.5 32.5c-27.333 0 -52.166 -9 -74.499 -27s-36.833 -41 -43.5 -69v-327h-102v700h102v-256h4c36 46 86.333 69 151 69c56 0 96.667 -15 122 -45s38 -84 38 -162v-306z" />
    <glyph glyph-name="i" unicode="i" horiz-adv-x="269" 
d="M66 647c0 17.333 6.16699 32 18.5 44s28.5 18 48.5 18s36.667 -6 50 -18s20 -26.667 20 -44s-6.5 -31.5 -19.5 -42.5s-29.833 -16.5 -50.5 -16.5c-20 0 -36.167 5.5 -48.5 16.5s-18.5 25.167 -18.5 42.5zM81 0v500h102v-500h-102z" />
    <glyph glyph-name="j" unicode="j" horiz-adv-x="265" 
d="M81 9l0.000976562 491h102v-524c0 -124 -47.333 -186 -142 -186c-16 0 -31 1.33301 -45 4v86h7c31.333 0 52.166 10 62.499 30s15.5 53 15.5 99zM62.001 647c0 17.333 6.16699 32 18.5 44s28.5 18 48.5 18s36.667 -6 50 -18s20 -26.667 20 -44s-6.5 -31.5 -19.5 -42.5
s-29.833 -16.5 -50.5 -16.5c-20 0 -36.167 5.5 -48.5 16.5s-18.5 25.167 -18.5 42.5z" />
    <glyph glyph-name="k" unicode="k" horiz-adv-x="484" 
d="M358 0l-146 217h-42v-217h-102v700h102v-420l37 14l136 206h115l-138 -196l-45 -35l52 -40l153 -229h-122z" />
    <glyph glyph-name="l" unicode="l" horiz-adv-x="293" 
d="M177 700l0.00195312 -557c0 -44 14 -66 42 -66c19.333 0 38.666 3.66699 57.999 11l11 -80c-26.667 -14 -61.334 -21 -104.001 -21c-72.667 0 -109 37.667 -109 113v600h102z" />
    <glyph glyph-name="m" unicode="m" horiz-adv-x="809" 
d="M459 0h-101.998v278c0 52.667 -5.5 90 -16.5 112s-32.833 33 -65.5 33c-26 0 -48 -7.83301 -66 -23.5s-31 -35.834 -39 -60.501v-339h-102v500h76l15 -63h4c40 50.667 91 76 153 76c64 0 106 -28 126 -84c33.333 56 83.666 84 150.999 84
c56.667 0 96.667 -15.167 120 -45.5s35 -86.166 35 -167.499v-300h-102v292c0 47.333 -5.5 81 -16.5 101s-33.167 30 -66.5 30c-54.667 0 -89.334 -30.667 -104.001 -92v-331z" />
    <glyph glyph-name="n" unicode="n" horiz-adv-x="546" 
d="M485 0l-102 -0.000976562v284c0 48 -7 83.167 -21 105.5s-38 33.5 -72 33.5c-29.333 0 -54.666 -8.16699 -75.999 -24.5s-36 -37.833 -44 -64.5v-334h-102v500h77l15 -63h4c37.333 50.667 90.666 76 159.999 76c55.333 0 96 -15.167 122 -45.5s39 -84.166 39 -161.499
v-306z" />
    <glyph glyph-name="o" unicode="o" horiz-adv-x="537" 
d="M42 250c0 84 19.667 148.833 59 194.5s95 68.5 167 68.5c74.667 0 131.167 -23.5 169.5 -70.5s57.5 -111.167 57.5 -192.5c0 -84 -19.833 -148.833 -59.5 -194.5s-95.5 -68.5 -167.5 -68.5c-74.667 0 -131 23.333 -169 70s-57 111 -57 193zM149 250
c0 -52 9.66602 -94.333 28.999 -127s49.333 -49 90 -49c80 0 120 58.667 120 176c0 53.333 -9.66699 96 -29 128s-49.666 48 -90.999 48c-79.333 0 -119 -58.667 -119 -176z" />
    <glyph glyph-name="p" unicode="p" horiz-adv-x="541" 
d="M68 -200v699.999h73l15 -60h4c32.667 48.667 81 73 145 73c65.333 0 114 -20.167 146 -60.5s48 -104.166 48 -191.499c0 -84.667 -20.5 -151.5 -61.5 -200.5s-97.167 -73.5 -168.5 -73.5c-37.333 0 -70.333 6.66699 -99 20v-207h-102zM280 425.999
c-57.333 0 -94 -31.667 -110 -95v-230c23.333 -18 53.333 -27 90 -27c42 0 74.5 16 97.5 48s34.5 79 34.5 141c0 108.667 -37.333 163 -112 163z" />
    <glyph glyph-name="q" unicode="q" horiz-adv-x="537" 
d="M469 480v-680h-102v247h-4c-26 -40 -68.333 -60 -127 -60c-129.333 0 -194 86 -194 258c0 86 21.5 151.667 64.5 197s105.167 68 186.5 68c70 0 128.667 -10 176 -30zM260 74c56 0 91.667 30 107 90v243c-22 10.667 -52.333 16 -91 16c-84.667 0 -127 -58.667 -127 -176
c0 -115.333 37 -173 111 -173z" />
    <glyph glyph-name="r" unicode="r" horiz-adv-x="345" 
d="M339 500l-17 -96c-19.333 6.66699 -38 10 -56 10c-25.333 0 -46.333 -7 -63 -21s-27.667 -32.333 -33 -55v-338h-102v500h76l15 -63h4c24.667 48.667 62.667 73 114 73c19.333 0 40 -3.33301 62 -10z" />
    <glyph glyph-name="s" unicode="s" horiz-adv-x="422" 
d="M282 137c0 18.667 -8.00195 34.001 -24.002 46.001s-35.667 21.833 -59 29.5s-46.5 16.667 -69.5 27s-42.5 26.166 -58.5 47.499s-24 48.333 -24 81c0 47.333 14 83.333 42 108s68 37 120 37c62.667 0 117.334 -11.667 164.001 -35l-24 -78
c-42.667 19.333 -85 29 -127 29c-48.667 0 -73 -19.333 -73 -58c0 -16 8 -29.5 24 -40.5s35.5 -20.5 58.5 -28.5s46.167 -17.167 69.5 -27.5s43 -26.5 59 -48.5s24 -49.333 24 -82c0 -48 -15.667 -86.167 -47 -114.5s-76.333 -42.5 -135 -42.5
c-66.667 0 -123 13.667 -169 41l29 80c44.667 -24.667 90.334 -37 137.001 -37c55.333 0 83 22 83 66z" />
    <glyph glyph-name="t" unicode="t" horiz-adv-x="344" 
d="M8 413v87.001h74v97l102 29v-126h130v-87h-130v-240c0 -34.667 4 -59.334 12 -74.001s22 -22 42 -22c22 0 47.667 6 77 18l20 -78c-42.667 -20 -86.667 -30 -132 -30c-42.667 0 -73.5 11.833 -92.5 35.5s-28.5 62.167 -28.5 115.5v275h-74z" />
    <glyph glyph-name="u" unicode="u" horiz-adv-x="538" 
d="M61 500l102 0.000976562v-284c0 -49.333 6.16699 -84.833 18.5 -106.5s34.833 -32.5 67.5 -32.5c28.667 0 53.167 8.66699 73.5 26s35.5 40 45.5 68v329h102v-354c0 -58 4.33301 -106.667 13 -146h-74l-22 77h-4c-35.333 -60 -89 -90 -161 -90
c-55.333 0 -96 15.167 -122 45.5s-39 84.166 -39 161.499v306z" />
    <glyph glyph-name="v" unicode="v" horiz-adv-x="480" 
d="M117 500l108 -279l23 -87h3l20 89l100 277h110l-211 -508h-54l-217 508h118z" />
    <glyph glyph-name="w" unicode="w" horiz-adv-x="729" 
d="M334 500h75l104 -276l22 -90h3l17 92l78 274h95l-162 -508h-64l-118 307l-16 74h-4l-17 -75l-112 -306h-66l-168 508h111l87 -273l15 -94h3l21 95z" />
    <glyph glyph-name="x" unicode="x" horiz-adv-x="519" 
d="M19 0l172 256l-160 244h124l81 -124l28 -63l29 63l85 124h112l-161 -240l171 -260h-119l-94 138l-30 66l-31 -66l-94 -138h-113z" />
    <glyph glyph-name="y" unicode="y" horiz-adv-x="471" 
d="M123 500l108 -305l23 -88h6l18 89l88 304h104l-150 -450c-11.333 -34.667 -20.5 -61.667 -27.5 -81s-16.333 -41.833 -28 -67.5s-22.834 -45 -33.501 -58s-23.667 -24.333 -39 -34s-31.666 -14.5 -48.999 -14.5c-29.333 0 -52.333 4.33301 -69 13l18 87
c9.33301 -4 18.333 -6 27 -6c42 0 71.333 37 88 111l-204 500h120z" />
    <glyph glyph-name="z" unicode="z" horiz-adv-x="452" 
d="M37 0v87l216 283l46 43h-262v87h372v-87l-216 -286l-45 -40h261v-87h-372z" />
    <glyph glyph-name="braceleft" unicode="{" horiz-adv-x="357" 
d="M131 -119v224c0 32.667 -6.66699 55.667 -20 69s-33.333 20 -60 20v82c53.333 0 80 28.333 80 85v228c0 34 8.5 61.167 25.5 81.5s41.833 30.5 74.5 30.5h101v-87h-50c-18 0 -31.167 -4.66699 -39.5 -14s-12.5 -24.666 -12.5 -45.999v-219
c0 -27.333 -6.66699 -49 -20 -65s-30 -25.667 -50 -29v-8c19.333 -2.66699 35.833 -13 49.5 -31s20.5 -40.333 20.5 -67v-218c0 -20.667 4.16699 -35.834 12.5 -45.501s21.833 -14.5 40.5 -14.5h49v-87h-101c-32 0 -56.667 9.5 -74 28.5s-26 46.5 -26 82.5z" />
    <glyph glyph-name="bar" unicode="|" horiz-adv-x="233" 
d="M74 -130v830h85v-830h-85z" />
    <glyph glyph-name="braceright" unicode="}" horiz-adv-x="357" 
d="M247 590l-0.000976562 -224c0 -32.667 6.66699 -55.667 20 -69s33.333 -20 60 -20v-82c-53.333 0 -80 -28.333 -80 -85v-228c0 -34 -8.66699 -61.167 -26 -81.5s-42.666 -30.5 -75.999 -30.5h-99v87h50c18 0 31.167 4.66699 39.5 14s12.5 24.666 12.5 45.999v219
c0 27.333 6.66699 49 20 65s30 25.667 50 29v8c-19.333 2.66699 -35.833 13 -49.5 31s-20.5 40.333 -20.5 67v218c0 20.667 -4.16699 35.834 -12.5 45.501s-21.833 14.5 -40.5 14.5h-49v87h101c32 0 56.667 -9.5 74 -28.5s26 -46.5 26 -82.5z" />
    <glyph glyph-name="asciitilde" unicode="~" horiz-adv-x="515" 
d="M68 291l-37.999 77c52 42 101.667 63 149 63c25.333 0 58.666 -9 99.999 -27s71.333 -27 90 -27c24 0 49.333 11 76 33l40 -80c-44 -32 -85.667 -48 -125 -48c-24 0 -55.167 9.33301 -93.5 28s-69.5 28 -93.5 28c-31.333 0 -66.333 -15.667 -105 -47z" />
    <glyph glyph-name="uni00A0" unicode="&#xa0;" horiz-adv-x="261" 
 />
    <glyph glyph-name="exclamdown" unicode="&#xa1;" horiz-adv-x="299" 
d="M183 139v-339h-107v339l21 170h65zM61 445c0 20 6.16895 36.001 18.502 48.001s28.5 18 48.5 18c21.333 0 38.166 -5.83301 50.499 -17.5s18.5 -27.834 18.5 -48.501c0 -20 -6.33301 -36 -19 -48s-29.334 -18 -50.001 -18c-20 0 -36.167 6 -48.5 18s-18.5 28 -18.5 48z
" />
    <glyph glyph-name="cent" unicode="&#xa2;" 
d="M446 110l28 -77.999c-27.333 -20 -64 -33.667 -110 -41v-91h-93v88c-123.333 14 -185 101.333 -185 262c0 75.333 15.833 135.166 47.5 179.499s77.5 71.166 137.5 80.499v90h93v-90c40 -4 73.667 -13 101 -27l-26 -85c-22 10 -49.333 17.333 -82 22v-342
c34 4.66699 63.667 15.334 89 32.001zM188 250.001c0 -93.333 33 -149.333 99 -168v336c-66 -14 -99 -70 -99 -168z" />
    <glyph glyph-name="sterling" unicode="&#xa3;" 
d="M46 302l-0.000976562 85h67c-20 40 -30 83 -30 129c0 63.333 19.333 112 58 146s91 51 157 51c74 0 136.667 -12 188 -36l-33 -91c-41.333 22 -90.666 33 -147.999 33c-36 0 -64.167 -9.5 -84.5 -28.5s-30.5 -45.5 -30.5 -79.5c0 -34.667 12.333 -76 37 -124h152v-85
h-114c7.33301 -26.667 11 -51 11 -73c0 -48 -13.333 -86.333 -40 -115l-41 -34v-4l64 14h244v-90h-457v90c40 0.666992 70.5 13.5 91.5 38.5s31.5 54.833 31.5 89.5c0 27.333 -5.33301 55.333 -16 84h-107z" />
    <glyph glyph-name="currency" unicode="&#xa4;" 
d="M14 545l61 62l78 -77l20 -35c27.333 20.667 62 31 104 31c41.333 0 76 -10.333 104 -31l21 35l78 77l61 -62l-77 -78l-36 -20c20 -27.333 30 -61.333 30 -102c0 -42 -10 -76 -30 -102l36 -19l77 -78l-61 -62l-78 77l-20 35c-28 -20.667 -63 -31 -105 -31
c-41.333 0 -76 10 -104 30l-20 -34l-78 -77l-61 62l77 78l35 20c-19.333 28.667 -29 62.334 -29 101.001c0 37.333 10 71.666 30 102.999l-36 19zM184 345c0 -28 8.66699 -51.167 26 -69.5s39.666 -27.5 66.999 -27.5s49.833 9.16699 67.5 27.5s26.5 41.5 26.5 69.5
s-8.83301 51.333 -26.5 70s-40.167 28 -67.5 28s-49.666 -9.33301 -66.999 -28s-26 -42 -26 -70z" />
    <glyph glyph-name="yen" unicode="&#xa5;" 
d="M99 263v69h92l-197 368h127l148 -287l16 -67h2l17 69l142 285h115l-197 -368h93v-69h-125v-60h125v-69h-125v-134h-107v134h-126v69h126v60h-126z" />
    <glyph glyph-name="brokenbar" unicode="&#xa6;" horiz-adv-x="233" 
d="M74 0v279h85v-279h-85zM159 700v-279h-85v279h85z" />
    <glyph glyph-name="section" unicode="&#xa7;" horiz-adv-x="512" 
d="M54 353c0 42.667 18.668 80.334 56.001 113.001l41 14c-40 24 -60 59.333 -60 106c0 38 14.5 68.667 43.5 92s69.5 35 121.5 35c68 0 124.667 -10.667 170 -32l-26 -84c-40 19.333 -83 29 -129 29c-52 0 -78 -17 -78 -51c0 -16 9.16699 -29.167 27.5 -39.5
s40.5 -19.166 66.5 -26.499s51.833 -16.166 77.5 -26.499s47.667 -26.833 66 -49.5s27.5 -51.334 27.5 -86.001c0 -42 -18.333 -79.333 -55 -112l-45 -14c42 -24.667 63 -60.334 63 -107.001c0 -40.667 -15.333 -72 -46 -94s-71 -33 -121 -33
c-66.667 0 -123.334 12.667 -170.001 38l26 80c42.667 -20.667 85.667 -31 129 -31c53.333 0 80 17.333 80 52c0 16.667 -9.16699 30.167 -27.5 40.5s-40.5 19.166 -66.5 26.499s-51.833 16 -77.5 26s-47.667 26.333 -66 49s-27.5 51 -27.5 85zM356.001 345
c0 8 -1.16797 15.3311 -3.50098 21.998s-6.16602 12.834 -11.499 18.501s-10.5 10.334 -15.5 14.001s-12.5 7.66699 -22.5 12l-25 10.5c-6.66699 2.66699 -16.5 6.16699 -29.5 10.5s-23.167 7.83301 -30.5 10.5c-41.333 -20.667 -62 -50 -62 -88
c0 -11.333 2.66699 -21.5 8 -30.5s11 -16.333 17 -22s16.5 -11.667 31.5 -18s26.667 -10.833 35 -13.5s22.833 -7 43.5 -13c18 9.33301 33.333 21.833 46 37.5s19 32.167 19 49.5z" />
    <glyph glyph-name="dieresis" unicode="&#xa8;" horiz-adv-x="441" 
d="M60 652c0 17.333 5.5 31.666 16.5 42.999s25.167 17 42.5 17s31.333 -5.66699 42 -17s16 -25.666 16 -42.999c0 -16.667 -5.33301 -30.334 -16 -41.001s-24.667 -16 -42 -16s-31.5 5.33301 -42.5 16s-16.5 24.334 -16.5 41.001zM264 652c0 17.333 5.33301 31.667 16 43
s24.667 17 42 17c18 0 32.333 -5.5 43 -16.5s16 -25.5 16 -43.5c0 -16.667 -5.33301 -30.334 -16 -41.001s-25 -16 -43 -16c-17.333 0 -31.333 5.33301 -42 16s-16 24.334 -16 41.001z" />
    <glyph glyph-name="copyright" unicode="&#xa9;" horiz-adv-x="818" 
d="M53 290c0 108 34 194.333 102 259s152.667 97 254 97s186 -32.333 254 -97s102 -151 102 -259s-34 -194.333 -102 -259s-152.667 -97 -254 -97c-108.667 0 -195.167 31.833 -259.5 95.5s-96.5 150.5 -96.5 260.5zM135 290c0 -86 25.667 -153.833 77 -203.5
s117 -74.5 197 -74.5s145.667 24.833 197 74.5s77 117.5 77 203.5s-25.667 153.833 -77 203.5s-117 74.5 -197 74.5s-145.667 -24.833 -197 -74.5s-77 -117.5 -77 -203.5zM504 201l25.001 -72c-32 -19.333 -72.667 -29 -122 -29c-52.667 0 -93.5 17 -122.5 51
s-43.5 80.333 -43.5 139c0 60 15 106.667 45 140s70.333 50 121 50c36 0 74.333 -9.66699 115 -29l-29 -73c-24.667 12 -47.667 18 -69 18c-54 0 -81 -35.333 -81 -106s29.333 -106 88 -106c27.333 0 51.666 5.66699 72.999 17z" />
    <glyph glyph-name="ordfeminine" unicode="&#xaa;" horiz-adv-x="411" 
d="M88 619l-18 57c42.667 21.333 98.334 32 167.001 32c44 0 74.833 -8.5 92.5 -25.5s26.5 -43.833 26.5 -80.5c0 -16.667 -0.5 -40 -1.5 -70s-1.5 -51.667 -1.5 -65c0 -36 2.66699 -65 8 -87h-76l-13 46h-4c-26 -33.333 -60.667 -50 -104 -50
c-34.667 0 -62.334 8.83301 -83.001 26.5s-31 41.167 -31 70.5c0 74 63.333 111 190 111c2.66699 0 7 -0.166992 13 -0.5s10.667 -0.5 14 -0.5c0.666992 4 1 9.66699 1 17c0 16 -4 27.333 -12 34s-22.667 10 -44 10c-48 0 -89.333 -8.33301 -124 -25zM187 442
c38 0 64.667 15.333 80 46v39c-17.333 1.33301 -30 2 -38 2c-59.333 0 -89 -16 -89 -48c0 -12 4.16699 -21.5 12.5 -28.5s19.833 -10.5 34.5 -10.5z" />
    <glyph glyph-name="guillemotleft" unicode="&#xab;" horiz-adv-x="482" 
d="M384 44l-162 216l156 223l61 -49l-90 -134l-47 -40l47 -35l96 -133zM200 38l-166 221l160 230l65 -52l-93 -136l-48 -41l48 -36l99 -134z" />
    <glyph glyph-name="logicalnot" unicode="&#xac;" horiz-adv-x="515" 
d="M42 311v90h433v-207h-93v117h-340z" />
    <glyph glyph-name="uni00AD" unicode="&#xad;" horiz-adv-x="360" 
d="M54 242v92h252v-92h-252z" />
    <glyph glyph-name="registered" unicode="&#xae;" horiz-adv-x="695" 
d="M75 451c0 84.667 26.1689 151.167 78.502 199.5s117.166 72.5 194.499 72.5c78.667 0 143.667 -24.167 195 -72.5s77 -114.833 77 -199.5s-26 -151.167 -78 -199.5s-116.667 -72.5 -194 -72.5c-78.667 0 -143.834 24.167 -195.501 72.5s-77.5 114.833 -77.5 199.5z
M152.002 451c0 -64 18.667 -113.333 56 -148s84 -52 140 -52c58.667 0 106 17 142 51s54 83.667 54 149c0 64 -18.5 113.333 -55.5 148s-83.833 52 -140.5 52c-59.333 0 -106.833 -17.5 -142.5 -52.5s-53.5 -84.167 -53.5 -147.5zM245.002 322v259.002
c23.333 6.66699 56.666 10 99.999 10c30.667 0 55.334 -6.33301 74.001 -19s28 -32.334 28 -59.001c0 -20.667 -6.66699 -36.834 -20 -48.501s-30.333 -18.167 -51 -19.5l28 -14l70 -109h-61l-68 104l-48 15v-119h-52zM334.002 546.002c-19.333 0 -31.667 -1.33301 -37 -4
v-71h34c40.667 0 61 13.333 61 40c0 23.333 -19.333 35 -58 35z" />
    <glyph glyph-name="macron" unicode="&#xaf;" horiz-adv-x="428" 
d="M60 574v76h308v-76h-308z" />
    <glyph glyph-name="macron" unicode="&#x2c9;" horiz-adv-x="428" 
d="M60 574v76h308v-76h-308z" />
    <glyph glyph-name="degree" unicode="&#xb0;" horiz-adv-x="430" 
d="M74 561c0 44 14.667 80.333 44 109s65 43 107 43c43.333 0 79.666 -13.833 108.999 -41.5s44 -64.5 44 -110.5s-14.667 -82.833 -44 -110.5s-65.666 -41.5 -108.999 -41.5c-42.667 0 -78.5 13.833 -107.5 41.5s-43.5 64.5 -43.5 110.5zM153 561c0 -22.667 7 -41 21 -55
s31 -21 51 -21s37.333 7 52 21s22 32.333 22 55s-7.33301 41.167 -22 55.5s-32 21.5 -52 21.5s-37 -7.16699 -51 -21.5s-21 -32.833 -21 -55.5z" />
    <glyph glyph-name="plusminus" unicode="&#xb1;" horiz-adv-x="515" 
d="M41 415v90h170v172h93v-172h170v-90h-170v-115h-93v115h-170zM41 161v90h433v-90h-433z" />
    <glyph glyph-name="twosuperior" unicode="&#xb2;" horiz-adv-x="411" 
d="M337 685c0 -36 -9.99902 -69.667 -29.999 -101s-49.333 -66.666 -88 -105.999l-47 -29v-2l58 13h125v-80h-301v50c47.333 36 91.333 76.167 132 120.5s61 84.166 61 119.499c0 37.333 -21.333 56 -64 56c-28.667 0 -60.334 -9.66699 -95.001 -29l-27 71
c38.667 26 85 39 139 39c44 0 77.833 -10.667 101.5 -32s35.5 -51.333 35.5 -90z" />
    <glyph glyph-name="threesuperior" unicode="&#xb3;" horiz-adv-x="411" 
d="M173 448c61.333 0 92.001 21.667 92.001 65c0 41.333 -31.333 62 -94 62h-49v29l86 100l38 27l-53 -6h-123v75h268v-46l-96 -109l-29 -18v-3l26 3c36 -1.33301 64.333 -12.333 85 -33s31 -49 31 -85c0 -42.667 -15.833 -76 -47.5 -100s-72.834 -36 -123.501 -36
c-41.333 0 -80.333 7 -117 21l18 73c28.667 -12.667 58 -19 88 -19z" />
    <glyph glyph-name="acute" unicode="&#xb4;" horiz-adv-x="285" 
d="M60 569l56 151h109v-25l-106 -126h-59z" />
    <glyph glyph-name="mu" unicode="&#xb5;" horiz-adv-x="560" 
d="M61 500l101.998 -0.000976562v-279c0 -49.333 7.83301 -86 23.5 -110s41.834 -36 78.501 -36c33.333 0 61.333 9.33301 84 28s38.667 44.334 48 77.001v320h102v-337c0 -68.667 5 -123 15 -163h-73l-30 74h-4c-13.333 -25.333 -33 -46 -59 -62s-56.667 -24 -92 -24
c-45.333 0 -81.666 16.667 -108.999 50h-5l21 -105v-133h-102v700z" />
    <glyph glyph-name="mu" unicode="&#x3bc;" horiz-adv-x="560" 
d="M61 500l101.998 -0.000976562v-279c0 -49.333 7.83301 -86 23.5 -110s41.834 -36 78.501 -36c33.333 0 61.333 9.33301 84 28s38.667 44.334 48 77.001v320h102v-337c0 -68.667 5 -123 15 -163h-73l-30 74h-4c-13.333 -25.333 -33 -46 -59 -62s-56.667 -24 -92 -24
c-45.333 0 -81.666 16.667 -108.999 50h-5l21 -105v-133h-102v700z" />
    <glyph glyph-name="paragraph" unicode="&#xb6;" horiz-adv-x="510" 
d="M350 -130v830h86v-830h-86zM181 -130l-0.000976562 433c-42 0 -77.333 20 -106 60s-43 86.333 -43 139c0 54 16.333 100.5 49 139.5s75.334 58.5 128.001 58.5h58v-830h-86z" />
    <glyph glyph-name="periodcentered" unicode="&#xb7;" horiz-adv-x="261" 
d="M62 305c0 20 6.16895 36.001 18.502 48.001s28.5 18 48.5 18c21.333 0 38.166 -5.83301 50.499 -17.5s18.5 -27.834 18.5 -48.501c0 -20 -6.33301 -36 -19 -48s-29.334 -18 -50.001 -18c-20 0 -36.167 6 -48.5 18s-18.5 28 -18.5 48z" />
    <glyph glyph-name="cedilla" unicode="&#xb8;" horiz-adv-x="307" 
d="M188 0l-24 -43.001c55.333 -8 83 -33 83 -75c0 -28 -11.833 -50.167 -35.5 -66.5s-55.167 -24.5 -94.5 -24.5c-21.333 0 -40.333 1.66699 -57 5l9 43c4.66699 -0.666992 13 -1 25 -1c39.333 0 59 11.667 59 35c0 18.667 -28.667 30.334 -86 35.001l52 92h69z" />
    <glyph glyph-name="onesuperior" unicode="&#xb9;" horiz-adv-x="411" 
d="M77 380v78h102v214l8 41l-28 -30l-70 -43l-37 61l156 106h61v-349h92v-78h-284z" />
    <glyph glyph-name="ordmasculine" unicode="&#xba;" horiz-adv-x="416" 
d="M44 542c0 57.333 14.833 100 44.5 128s69.5 42 119.5 42c50.667 0 90.667 -13.5 120 -40.5s44 -70.167 44 -129.5s-14.667 -102.5 -44 -129.5s-69.333 -40.5 -120 -40.5s-90.667 13.5 -120 40.5s-44 70.167 -44 129.5zM137 542c0 -67.333 23.667 -101 71 -101
c24 0 41.833 7.5 53.5 22.5s17.5 41.167 17.5 78.5s-5.83301 63.5 -17.5 78.5s-29.5 22.5 -53.5 22.5s-41.833 -7.5 -53.5 -22.5s-17.5 -41.167 -17.5 -78.5z" />
    <glyph glyph-name="guillemotright" unicode="&#xbb;" horiz-adv-x="482" 
d="M97 483l163 -216l-157 -223l-61 49l90 134l47 40l-47 35l-95 133zM281 489l167 -221l-160 -230l-65 52l92 136l48 41l-48 36l-98 134z" />
    <glyph glyph-name="onequarter" unicode="&#xbc;" horiz-adv-x="856" 
d="M804 160v-72h-80v-88h-82v88h-206v50l223 294h65v-272h80zM642 160v110l6 51h-3l-22 -48l-65 -87l-35 -32l52 6h67zM158 31l463 683l66 -42l-462 -685zM163 280v292l8 41l-28 -30l-70 -43l-37 61l156 106h61v-427h-90z" />
    <glyph glyph-name="onehalf" unicode="&#xbd;" horiz-adv-x="874" 
d="M804 305c0 -36 -9.99902 -69.667 -29.999 -101s-49.333 -66.666 -88 -105.999l-47 -29v-2l58 13h125v-80h-301v50c47.333 36 91.333 76.167 132 120.5s61 84.166 61 119.499c0 37.333 -21.333 56 -64 56c-28.667 0 -60.334 -9.66699 -95.001 -29l-27 71
c38.667 26 85 39 139 39c44 0 77.833 -10.667 101.5 -32s35.5 -51.333 35.5 -90zM158.001 31l463 683l66 -42l-462 -685zM163.001 280v292l8 41l-28 -30l-70 -43l-37 61l156 106h61v-427h-90z" />
    <glyph glyph-name="threequarters" unicode="&#xbe;" horiz-adv-x="889" 
d="M159 348c61.333 0 92.001 21.667 92.001 65c0 41.333 -31.333 62 -94 62h-49v29l86 100l38 27l-53 -6h-123v75h268v-46l-96 -109l-29 -18v-3l26 3c36 -1.33301 64.333 -12.333 85 -33s31 -49 31 -85c0 -42.667 -15.833 -76 -47.5 -100s-72.834 -36 -123.501 -36
c-41.333 0 -80.333 7 -117 21l18 73c28.667 -12.667 58 -19 88 -19zM836.001 160v-72h-80v-88h-82v88h-206v50l223 294h65v-272h80zM674.001 160v110l6 51h-3l-22 -48l-65 -87l-35 -32l52 6h67zM190.001 31l463 683l66 -42l-462 -685z" />
    <glyph glyph-name="questiondown" unicode="&#xbf;" horiz-adv-x="444" 
d="M214 310l85.999 0.000976562c0.666992 -6 1 -14.667 1 -26c0 -32 -5.66699 -61 -17 -87s-24.833 -47.667 -40.5 -65s-31.5 -33.833 -47.5 -49.5s-29.667 -33.167 -41 -52.5s-17 -40 -17 -62c0 -62 34 -93 102 -93c46 0 91.333 14.667 136 44l37 -77
c-56 -36 -120.667 -54 -194 -54c-59.333 0 -105.5 15.167 -138.5 45.5s-49.5 70.166 -49.5 119.499c0 35.333 6.33301 66.5 19 93.5s27.834 49.5 45.501 67.5l53.5 52.5c18 17 33.333 37.5 46 61.5s19 51.333 19 82zM184.999 445.001c0 20 6.16895 36.001 18.502 48.001
s28.5 18 48.5 18c21.333 0 38.166 -5.83301 50.499 -17.5s18.5 -27.834 18.5 -48.501c0 -20 -6.33301 -36 -19 -48s-29.334 -18 -50.001 -18c-20 0 -36.167 6 -48.5 18s-18.5 28 -18.5 48z" />
    <glyph glyph-name="Agrave" unicode="&#xc0;" horiz-adv-x="594" 
d="M477 0l-65 177h-239l-63 -177h-105l259 708h66l260 -708h-113zM269 452l-66 -188h183l-67 189l-24 108h-2zM222 870l112 -118h-88l-158 93v25h134z" />
    <glyph glyph-name="Aacute" unicode="&#xc1;" horiz-adv-x="594" 
d="M477 0l-65 177h-239l-63 -177h-105l259 708h66l260 -708h-113zM269 452l-66 -188h183l-67 189l-24 108h-2zM264 752l112 118h134v-25l-162 -93h-84z" />
    <glyph glyph-name="Acircumflex" unicode="&#xc2;" horiz-adv-x="594" 
d="M477 0l-65 177h-239l-63 -177h-105l259 708h66l260 -708h-113zM269 452l-66 -188h183l-67 189l-24 108h-2zM129 773l133 97h76l127 -98v-29h-89l-59 46l-18 34l-20 -33l-63 -47h-87v30z" />
    <glyph glyph-name="Atilde" unicode="&#xc3;" horiz-adv-x="594" 
d="M477 0l-65 177h-239l-63 -177h-105l259 708h66l260 -708h-113zM269 452l-66 -188h183l-67 189l-24 108h-2zM149 741l-23.999 51c36.667 38 76.334 57 119.001 57c16.667 0 41 -5.5 73 -16.5s55 -16.5 69 -16.5c21.333 0 39.666 7.33301 54.999 22l25 -54
c-32.667 -30 -67.667 -45 -105 -45c-18.667 0 -44.167 5.66699 -76.5 17s-54.833 17 -67.5 17c-24.667 0 -47.334 -10.667 -68.001 -32z" />
    <glyph glyph-name="Adieresis" unicode="&#xc4;" horiz-adv-x="594" 
d="M477 0l-65 177h-239l-63 -177h-105l259 708h66l260 -708h-113zM269 452l-66 -188h183l-67 189l-24 108h-2zM135 796c0 16 5.66699 28.667 17 38s27 14 47 14c19.333 0 34.5 -4.66699 45.5 -14s16.5 -22 16.5 -38s-5.33301 -28.5 -16 -37.5s-26 -13.5 -46 -13.5
s-35.667 4.5 -47 13.5s-17 21.5 -17 37.5zM337 796c0 16 5.5 28.668 16.5 38.001s26.167 14 45.5 14c20.667 0 36.5 -4.66699 47.5 -14s16.5 -22 16.5 -38s-5.5 -28.5 -16.5 -37.5s-26.833 -13.5 -47.5 -13.5c-19.333 0 -34.5 4.66699 -45.5 14s-16.5 21.666 -16.5 36.999z
" />
    <glyph glyph-name="Aring" unicode="&#xc5;" horiz-adv-x="594" 
d="M183 770c0 58 38.333 86.999 115 86.999c77.333 0 116 -29 116 -87c0 -45.333 -25.667 -72.666 -77 -81.999l253 -688h-113l-65 177h-239l-63 -177h-105l252 688c-49.333 10 -74 37.333 -74 82zM269 451.999l-66 -188h183l-67 189l-24 108h-2zM254 769.999
c0 -24 14.667 -36 44 -36c30 0 45 12 45 36c0 25.333 -15 38 -45 38c-29.333 0 -44 -12.667 -44 -38z" />
    <glyph glyph-name="AE" unicode="&#xc6;" horiz-adv-x="853" 
d="M397 570h-5l-34 -103l-111 -195h150v298zM397 0v185h-201l-106 -185h-115l419 700h399v-94h-289v-202h264v-94h-264v-216h294v-94h-401z" />
    <glyph glyph-name="Ccedilla" unicode="&#xc7;" horiz-adv-x="566" 
d="M510 115l23.001 -85.9971c-32 -24.667 -81 -38.667 -147 -42l-17 -30c55.333 -8 83 -33 83 -75c0 -28 -11.833 -50.167 -35.5 -66.5s-55.167 -24.5 -94.5 -24.5c-21.333 0 -40.333 1.66699 -57 5l9 43c4.66699 -0.666992 13 -1 25 -1c39.333 0 59 11.667 59 35
c0 18.667 -28.667 30.334 -86 35.001l46 80c-80.667 8 -145.834 42 -195.501 102s-74.5 146.667 -74.5 260c0 64 9 120.167 27 168.5s42.167 86.166 72.5 113.499s63.166 47.666 98.499 60.999s72.333 20 111 20c68 0 123.333 -8.33301 166 -25l-23 -93
c-30 14.667 -74.667 22 -134 22c-60 0 -109.167 -21.833 -147.5 -65.5s-57.5 -110.834 -57.5 -201.501c0 -84.667 19.333 -150.334 58 -197.001s91.334 -70 158.001 -70c54 0 98.333 10.667 133 32z" />
    <glyph glyph-name="Egrave" unicode="&#xc8;" horiz-adv-x="530" 
d="M74 0v700h396v-94h-289v-202h264v-94h-264v-216h294v-94h-401zM226 870l112 -118h-88l-158 93v25h134z" />
    <glyph glyph-name="Eacute" unicode="&#xc9;" horiz-adv-x="530" 
d="M74 0v700h396v-94h-289v-202h264v-94h-264v-216h294v-94h-401zM202 752l112 118h134v-25l-162 -93h-84z" />
    <glyph glyph-name="Ecircumflex" unicode="&#xca;" horiz-adv-x="530" 
d="M74 0v700h396v-94h-289v-202h264v-94h-264v-216h294v-94h-401zM99 773l133 97h76l127 -98v-29h-89l-59 46l-18 34l-20 -33l-63 -47h-87v30z" />
    <glyph glyph-name="Edieresis" unicode="&#xcb;" horiz-adv-x="530" 
d="M74 0v700h396v-94h-289v-202h264v-94h-264v-216h294v-94h-401zM104 796c0 16 5.66699 28.667 17 38s27 14 47 14c19.333 0 34.5 -4.66699 45.5 -14s16.5 -22 16.5 -38s-5.33301 -28.5 -16 -37.5s-26 -13.5 -46 -13.5s-35.667 4.5 -47 13.5s-17 21.5 -17 37.5zM306 796
c0 16 5.5 28.668 16.5 38.001s26.167 14 45.5 14c20.667 0 36.5 -4.66699 47.5 -14s16.5 -22 16.5 -38s-5.5 -28.5 -16.5 -37.5s-26.833 -13.5 -47.5 -13.5c-19.333 0 -34.5 4.66699 -45.5 14s-16.5 21.666 -16.5 36.999z" />
    <glyph glyph-name="Igrave" unicode="&#xcc;" horiz-adv-x="287" 
d="M90 870l112 -118h-88l-158 93v25h134zM90 0v700h107v-700h-107z" />
    <glyph glyph-name="Iacute" unicode="&#xcd;" horiz-adv-x="287" 
d="M90 752l112 118h134v-25l-162 -93h-84zM90 0v700h107v-700h-107z" />
    <glyph glyph-name="Icircumflex" unicode="&#xce;" horiz-adv-x="287" 
d="M-25 773l133 97h76l127 -98v-29h-89l-59 46l-18 34l-20 -33l-63 -47h-87v30zM90 0v700h107v-700h-107z" />
    <glyph glyph-name="Idieresis" unicode="&#xcf;" horiz-adv-x="287" 
d="M-19 796c0 16 5.66699 28.667 17 38s27 14 47 14c19.333 0 34.5 -4.66699 45.5 -14s16.5 -22 16.5 -38s-5.33301 -28.5 -16 -37.5s-26 -13.5 -46 -13.5s-35.667 4.5 -47 13.5s-17 21.5 -17 37.5zM183 796c0 16 5.5 28.668 16.5 38.001s26.167 14 45.5 14
c20.667 0 36.5 -4.66699 47.5 -14s16.5 -22 16.5 -38s-5.5 -28.5 -16.5 -37.5s-26.833 -13.5 -47.5 -13.5c-19.333 0 -34.5 4.66699 -45.5 14s-16.5 21.666 -16.5 36.999zM90 0.000976562v700h107v-700h-107z" />
    <glyph glyph-name="Eth" unicode="&#xd0;" horiz-adv-x="663" 
d="M-3 327l-0.000976562 68.999h89v304c44.667 6 109.334 9 194.001 9c113.333 0 197.5 -31.667 252.5 -95s82.5 -149.666 82.5 -258.999c0 -49.333 -6.33301 -95 -19 -137s-32 -80.5 -58 -115.5s-62 -62.5 -108 -82.5s-99.667 -30 -161 -30c-75.333 0 -136.333 3 -183 9
v328h-89zM285.999 612.999c-46.667 0 -77.666 -1.33496 -92.999 -4.00195v-213h144v-69h-144v-237c17.333 -2.66699 45.333 -4 84 -4c42 0 78.167 7.33301 108.5 22s53.666 35 69.999 61s28.166 54.333 35.499 85s11 64.334 11 101.001c0 32.667 -3.5 63.334 -10.5 92.001
s-18.167 56 -33.5 82s-37.666 46.5 -66.999 61.5s-64.333 22.5 -105 22.5z" />
    <glyph glyph-name="Ntilde" unicode="&#xd1;" horiz-adv-x="666" 
d="M523 -8l-302 425l-55 104h-4l14 -104v-417h-102v708h69l304 -425l52 -101h5l-14 101v417h102v-708h-69zM185 741l-23.999 51c36.667 38 76.334 57 119.001 57c16.667 0 41 -5.5 73 -16.5s55 -16.5 69 -16.5c21.333 0 39.666 7.33301 54.999 22l25 -54
c-32.667 -30 -67.667 -45 -105 -45c-18.667 0 -44.167 5.66699 -76.5 17s-54.833 17 -67.5 17c-24.667 0 -47.334 -10.667 -68.001 -32z" />
    <glyph glyph-name="Ograve" unicode="&#xd2;" horiz-adv-x="678" 
d="M48 350c0 116 25.167 205.5 75.5 268.5s121.833 94.5 214.5 94.5c96.667 0 169.5 -32.333 218.5 -97s73.5 -153.334 73.5 -266.001c0 -116 -25.5 -205.5 -76.5 -268.5s-122.833 -94.5 -215.5 -94.5c-96 0 -168.333 32.333 -217 97s-73 153.334 -73 266.001zM161 350
c0 -78.667 14.832 -143.167 44.499 -193.5s73.834 -75.5 132.501 -75.5c57.333 0 101.5 22.167 132.5 66.5s46.5 111.833 46.5 202.5c0 78.667 -14.833 143.167 -44.5 193.5s-74.5 75.5 -134.5 75.5c-56 0 -99.5 -22.5 -130.5 -67.5s-46.5 -112.167 -46.5 -201.5z
M298.999 870l112 -118h-88l-158 93v25h134z" />
    <glyph glyph-name="Oacute" unicode="&#xd3;" horiz-adv-x="678" 
d="M48 350c0 116 25.167 205.5 75.5 268.5s121.833 94.5 214.5 94.5c96.667 0 169.5 -32.333 218.5 -97s73.5 -153.334 73.5 -266.001c0 -116 -25.5 -205.5 -76.5 -268.5s-122.833 -94.5 -215.5 -94.5c-96 0 -168.333 32.333 -217 97s-73 153.334 -73 266.001zM161 350
c0 -78.667 14.832 -143.167 44.499 -193.5s73.834 -75.5 132.501 -75.5c57.333 0 101.5 22.167 132.5 66.5s46.5 111.833 46.5 202.5c0 78.667 -14.833 143.167 -44.5 193.5s-74.5 75.5 -134.5 75.5c-56 0 -99.5 -22.5 -130.5 -67.5s-46.5 -112.167 -46.5 -201.5z
M281.999 752l112 118h134v-25l-162 -93h-84z" />
    <glyph glyph-name="Ocircumflex" unicode="&#xd4;" horiz-adv-x="678" 
d="M48 350c0 116 25.167 205.5 75.5 268.5s121.833 94.5 214.5 94.5c96.667 0 169.5 -32.333 218.5 -97s73.5 -153.334 73.5 -266.001c0 -116 -25.5 -205.5 -76.5 -268.5s-122.833 -94.5 -215.5 -94.5c-96 0 -168.333 32.333 -217 97s-73 153.334 -73 266.001zM161 350
c0 -78.667 14.832 -143.167 44.499 -193.5s73.834 -75.5 132.501 -75.5c57.333 0 101.5 22.167 132.5 66.5s46.5 111.833 46.5 202.5c0 78.667 -14.833 143.167 -44.5 193.5s-74.5 75.5 -134.5 75.5c-56 0 -99.5 -22.5 -130.5 -67.5s-46.5 -112.167 -46.5 -201.5z
M167.999 773l133 97h76l127 -98v-29h-89l-59 46l-18 34l-20 -33l-63 -47h-87v30z" />
    <glyph glyph-name="Otilde" unicode="&#xd5;" horiz-adv-x="678" 
d="M48 350c0 116 25.167 205.5 75.5 268.5s121.833 94.5 214.5 94.5c96.667 0 169.5 -32.333 218.5 -97s73.5 -153.334 73.5 -266.001c0 -116 -25.5 -205.5 -76.5 -268.5s-122.833 -94.5 -215.5 -94.5c-96 0 -168.333 32.333 -217 97s-73 153.334 -73 266.001zM161 350
c0 -78.667 14.832 -143.167 44.499 -193.5s73.834 -75.5 132.501 -75.5c57.333 0 101.5 22.167 132.5 66.5s46.5 111.833 46.5 202.5c0 78.667 -14.833 143.167 -44.5 193.5s-74.5 75.5 -134.5 75.5c-56 0 -99.5 -22.5 -130.5 -67.5s-46.5 -112.167 -46.5 -201.5z
M188.999 741l-23.999 51c36.667 38 76.334 57 119.001 57c16.667 0 41 -5.5 73 -16.5s55 -16.5 69 -16.5c21.333 0 39.666 7.33301 54.999 22l25 -54c-32.667 -30 -67.667 -45 -105 -45c-18.667 0 -44.167 5.66699 -76.5 17s-54.833 17 -67.5 17
c-24.667 0 -47.334 -10.667 -68.001 -32z" />
    <glyph glyph-name="Odieresis" unicode="&#xd6;" horiz-adv-x="678" 
d="M48 350c0 116 25.167 205.5 75.5 268.5s121.833 94.5 214.5 94.5c96.667 0 169.5 -32.333 218.5 -97s73.5 -153.334 73.5 -266.001c0 -116 -25.5 -205.5 -76.5 -268.5s-122.833 -94.5 -215.5 -94.5c-96 0 -168.333 32.333 -217 97s-73 153.334 -73 266.001zM161 350
c0 -78.667 14.832 -143.167 44.499 -193.5s73.834 -75.5 132.501 -75.5c57.333 0 101.5 22.167 132.5 66.5s46.5 111.833 46.5 202.5c0 78.667 -14.833 143.167 -44.5 193.5s-74.5 75.5 -134.5 75.5c-56 0 -99.5 -22.5 -130.5 -67.5s-46.5 -112.167 -46.5 -201.5z
M171.999 796c0 16 5.66699 28.667 17 38s27 14 47 14c19.333 0 34.5 -4.66699 45.5 -14s16.5 -22 16.5 -38s-5.33301 -28.5 -16 -37.5s-26 -13.5 -46 -13.5s-35.667 4.5 -47 13.5s-17 21.5 -17 37.5zM373.999 796c0 16 5.5 28.668 16.5 38.001s26.167 14 45.5 14
c20.667 0 36.5 -4.66699 47.5 -14s16.5 -22 16.5 -38s-5.5 -28.5 -16.5 -37.5s-26.833 -13.5 -47.5 -13.5c-19.333 0 -34.5 4.66699 -45.5 14s-16.5 21.666 -16.5 36.999z" />
    <glyph glyph-name="multiply" unicode="&#xd7;" horiz-adv-x="515" 
d="M67 465l63 65l128 -128l129 128l63 -65l-128 -126l128 -128l-63 -65l-129 128l-129 -129l-64 64l130 130z" />
    <glyph glyph-name="Oslash" unicode="&#xd8;" horiz-adv-x="678" 
d="M48 350c0 116 25.167 205.501 75.5 268.501s121.833 94.5 214.5 94.5c67.333 0 123.333 -16.333 168 -49l34 50l67 -42l-44 -65c44.667 -62.667 67 -148.334 67 -257.001c0 -116 -25.5 -205.5 -76.5 -268.5s-122.833 -94.5 -215.5 -94.5c-64 0 -118.333 15 -163 45
l-30 -45l-67 44l39 58c-46 63.333 -69 150.333 -69 261zM161 350.001c0 -62 8.66699 -114.667 26 -158l260 384c-30 28.667 -66.333 43 -109 43c-56 0 -99.5 -22.5 -130.5 -67.5s-46.5 -112.167 -46.5 -201.5zM517 350.001c0 58.667 -7.99902 109.333 -23.999 152l-258 -382
c27.333 -26 61.666 -39 102.999 -39c57.333 0 101.5 22.167 132.5 66.5s46.5 111.833 46.5 202.5z" />
    <glyph glyph-name="Ugrave" unicode="&#xd9;" horiz-adv-x="640" 
d="M466 257v443h102v-460c0 -84.667 -21.167 -147.5 -63.5 -188.5s-100.833 -61.5 -175.5 -61.5c-171.333 0 -257 77.667 -257 233v477h107v-443c0 -62.667 12 -106.834 36 -132.501s62 -38.5 114 -38.5c48 0 82.833 13.333 104.5 40s32.5 70.334 32.5 131.001zM290 870
l112 -118h-88l-158 93v25h134z" />
    <glyph glyph-name="Uacute" unicode="&#xda;" horiz-adv-x="640" 
d="M466 257v443h102v-460c0 -84.667 -21.167 -147.5 -63.5 -188.5s-100.833 -61.5 -175.5 -61.5c-171.333 0 -257 77.667 -257 233v477h107v-443c0 -62.667 12 -106.834 36 -132.501s62 -38.5 114 -38.5c48 0 82.833 13.333 104.5 40s32.5 70.334 32.5 131.001zM267 752
l112 118h134v-25l-162 -93h-84z" />
    <glyph glyph-name="Ucircumflex" unicode="&#xdb;" horiz-adv-x="640" 
d="M466 257v443h102v-460c0 -84.667 -21.167 -147.5 -63.5 -188.5s-100.833 -61.5 -175.5 -61.5c-171.333 0 -257 77.667 -257 233v477h107v-443c0 -62.667 12 -106.834 36 -132.501s62 -38.5 114 -38.5c48 0 82.833 13.333 104.5 40s32.5 70.334 32.5 131.001zM156 773
l133 97h76l127 -98v-29h-89l-59 46l-18 34l-20 -33l-63 -47h-87v30z" />
    <glyph glyph-name="Udieresis" unicode="&#xdc;" horiz-adv-x="640" 
d="M466 257v443h102v-460c0 -84.667 -21.167 -147.5 -63.5 -188.5s-100.833 -61.5 -175.5 -61.5c-171.333 0 -257 77.667 -257 233v477h107v-443c0 -62.667 12 -106.834 36 -132.501s62 -38.5 114 -38.5c48 0 82.833 13.333 104.5 40s32.5 70.334 32.5 131.001zM158 796
c0 16 5.66699 28.667 17 38s27 14 47 14c19.333 0 34.5 -4.66699 45.5 -14s16.5 -22 16.5 -38s-5.33301 -28.5 -16 -37.5s-26 -13.5 -46 -13.5s-35.667 4.5 -47 13.5s-17 21.5 -17 37.5zM360 796c0 16 5.5 28.668 16.5 38.001s26.167 14 45.5 14
c20.667 0 36.5 -4.66699 47.5 -14s16.5 -22 16.5 -38s-5.5 -28.5 -16.5 -37.5s-26.833 -13.5 -47.5 -13.5c-19.333 0 -34.5 4.66699 -45.5 14s-16.5 21.666 -16.5 36.999z" />
    <glyph glyph-name="Yacute" unicode="&#xdd;" horiz-adv-x="573" 
d="M234 0v270l-231 430h127l148 -287l16 -67h2l17 69l142 285h115l-229 -429v-271h-107zM230 752l112 118h134v-25l-162 -93h-84z" />
    <glyph glyph-name="Thorn" unicode="&#xde;" horiz-adv-x="565" 
d="M74 0l0.00195312 799.999h107v-93c32 1.33301 56.333 2 73 2c36 0 69.167 -3.16699 99.5 -9.5s59.666 -17.166 87.999 -32.499s50.666 -38.333 66.999 -69s24.5 -68 24.5 -112c0 -80 -26 -139.167 -78 -177.5s-116.333 -57.5 -193 -57.5c-41.333 0 -68.333 1.33301 -81 4
v-255h-107zM259.002 614.999c-38 0 -64 -1.66699 -78 -5v-260c10 -3.33301 33.333 -5 70 -5c112.667 0 169 47.333 169 142c0 46 -15.333 78.833 -46 98.5s-69 29.5 -115 29.5z" />
    <glyph glyph-name="germandbls" unicode="&#xdf;" horiz-adv-x="609" 
d="M385 549c0 19.333 -9.83301 35.9961 -29.5 49.9961s-41.167 21 -64.5 21c-35.333 0 -60.5 -9.16699 -75.5 -27.5s-22.5 -51.166 -22.5 -98.499v-494h-102v413h-74v87h74v13c0 129.333 65.333 194 196 194c60 0 108.333 -14 145 -42s55 -64.667 55 -110
c0 -22.667 -6.16699 -43.167 -18.5 -61.5s-25.666 -32.333 -39.999 -42s-27.666 -20.834 -39.999 -33.501s-18.5 -26 -18.5 -40c0 -14.667 7 -27 21 -37s30.833 -18.667 50.5 -26s39.334 -16 59.001 -26s36.5 -25.667 50.5 -47s21 -48 21 -80
c0 -47.333 -16.167 -88.333 -48.5 -123s-77.5 -52 -135.5 -52c-54.667 0 -101 11.333 -139 34l29 79c12.667 -7.33301 22.5 -12.666 29.5 -15.999s16.667 -6.33301 29 -9s26.5 -4 42.5 -4c24.667 0 46 8.33301 64 25s27 37.334 27 62.001c0 18.667 -7 34.334 -21 47.001
s-30.833 22.834 -50.5 30.501s-39.334 16 -59.001 25s-36.5 22.5 -50.5 40.5s-21 40.667 -21 68c0 24 6.16699 45.333 18.5 64s25.666 32.667 39.999 42s27.666 20.5 39.999 33.5s18.5 26.5 18.5 40.5z" />
    <glyph glyph-name="agrave" unicode="&#xe0;" horiz-adv-x="496" 
d="M91 390l-28.999 74.999c50.667 29.333 118 44 202 44c64 0 108 -14.667 132 -44s36 -69 36 -119c0 -25.333 -1.16699 -62.166 -3.5 -110.499s-3.5 -83.166 -3.5 -104.499c0 -53.333 5.33301 -97.333 16 -132h-80l-21 69h-5c-34.667 -50.667 -85.334 -76 -152.001 -76
c-44.667 0 -81 13.167 -109 39.5s-42 61.166 -42 104.499c0 104 84 156 252 156c20 0 35 -0.333008 45 -1c2 16.667 3 31.667 3 45c0 32 -6.66699 54.333 -20 67s-37 19 -71 19c-58.667 0 -108.667 -10.667 -150 -32zM215.001 76.999c55.333 0 93.333 23.332 114 69.999v75
c-21.333 1.33301 -37 2 -47 2c-95.333 0 -143 -25 -143 -75c0 -21.333 7 -38.666 21 -51.999s32.333 -20 55 -20zM245.001 719.998l63 -151h-57l-119 126v25h113z" />
    <glyph glyph-name="aacute" unicode="&#xe1;" horiz-adv-x="496" 
d="M91 390l-28.999 74.999c50.667 29.333 118 44 202 44c64 0 108 -14.667 132 -44s36 -69 36 -119c0 -25.333 -1.16699 -62.166 -3.5 -110.499s-3.5 -83.166 -3.5 -104.499c0 -53.333 5.33301 -97.333 16 -132h-80l-21 69h-5c-34.667 -50.667 -85.334 -76 -152.001 -76
c-44.667 0 -81 13.167 -109 39.5s-42 61.166 -42 104.499c0 104 84 156 252 156c20 0 35 -0.333008 45 -1c2 16.667 3 31.667 3 45c0 32 -6.66699 54.333 -20 67s-37 19 -71 19c-58.667 0 -108.667 -10.667 -150 -32zM215.001 76.999c55.333 0 93.333 23.332 114 69.999v75
c-21.333 1.33301 -37 2 -47 2c-95.333 0 -143 -25 -143 -75c0 -21.333 7 -38.666 21 -51.999s32.333 -20 55 -20zM181.001 568.998l56 151h109v-25l-106 -126h-59z" />
    <glyph glyph-name="acircumflex" unicode="&#xe2;" horiz-adv-x="496" 
d="M91 390l-28.999 74.999c50.667 29.333 118 44 202 44c64 0 108 -14.667 132 -44s36 -69 36 -119c0 -25.333 -1.16699 -62.166 -3.5 -110.499s-3.5 -83.166 -3.5 -104.499c0 -53.333 5.33301 -97.333 16 -132h-80l-21 69h-5c-34.667 -50.667 -85.334 -76 -152.001 -76
c-44.667 0 -81 13.167 -109 39.5s-42 61.166 -42 104.499c0 104 84 156 252 156c20 0 35 -0.333008 45 -1c2 16.667 3 31.667 3 45c0 32 -6.66699 54.333 -20 67s-37 19 -71 19c-58.667 0 -108.667 -10.667 -150 -32zM215.001 76.999c55.333 0 93.333 23.332 114 69.999v75
c-21.333 1.33301 -37 2 -47 2c-95.333 0 -143 -25 -143 -75c0 -21.333 7 -38.666 21 -51.999s32.333 -20 55 -20zM106.001 549.998l123 182h56l111 -182h-86l-39 66l-19 54l-20 -54l-45 -66h-81z" />
    <glyph glyph-name="atilde" unicode="&#xe3;" horiz-adv-x="496" 
d="M91 390l-28.999 74.999c50.667 29.333 118 44 202 44c64 0 108 -14.667 132 -44s36 -69 36 -119c0 -25.333 -1.16699 -62.166 -3.5 -110.499s-3.5 -83.166 -3.5 -104.499c0 -53.333 5.33301 -97.333 16 -132h-80l-21 69h-5c-34.667 -50.667 -85.334 -76 -152.001 -76
c-44.667 0 -81 13.167 -109 39.5s-42 61.166 -42 104.499c0 104 84 156 252 156c20 0 35 -0.333008 45 -1c2 16.667 3 31.667 3 45c0 32 -6.66699 54.333 -20 67s-37 19 -71 19c-58.667 0 -108.667 -10.667 -150 -32zM215.001 76.999c55.333 0 93.333 23.332 114 69.999v75
c-21.333 1.33301 -37 2 -47 2c-95.333 0 -143 -25 -143 -75c0 -21.333 7 -38.666 21 -51.999s32.333 -20 55 -20zM120.001 604.998l-21.002 52c34.667 40 69.667 60 105 60c16.667 0 38.667 -6.66699 66 -20s48 -20 62 -20c14.667 0 30.334 8.33301 47.001 25l22 -55
c-32 -36 -64 -54 -96 -54c-16 0 -37.333 6.83301 -64 20.5s-45.667 20.5 -57 20.5c-23.333 0 -44.666 -9.66699 -63.999 -29z" />
    <glyph glyph-name="adieresis" unicode="&#xe4;" horiz-adv-x="496" 
d="M91 390l-28.999 74.999c50.667 29.333 118 44 202 44c64 0 108 -14.667 132 -44s36 -69 36 -119c0 -25.333 -1.16699 -62.166 -3.5 -110.499s-3.5 -83.166 -3.5 -104.499c0 -53.333 5.33301 -97.333 16 -132h-80l-21 69h-5c-34.667 -50.667 -85.334 -76 -152.001 -76
c-44.667 0 -81 13.167 -109 39.5s-42 61.166 -42 104.499c0 104 84 156 252 156c20 0 35 -0.333008 45 -1c2 16.667 3 31.667 3 45c0 32 -6.66699 54.333 -20 67s-37 19 -71 19c-58.667 0 -108.667 -10.667 -150 -32zM215.001 76.999c55.333 0 93.333 23.332 114 69.999v75
c-21.333 1.33301 -37 2 -47 2c-95.333 0 -143 -25 -143 -75c0 -21.333 7 -38.666 21 -51.999s32.333 -20 55 -20zM91.001 651.998c0 17.333 5.5 31.666 16.5 42.999s25.167 17 42.5 17s31.333 -5.66699 42 -17s16 -25.666 16 -42.999
c0 -16.667 -5.33301 -30.334 -16 -41.001s-24.667 -16 -42 -16s-31.5 5.33301 -42.5 16s-16.5 24.334 -16.5 41.001zM295.001 651.998c0 17.333 5.33301 31.667 16 43s24.667 17 42 17c18 0 32.333 -5.5 43 -16.5s16 -25.5 16 -43.5c0 -16.667 -5.33301 -30.334 -16 -41.001
s-25 -16 -43 -16c-17.333 0 -31.333 5.33301 -42 16s-16 24.334 -16 41.001z" />
    <glyph glyph-name="aring" unicode="&#xe5;" horiz-adv-x="496" 
d="M91 390l-28.999 74.999c50.667 29.333 118 44 202 44c64 0 108 -14.667 132 -44s36 -69 36 -119c0 -25.333 -1.16699 -62.166 -3.5 -110.499s-3.5 -83.166 -3.5 -104.499c0 -53.333 5.33301 -97.333 16 -132h-80l-21 69h-5c-34.667 -50.667 -85.334 -76 -152.001 -76
c-44.667 0 -81 13.167 -109 39.5s-42 61.166 -42 104.499c0 104 84 156 252 156c20 0 35 -0.333008 45 -1c2 16.667 3 31.667 3 45c0 32 -6.66699 54.333 -20 67s-37 19 -71 19c-58.667 0 -108.667 -10.667 -150 -32zM215.001 76.999c55.333 0 93.333 23.332 114 69.999v75
c-21.333 1.33301 -37 2 -47 2c-95.333 0 -143 -25 -143 -75c0 -21.333 7 -38.666 21 -51.999s32.333 -20 55 -20zM149.001 644.998c0 28 9.33301 50.5 28 67.5s43.667 25.5 75 25.5s56.5 -8 75.5 -24s28.5 -39 28.5 -69c0 -26.667 -9.66699 -48.667 -29 -66
s-44.333 -26 -75 -26c-31.333 0 -56.333 8.33301 -75 25s-28 39 -28 67zM211.001 644.998c0 -11.333 4 -20.5 12 -27.5s17.667 -10.5 29 -10.5c28 0 42 12.667 42 38c0 12.667 -4 22.334 -12 29.001s-18 10 -30 10s-21.833 -3.33301 -29.5 -10s-11.5 -16.334 -11.5 -29.001z
" />
    <glyph glyph-name="ae" unicode="&#xe6;" horiz-adv-x="791" 
d="M215 77c55.333 0 93.333 23.333 114 70v75c-16 1.33301 -28.667 2 -38 2c-48 -0.666992 -85.333 -6.33398 -112 -17.001s-40 -30 -40 -58c0 -21.333 7 -38.666 21 -51.999s32.333 -20 55 -20zM366 80l-7.00195 0.00292969c-43.333 -58.667 -102 -88 -176 -88
c-44.667 0 -81 13.167 -109 39.5s-42 61.166 -42 104.499c0 104.667 81.667 157 245 157c12 0 29.333 -0.666992 52 -2c2 16.667 3 31.667 3 45c0 32 -6.66699 54.333 -20 67s-37 19 -71 19c-56.667 0 -106.667 -11.667 -150 -35l-29 75c54 31.333 121.333 47 202 47
c66.667 0 111.667 -20 135 -60c16 20.667 38 36.5 66 47.5s57.667 16.5 89 16.5c25.333 0 48.833 -3.16699 70.5 -9.5s42.167 -16.333 61.5 -30s34.5 -33.334 45.5 -59.001s16.5 -56.5 16.5 -92.5c0 -32 -2.33301 -62.333 -7 -91h-313
c1.33301 -52.667 13.5 -92.5 36.5 -119.5s59.833 -40.5 110.5 -40.5c22.667 0 45.334 4 68.001 12s40.334 17.333 53.001 28l36 -70c-45.333 -36 -105.666 -54 -180.999 -54c-41.333 0 -78.333 8.16699 -111 24.5s-57.334 39.166 -74.001 68.499zM553.998 429.003
c-75.333 0 -116.333 -42.667 -123 -128h220v16c0 36.667 -8.5 64.5 -25.5 83.5s-40.833 28.5 -71.5 28.5z" />
    <glyph glyph-name="ccedilla" unicode="&#xe7;" horiz-adv-x="443" 
d="M387 110l28 -78.002c-31.333 -23.333 -70.666 -37.666 -117.999 -42.999l-18 -32c55.333 -8 83 -33 83 -75c0 -28 -11.833 -50.167 -35.5 -66.5s-55.167 -24.5 -94.5 -24.5c-21.333 0 -40.333 1.66699 -57 5l9 43c4.66699 -0.666992 13 -1 25 -1
c39.333 0 59 11.667 59 35c0 18.667 -28.667 30.334 -86 35.001l45 79c-123.333 11.333 -185 99 -185 263c0 84 19 148.833 57 194.5s92.333 68.5 163 68.5c57.333 0 105.666 -10.333 144.999 -31l-27 -85c-33.333 17.333 -68.333 26 -105 26c-84 0 -126 -57.667 -126 -173
c0 -50.667 10.833 -92.167 32.5 -124.5s55.167 -48.5 100.5 -48.5c40.667 0 75.667 11 105 33z" />
    <glyph glyph-name="egrave" unicode="&#xe8;" horiz-adv-x="508" 
d="M413 111l35.9971 -69.998c-44.667 -36 -105 -54 -181 -54s-132.667 23 -170 69s-56 110.667 -56 194c0 85.333 19.833 150.5 59.5 195.5s96.167 67.5 169.5 67.5c25.333 0 48.833 -3 70.5 -9s42 -15.833 61 -29.5s34 -33.334 45 -59.001s16.833 -56.5 17.5 -92.5
c0 -32.667 -2.33301 -63.334 -7 -92.001h-312c1.33301 -52.667 13.333 -92.5 36 -119.5s59.334 -40.5 110.001 -40.5c22.667 0 45.334 4 68.001 12s40.334 17.333 53.001 28zM270.997 429.002c-74.667 0 -115.333 -42.668 -122 -128.001h219c0 1.33301 0.166992 4 0.5 8
s0.5 7 0.5 9c0 36.667 -8.66699 64.334 -26 83.001s-41.333 28 -72 28zM266.998 720.001l63 -151h-57l-119 126v25h113z" />
    <glyph glyph-name="eacute" unicode="&#xe9;" horiz-adv-x="508" 
d="M413 111l35.9971 -69.998c-44.667 -36 -105 -54 -181 -54s-132.667 23 -170 69s-56 110.667 -56 194c0 85.333 19.833 150.5 59.5 195.5s96.167 67.5 169.5 67.5c25.333 0 48.833 -3 70.5 -9s42 -15.833 61 -29.5s34 -33.334 45 -59.001s16.833 -56.5 17.5 -92.5
c0 -32.667 -2.33301 -63.334 -7 -92.001h-312c1.33301 -52.667 13.333 -92.5 36 -119.5s59.334 -40.5 110.001 -40.5c22.667 0 45.334 4 68.001 12s40.334 17.333 53.001 28zM270.997 429.002c-74.667 0 -115.333 -42.668 -122 -128.001h219c0 1.33301 0.166992 4 0.5 8
s0.5 7 0.5 9c0 36.667 -8.66699 64.334 -26 83.001s-41.333 28 -72 28zM226.998 569.001l56 151h109v-25l-106 -126h-59z" />
    <glyph glyph-name="ecircumflex" unicode="&#xea;" horiz-adv-x="508" 
d="M413 111l35.9971 -69.998c-44.667 -36 -105 -54 -181 -54s-132.667 23 -170 69s-56 110.667 -56 194c0 85.333 19.833 150.5 59.5 195.5s96.167 67.5 169.5 67.5c25.333 0 48.833 -3 70.5 -9s42 -15.833 61 -29.5s34 -33.334 45 -59.001s16.833 -56.5 17.5 -92.5
c0 -32.667 -2.33301 -63.334 -7 -92.001h-312c1.33301 -52.667 13.333 -92.5 36 -119.5s59.334 -40.5 110.001 -40.5c22.667 0 45.334 4 68.001 12s40.334 17.333 53.001 28zM270.997 429.002c-74.667 0 -115.333 -42.668 -122 -128.001h219c0 1.33301 0.166992 4 0.5 8
s0.5 7 0.5 9c0 36.667 -8.66699 64.334 -26 83.001s-41.333 28 -72 28zM111.998 550.001l123 182h56l111 -182h-86l-39 66l-19 54l-20 -54l-45 -66h-81z" />
    <glyph glyph-name="edieresis" unicode="&#xeb;" horiz-adv-x="508" 
d="M413 111l35.9971 -69.998c-44.667 -36 -105 -54 -181 -54s-132.667 23 -170 69s-56 110.667 -56 194c0 85.333 19.833 150.5 59.5 195.5s96.167 67.5 169.5 67.5c25.333 0 48.833 -3 70.5 -9s42 -15.833 61 -29.5s34 -33.334 45 -59.001s16.833 -56.5 17.5 -92.5
c0 -32.667 -2.33301 -63.334 -7 -92.001h-312c1.33301 -52.667 13.333 -92.5 36 -119.5s59.334 -40.5 110.001 -40.5c22.667 0 45.334 4 68.001 12s40.334 17.333 53.001 28zM270.997 429.002c-74.667 0 -115.333 -42.668 -122 -128.001h219c0 1.33301 0.166992 4 0.5 8
s0.5 7 0.5 9c0 36.667 -8.66699 64.334 -26 83.001s-41.333 28 -72 28zM101.998 652.001c0 17.333 5.5 31.666 16.5 42.999s25.167 17 42.5 17s31.333 -5.66699 42 -17s16 -25.666 16 -42.999c0 -16.667 -5.33301 -30.334 -16 -41.001s-24.667 -16 -42 -16
s-31.5 5.33301 -42.5 16s-16.5 24.334 -16.5 41.001zM305.998 652.001c0 17.333 5.33301 31.667 16 43s24.667 17 42 17c18 0 32.333 -5.5 43 -16.5s16 -25.5 16 -43.5c0 -16.667 -5.33301 -30.334 -16 -41.001s-25 -16 -43 -16c-17.333 0 -31.333 5.33301 -42 16
s-16 24.334 -16 41.001z" />
    <glyph glyph-name="igrave" unicode="&#xec;" horiz-adv-x="269" 
d="M118 720l63 -151h-57l-119 126v25h113zM83 0v500h102v-500h-102z" />
    <glyph glyph-name="iacute" unicode="&#xed;" horiz-adv-x="269" 
d="M84 569l56 151h109v-25l-106 -126h-59zM83 0v500h102v-500h-102z" />
    <glyph glyph-name="icircumflex" unicode="&#xee;" horiz-adv-x="269" 
d="M-15 550l123 182h56l111 -182h-86l-39 66l-19 54l-20 -54l-45 -66h-81zM83 0v500h102v-500h-102z" />
    <glyph glyph-name="idieresis" unicode="&#xef;" horiz-adv-x="269" 
d="M-29 652c0 17.333 5.5 31.666 16.5 42.999s25.167 17 42.5 17s31.333 -5.66699 42 -17s16 -25.666 16 -42.999c0 -16.667 -5.33301 -30.334 -16 -41.001s-24.667 -16 -42 -16s-31.5 5.33301 -42.5 16s-16.5 24.334 -16.5 41.001zM175 652c0 17.333 5.33301 31.667 16 43
s24.667 17 42 17c18 0 32.333 -5.5 43 -16.5s16 -25.5 16 -43.5c0 -16.667 -5.33301 -30.334 -16 -41.001s-25 -16 -43 -16c-17.333 0 -31.333 5.33301 -42 16s-16 24.334 -16 41.001zM83 0.000976562v500h102v-500h-102z" />
    <glyph glyph-name="eth" unicode="&#xf0;" horiz-adv-x="562" 
d="M256 539l-55.002 23l34 69c-22.667 6 -48.334 9 -77.001 9h-19v73h18c40.667 0 78.334 -4 113.001 -12l31 63l54 -25l-28 -57c124.667 -52.667 187 -178 187 -376c0 -106.667 -21.5 -186.5 -64.5 -239.5s-99.833 -79.5 -170.5 -79.5c-76.667 0 -134.5 24.167 -173.5 72.5
s-58.5 111.166 -58.5 188.499c0 72.667 20.833 133.667 62.5 183s96.834 74 165.501 74c27.333 0 53.333 -4.16699 78 -12.5s42.334 -18.833 53.001 -31.5c-16 68.667 -54.333 118.334 -115 149.001zM148.998 247c0 -56 12.332 -98.832 36.999 -128.499
s57.667 -44.5 99 -44.5c39.333 0 71 17.5 95 52.5s36 87.833 36 158.5c0 36 -2.33301 63 -7 81c-10.667 16 -27.5 28.667 -50.5 38s-46.833 14 -71.5 14c-45.333 0 -79.666 -15.833 -102.999 -47.5s-35 -72.834 -35 -123.501z" />
    <glyph glyph-name="ntilde" unicode="&#xf1;" horiz-adv-x="546" 
d="M485 0l-102 -0.000976562v284c0 48 -7 83.167 -21 105.5s-38 33.5 -72 33.5c-29.333 0 -54.666 -8.16699 -75.999 -24.5s-36 -37.833 -44 -64.5v-334h-102v500h77l15 -63h4c37.333 50.667 90.666 76 159.999 76c55.333 0 96 -15.167 122 -45.5s39 -84.166 39 -161.499
v-306zM143 604.999l-21.002 52c34.667 40 69.667 60 105 60c16.667 0 38.667 -6.66699 66 -20s48 -20 62 -20c14.667 0 30.334 8.33301 47.001 25l22 -55c-32 -36 -64 -54 -96 -54c-16 0 -37.333 6.83301 -64 20.5s-45.667 20.5 -57 20.5
c-23.333 0 -44.666 -9.66699 -63.999 -29z" />
    <glyph glyph-name="ograve" unicode="&#xf2;" horiz-adv-x="537" 
d="M42 250c0 84 19.667 148.833 59 194.5s95 68.5 167 68.5c74.667 0 131.167 -23.5 169.5 -70.5s57.5 -111.167 57.5 -192.5c0 -84 -19.833 -148.833 -59.5 -194.5s-95.5 -68.5 -167.5 -68.5c-74.667 0 -131 23.333 -169 70s-57 111 -57 193zM149 250
c0 -52 9.66602 -94.333 28.999 -127s49.333 -49 90 -49c80 0 120 58.667 120 176c0 53.333 -9.66699 96 -29 128s-49.666 48 -90.999 48c-79.333 0 -119 -58.667 -119 -176zM259.999 720l63 -151h-57l-119 126v25h113z" />
    <glyph glyph-name="oacute" unicode="&#xf3;" horiz-adv-x="537" 
d="M42 250c0 84 19.667 148.833 59 194.5s95 68.5 167 68.5c74.667 0 131.167 -23.5 169.5 -70.5s57.5 -111.167 57.5 -192.5c0 -84 -19.833 -148.833 -59.5 -194.5s-95.5 -68.5 -167.5 -68.5c-74.667 0 -131 23.333 -169 70s-57 111 -57 193zM149 250
c0 -52 9.66602 -94.333 28.999 -127s49.333 -49 90 -49c80 0 120 58.667 120 176c0 53.333 -9.66699 96 -29 128s-49.666 48 -90.999 48c-79.333 0 -119 -58.667 -119 -176zM223.999 569l56 151h109v-25l-106 -126h-59z" />
    <glyph glyph-name="ocircumflex" unicode="&#xf4;" horiz-adv-x="537" 
d="M42 250c0 84 19.667 148.833 59 194.5s95 68.5 167 68.5c74.667 0 131.167 -23.5 169.5 -70.5s57.5 -111.167 57.5 -192.5c0 -84 -19.833 -148.833 -59.5 -194.5s-95.5 -68.5 -167.5 -68.5c-74.667 0 -131 23.333 -169 70s-57 111 -57 193zM149 250
c0 -52 9.66602 -94.333 28.999 -127s49.333 -49 90 -49c80 0 120 58.667 120 176c0 53.333 -9.66699 96 -29 128s-49.666 48 -90.999 48c-79.333 0 -119 -58.667 -119 -176zM122.999 550l123 182h56l111 -182h-86l-39 66l-19 54l-20 -54l-45 -66h-81z" />
    <glyph glyph-name="otilde" unicode="&#xf5;" horiz-adv-x="537" 
d="M42 250c0 84 19.667 148.833 59 194.5s95 68.5 167 68.5c74.667 0 131.167 -23.5 169.5 -70.5s57.5 -111.167 57.5 -192.5c0 -84 -19.833 -148.833 -59.5 -194.5s-95.5 -68.5 -167.5 -68.5c-74.667 0 -131 23.333 -169 70s-57 111 -57 193zM149 250
c0 -52 9.66602 -94.333 28.999 -127s49.333 -49 90 -49c80 0 120 58.667 120 176c0 53.333 -9.66699 96 -29 128s-49.666 48 -90.999 48c-79.333 0 -119 -58.667 -119 -176zM138.999 605l-21.002 52c34.667 40 69.667 60 105 60c16.667 0 38.667 -6.66699 66 -20
s48 -20 62 -20c14.667 0 30.334 8.33301 47.001 25l22 -55c-32 -36 -64 -54 -96 -54c-16 0 -37.333 6.83301 -64 20.5s-45.667 20.5 -57 20.5c-23.333 0 -44.666 -9.66699 -63.999 -29z" />
    <glyph glyph-name="odieresis" unicode="&#xf6;" horiz-adv-x="537" 
d="M42 250c0 84 19.667 148.833 59 194.5s95 68.5 167 68.5c74.667 0 131.167 -23.5 169.5 -70.5s57.5 -111.167 57.5 -192.5c0 -84 -19.833 -148.833 -59.5 -194.5s-95.5 -68.5 -167.5 -68.5c-74.667 0 -131 23.333 -169 70s-57 111 -57 193zM149 250
c0 -52 9.66602 -94.333 28.999 -127s49.333 -49 90 -49c80 0 120 58.667 120 176c0 53.333 -9.66699 96 -29 128s-49.666 48 -90.999 48c-79.333 0 -119 -58.667 -119 -176zM107.999 652c0 17.333 5.5 31.666 16.5 42.999s25.167 17 42.5 17s31.333 -5.66699 42 -17
s16 -25.666 16 -42.999c0 -16.667 -5.33301 -30.334 -16 -41.001s-24.667 -16 -42 -16s-31.5 5.33301 -42.5 16s-16.5 24.334 -16.5 41.001zM311.999 652c0 17.333 5.33301 31.667 16 43s24.667 17 42 17c18 0 32.333 -5.5 43 -16.5s16 -25.5 16 -43.5
c0 -16.667 -5.33301 -30.334 -16 -41.001s-25 -16 -43 -16c-17.333 0 -31.333 5.33301 -42 16s-16 24.334 -16 41.001z" />
    <glyph glyph-name="divide" unicode="&#xf7;" horiz-adv-x="515" 
d="M191 525c0 20 6.16895 36.001 18.502 48.001s28.5 18 48.5 18c21.333 0 38.166 -5.83301 50.499 -17.5s18.5 -27.834 18.5 -48.501c0 -20 -6.33301 -36 -19 -48s-29.334 -18 -50.001 -18c-20 0 -36.167 6 -48.5 18s-18.5 28 -18.5 48zM191.002 146.001
c0 20 6.16895 36.001 18.502 48.001s28.5 18 48.5 18c21.333 0 38.166 -5.83301 50.499 -17.5s18.5 -27.834 18.5 -48.501c0 -20 -6.33301 -36 -19 -48s-29.334 -18 -50.001 -18c-20 0 -36.167 6 -48.5 18s-18.5 28 -18.5 48zM41.0039 293.002v90h433v-90h-433z" />
    <glyph glyph-name="oslash" unicode="&#xf8;" horiz-adv-x="537" 
d="M41 250c0 84 19.832 148.833 59.499 194.5s95.5 68.5 167.5 68.5c44.667 0 83.334 -9 116.001 -27l25 34l64 -47l-29 -40c33.333 -45.333 50 -106.333 50 -183c0 -84 -19.667 -148.833 -59 -194.5s-95 -68.5 -167 -68.5c-47.333 0 -88 10 -122 30l-26 -36l-66 48l32 44
c-30 43.333 -45 102.333 -45 177zM386.999 250c0 40.667 -4.33301 73 -13 97l-178 -248c18.667 -16.667 42.667 -25 72 -25c79.333 0 119 58.667 119 176zM147.999 250c0 -36 3.66602 -66 10.999 -90l176 245c-19.333 14 -41.666 21 -66.999 21
c-80 0 -120 -58.667 -120 -176z" />
    <glyph glyph-name="ugrave" unicode="&#xf9;" horiz-adv-x="538" 
d="M61 500l102 0.000976562v-284c0 -49.333 6.16699 -84.833 18.5 -106.5s34.833 -32.5 67.5 -32.5c28.667 0 53.167 8.66699 73.5 26s35.5 40 45.5 68v329h102v-354c0 -58 4.33301 -106.667 13 -146h-74l-22 77h-4c-35.333 -60 -89 -90 -161 -90
c-55.333 0 -96 15.167 -122 45.5s-39 84.166 -39 161.499v306zM249 720.001l63 -151h-57l-119 126v25h113z" />
    <glyph glyph-name="uacute" unicode="&#xfa;" horiz-adv-x="538" 
d="M61 500l102 0.000976562v-284c0 -49.333 6.16699 -84.833 18.5 -106.5s34.833 -32.5 67.5 -32.5c28.667 0 53.167 8.66699 73.5 26s35.5 40 45.5 68v329h102v-354c0 -58 4.33301 -106.667 13 -146h-74l-22 77h-4c-35.333 -60 -89 -90 -161 -90
c-55.333 0 -96 15.167 -122 45.5s-39 84.166 -39 161.499v306zM218 569.001l56 151h109v-25l-106 -126h-59z" />
    <glyph glyph-name="ucircumflex" unicode="&#xfb;" horiz-adv-x="538" 
d="M61 500l102 0.000976562v-284c0 -49.333 6.16699 -84.833 18.5 -106.5s34.833 -32.5 67.5 -32.5c28.667 0 53.167 8.66699 73.5 26s35.5 40 45.5 68v329h102v-354c0 -58 4.33301 -106.667 13 -146h-74l-22 77h-4c-35.333 -60 -89 -90 -161 -90
c-55.333 0 -96 15.167 -122 45.5s-39 84.166 -39 161.499v306zM124 550.001l123 182h56l111 -182h-86l-39 66l-19 54l-20 -54l-45 -66h-81z" />
    <glyph glyph-name="udieresis" unicode="&#xfc;" horiz-adv-x="538" 
d="M61 500l102 0.000976562v-284c0 -49.333 6.16699 -84.833 18.5 -106.5s34.833 -32.5 67.5 -32.5c28.667 0 53.167 8.66699 73.5 26s35.5 40 45.5 68v329h102v-354c0 -58 4.33301 -106.667 13 -146h-74l-22 77h-4c-35.333 -60 -89 -90 -161 -90
c-55.333 0 -96 15.167 -122 45.5s-39 84.166 -39 161.499v306zM108 652.001c0 17.333 5.5 31.666 16.5 42.999s25.167 17 42.5 17s31.333 -5.66699 42 -17s16 -25.666 16 -42.999c0 -16.667 -5.33301 -30.334 -16 -41.001s-24.667 -16 -42 -16s-31.5 5.33301 -42.5 16
s-16.5 24.334 -16.5 41.001zM312 652.001c0 17.333 5.33301 31.667 16 43s24.667 17 42 17c18 0 32.333 -5.5 43 -16.5s16 -25.5 16 -43.5c0 -16.667 -5.33301 -30.334 -16 -41.001s-25 -16 -43 -16c-17.333 0 -31.333 5.33301 -42 16s-16 24.334 -16 41.001z" />
    <glyph glyph-name="yacute" unicode="&#xfd;" horiz-adv-x="471" 
d="M123 500l108 -305l23 -88h6l18 89l88 304h104l-150 -450c-11.333 -34.667 -20.5 -61.667 -27.5 -81s-16.333 -41.833 -28 -67.5s-22.834 -45 -33.501 -58s-23.667 -24.333 -39 -34s-31.666 -14.5 -48.999 -14.5c-29.333 0 -52.333 4.33301 -69 13l18 87
c9.33301 -4 18.333 -6 27 -6c42 0 71.333 37 88 111l-204 500h120zM211 569l56 151h109v-25l-106 -126h-59z" />
    <glyph glyph-name="thorn" unicode="&#xfe;" horiz-adv-x="541" 
d="M68 -200v899.999h102v-247h4c29.333 40 73 60 131 60c65.333 0 114 -20.167 146 -60.5s48 -104.166 48 -191.499c0 -84.667 -20.5 -151.5 -61.5 -200.5s-97.167 -73.5 -168.5 -73.5c-37.333 0 -70.333 6.66699 -99 20v-207h-102zM280 425.999
c-57.333 0 -94 -31.667 -110 -95v-230c23.333 -18 53.333 -27 90 -27c42 0 74.5 16 97.5 48s34.5 79 34.5 141c0 108.667 -37.333 163 -112 163z" />
    <glyph glyph-name="ydieresis" unicode="&#xff;" horiz-adv-x="471" 
d="M123 500l108 -305l23 -88h6l18 89l88 304h104l-150 -450c-11.333 -34.667 -20.5 -61.667 -27.5 -81s-16.333 -41.833 -28 -67.5s-22.834 -45 -33.501 -58s-23.667 -24.333 -39 -34s-31.666 -14.5 -48.999 -14.5c-29.333 0 -52.333 4.33301 -69 13l18 87
c9.33301 -4 18.333 -6 27 -6c42 0 71.333 37 88 111l-204 500h120zM78 652c0 17.333 5.5 31.666 16.5 42.999s25.167 17 42.5 17s31.333 -5.66699 42 -17s16 -25.666 16 -42.999c0 -16.667 -5.33301 -30.334 -16 -41.001s-24.667 -16 -42 -16s-31.5 5.33301 -42.5 16
s-16.5 24.334 -16.5 41.001zM282 652c0 17.333 5.33301 31.667 16 43s24.667 17 42 17c18 0 32.333 -5.5 43 -16.5s16 -25.5 16 -43.5c0 -16.667 -5.33301 -30.334 -16 -41.001s-25 -16 -43 -16c-17.333 0 -31.333 5.33301 -42 16s-16 24.334 -16 41.001z" />
    <glyph glyph-name="Amacron" unicode="&#x100;" horiz-adv-x="594" 
d="M477 0l-65 177h-239l-63 -177h-105l259 708h66l260 -708h-113zM269 452l-66 -188h183l-67 189l-24 108h-2zM132 755v74h328v-74h-328z" />
    <glyph glyph-name="amacron" unicode="&#x101;" horiz-adv-x="496" 
d="M91 390l-28.999 74.999c50.667 29.333 118 44 202 44c64 0 108 -14.667 132 -44s36 -69 36 -119c0 -25.333 -1.16699 -62.166 -3.5 -110.499s-3.5 -83.166 -3.5 -104.499c0 -53.333 5.33301 -97.333 16 -132h-80l-21 69h-5c-34.667 -50.667 -85.334 -76 -152.001 -76
c-44.667 0 -81 13.167 -109 39.5s-42 61.166 -42 104.499c0 104 84 156 252 156c20 0 35 -0.333008 45 -1c2 16.667 3 31.667 3 45c0 32 -6.66699 54.333 -20 67s-37 19 -71 19c-58.667 0 -108.667 -10.667 -150 -32zM215.001 76.999c55.333 0 93.333 23.332 114 69.999v75
c-21.333 1.33301 -37 2 -47 2c-95.333 0 -143 -25 -143 -75c0 -21.333 7 -38.666 21 -51.999s32.333 -20 55 -20zM97.001 573.998v76h308v-76h-308z" />
    <glyph glyph-name="Abreve" unicode="&#x102;" horiz-adv-x="594" 
d="M477 0l-65 177h-239l-63 -177h-105l259 708h66l260 -708h-113zM269 452l-66 -188h183l-67 189l-24 108h-2zM117 843l47 30c24.667 -42.667 70.667 -64 138 -64c62 0 106 21.333 132 64l44 -25c-13.333 -37.333 -36.333 -66.333 -69 -87s-68.667 -31 -108 -31
c-38.667 0 -75 9.5 -109 28.5s-59 47.167 -75 84.5z" />
    <glyph glyph-name="abreve" unicode="&#x103;" horiz-adv-x="496" 
d="M91 390l-28.999 74.999c50.667 29.333 118 44 202 44c64 0 108 -14.667 132 -44s36 -69 36 -119c0 -25.333 -1.16699 -62.166 -3.5 -110.499s-3.5 -83.166 -3.5 -104.499c0 -53.333 5.33301 -97.333 16 -132h-80l-21 69h-5c-34.667 -50.667 -85.334 -76 -152.001 -76
c-44.667 0 -81 13.167 -109 39.5s-42 61.166 -42 104.499c0 104 84 156 252 156c20 0 35 -0.333008 45 -1c2 16.667 3 31.667 3 45c0 32 -6.66699 54.333 -20 67s-37 19 -71 19c-58.667 0 -108.667 -10.667 -150 -32zM215.001 76.999c55.333 0 93.333 23.332 114 69.999v75
c-21.333 1.33301 -37 2 -47 2c-95.333 0 -143 -25 -143 -75c0 -21.333 7 -38.666 21 -51.999s32.333 -20 55 -20zM89.001 692.998l53.002 27c25.333 -46 62.666 -69 111.999 -69s84.666 23 105.999 69l50 -22c-3.33301 -34 -20 -64 -50 -90s-65.667 -39 -107 -39
c-40 0 -75 11.167 -105 33.5s-49.667 52.5 -59 90.5z" />
    <glyph glyph-name="Aogonek" unicode="&#x104;" horiz-adv-x="594" 
d="M477 0l-64.999 177.001h-239l-63 -177h-105l259 708h66l260 -708h-22c-38.667 -18.667 -58 -45.667 -58 -81c0 -31.333 16 -47 48 -47c13.333 0 26.666 3.66699 39.999 11l15 -52c-24 -19.333 -57 -29 -99 -29c-32.667 0 -58.5 8.16699 -77.5 24.5
s-28.5 38.166 -28.5 65.499c0 47.333 27.333 83.333 82 108h-13zM269.001 452.001l-66 -188h183l-67 189l-24 108h-2z" />
    <glyph glyph-name="aogonek" unicode="&#x105;" horiz-adv-x="496" 
d="M91 390l-28.998 75c50.667 29.333 118 44 202 44c64 0 108 -14.667 132 -44s36 -69 36 -119c0 -25.333 -1.16699 -62.166 -3.5 -110.499s-3.5 -83.166 -3.5 -104.499c0 -53.333 5.33301 -97.333 16 -132h-21c-38 -19.333 -57 -46 -57 -80c0 -31.333 16 -47 48 -47
c13.333 0 26.666 3.66699 39.999 11l15 -52c-24 -19.333 -57 -29 -99 -29c-32.667 0 -58.5 8.16699 -77.5 24.5s-28.5 38.166 -28.5 65.499c0 52 32.667 90 98 114l-19 62h-5c-34.667 -50.667 -85.334 -76 -152.001 -76c-44.667 0 -81 13.167 -109 39.5
s-42 61.166 -42 104.499c0 104 84 156 252 156c20 0 35 -0.333008 45 -1c2 16.667 3 31.667 3 45c0 32 -6.66699 54.333 -20 67s-37 19 -71 19c-58.667 0 -108.667 -10.667 -150 -32zM215.002 77c55.333 0 93.333 23.332 114 69.999v75c-21.333 1.33301 -37 2 -47 2
c-95.333 0 -143 -25 -143 -75c0 -21.333 7 -38.666 21 -51.999s32.333 -20 55 -20z" />
    <glyph glyph-name="Cacute" unicode="&#x106;" horiz-adv-x="566" 
d="M510 115l22.999 -85.9961c-37.333 -28 -96.666 -42 -177.999 -42c-42.667 0 -82.167 7 -118.5 21s-68.833 35.167 -97.5 63.5s-51 66.333 -67 114s-24 102.5 -24 164.5c0 64 9 120.167 27 168.5s42.167 86.166 72.5 113.499s63.166 47.666 98.499 60.999
s72.333 20 111 20c68 0 123.333 -8.33301 166 -25l-23 -93c-30 14.667 -74.667 22 -134 22c-60 0 -109.167 -21.833 -147.5 -65.5s-57.5 -110.834 -57.5 -201.501c0 -84.667 19.333 -150.334 58 -197.001s91.334 -70 158.001 -70c54 0 98.333 10.667 133 32z
M286.999 752.004l112 118h134v-25l-162 -93h-84z" />
    <glyph glyph-name="cacute" unicode="&#x107;" horiz-adv-x="443" 
d="M387 110l28.001 -78c-41.333 -30 -94 -45 -158 -45c-143.333 0 -215 87.667 -215 263c0 84 19 148.833 57 194.5s92.333 68.5 163 68.5c57.333 0 105.666 -10.333 144.999 -31l-27 -85c-33.333 17.333 -68.333 26 -105 26c-84 0 -126 -57.667 -126 -173
c0 -50.667 10.833 -92.167 32.5 -124.5s55.167 -48.5 100.5 -48.5c40.667 0 75.667 11 105 33zM216.001 569l56 151h109v-25l-106 -126h-59z" />
    <glyph glyph-name="Ccircumflex" unicode="&#x108;" horiz-adv-x="566" 
d="M510 115l22.999 -85.9961c-37.333 -28 -96.666 -42 -177.999 -42c-42.667 0 -82.167 7 -118.5 21s-68.833 35.167 -97.5 63.5s-51 66.333 -67 114s-24 102.5 -24 164.5c0 64 9 120.167 27 168.5s42.167 86.166 72.5 113.499s63.166 47.666 98.499 60.999
s72.333 20 111 20c68 0 123.333 -8.33301 166 -25l-23 -93c-30 14.667 -74.667 22 -134 22c-60 0 -109.167 -21.833 -147.5 -65.5s-57.5 -110.834 -57.5 -201.501c0 -84.667 19.333 -150.334 58 -197.001s91.334 -70 158.001 -70c54 0 98.333 10.667 133 32z
M172.999 773.004l133 97h76l127 -98v-29h-89l-59 46l-18 34l-20 -33l-63 -47h-87v30z" />
    <glyph glyph-name="ccircumflex" unicode="&#x109;" horiz-adv-x="443" 
d="M387 110l28.001 -78c-41.333 -30 -94 -45 -158 -45c-143.333 0 -215 87.667 -215 263c0 84 19 148.833 57 194.5s92.333 68.5 163 68.5c57.333 0 105.666 -10.333 144.999 -31l-27 -85c-33.333 17.333 -68.333 26 -105 26c-84 0 -126 -57.667 -126 -173
c0 -50.667 10.833 -92.167 32.5 -124.5s55.167 -48.5 100.5 -48.5c40.667 0 75.667 11 105 33zM100.001 550l123 182h56l111 -182h-86l-39 66l-19 54l-20 -54l-45 -66h-81z" />
    <glyph glyph-name="Cdotaccent" unicode="&#x10a;" horiz-adv-x="566" 
d="M510 115l22.999 -85.9961c-37.333 -28 -96.666 -42 -177.999 -42c-42.667 0 -82.167 7 -118.5 21s-68.833 35.167 -97.5 63.5s-51 66.333 -67 114s-24 102.5 -24 164.5c0 64 9 120.167 27 168.5s42.167 86.166 72.5 113.499s63.166 47.666 98.499 60.999
s72.333 20 111 20c68 0 123.333 -8.33301 166 -25l-23 -93c-30 14.667 -74.667 22 -134 22c-60 0 -109.167 -21.833 -147.5 -65.5s-57.5 -110.834 -57.5 -201.501c0 -84.667 19.333 -150.334 58 -197.001s91.334 -70 158.001 -70c54 0 98.333 10.667 133 32z
M277.999 798.004c0 15.333 6.66699 28.5 20 39.5s31 16.5 53 16.5c22.667 0 40.834 -5.5 54.501 -16.5s20.5 -24.167 20.5 -39.5c0 -16.667 -6.83301 -30.334 -20.5 -41.001s-31.834 -16 -54.501 -16s-40.5 5.33301 -53.5 16s-19.5 24.334 -19.5 41.001z" />
    <glyph glyph-name="cdotaccent" unicode="&#x10b;" horiz-adv-x="443" 
d="M387 110l28.001 -78c-41.333 -30 -94 -45 -158 -45c-143.333 0 -215 87.667 -215 263c0 84 19 148.833 57 194.5s92.333 68.5 163 68.5c57.333 0 105.666 -10.333 144.999 -31l-27 -85c-33.333 17.333 -68.333 26 -105 26c-84 0 -126 -57.667 -126 -173
c0 -50.667 10.833 -92.167 32.5 -124.5s55.167 -48.5 100.5 -48.5c40.667 0 75.667 11 105 33zM188.001 647c0 17.333 6.16699 32 18.5 44s28.5 18 48.5 18s36.667 -6 50 -18s20 -26.667 20 -44s-6.5 -31.5 -19.5 -42.5s-29.833 -16.5 -50.5 -16.5
c-20 0 -36.167 5.5 -48.5 16.5s-18.5 25.167 -18.5 42.5z" />
    <glyph glyph-name="Ccaron" unicode="&#x10c;" horiz-adv-x="566" 
d="M510 115l22.999 -85.9961c-37.333 -28 -96.666 -42 -177.999 -42c-42.667 0 -82.167 7 -118.5 21s-68.833 35.167 -97.5 63.5s-51 66.333 -67 114s-24 102.5 -24 164.5c0 64 9 120.167 27 168.5s42.167 86.166 72.5 113.499s63.166 47.666 98.499 60.999
s72.333 20 111 20c68 0 123.333 -8.33301 166 -25l-23 -93c-30 14.667 -74.667 22 -134 22c-60 0 -109.167 -21.833 -147.5 -65.5s-57.5 -110.834 -57.5 -201.501c0 -84.667 19.333 -150.334 58 -197.001s91.334 -70 158.001 -70c54 0 98.333 10.667 133 32z
M516.999 840.004l-133 -98h-74l-127 99v29h92l56 -48l18 -32l20 31l60 49h88v-30z" />
    <glyph glyph-name="ccaron" unicode="&#x10d;" horiz-adv-x="443" 
d="M387 110l28.001 -78c-41.333 -30 -94 -45 -158 -45c-143.333 0 -215 87.667 -215 263c0 84 19 148.833 57 194.5s92.333 68.5 163 68.5c57.333 0 105.666 -10.333 144.999 -31l-27 -85c-33.333 17.333 -68.333 26 -105 26c-84 0 -126 -57.667 -126 -173
c0 -50.667 10.833 -92.167 32.5 -124.5s55.167 -48.5 100.5 -48.5c40.667 0 75.667 11 105 33zM400.001 732l-123 -182h-61l-115 182h92l39 -66l19 -54l20 54l45 66h84z" />
    <glyph glyph-name="Dcaron" unicode="&#x10e;" horiz-adv-x="651" 
d="M74 -1l-0.000976562 700.999c44.667 6 109.334 9 194.001 9c113.333 0 197.5 -31.667 252.5 -95s82.5 -149.666 82.5 -258.999c0 -49.333 -6.33301 -95 -19 -137s-32 -80.5 -58 -115.5s-62 -62.5 -108 -82.5s-99.667 -30 -161 -30c-75.333 0 -136.333 3 -183 9z
M273.999 612.999c-46.667 0 -77.666 -1.33496 -92.999 -4.00195v-519c17.333 -2.66699 45.333 -4 84 -4c42 0 78.167 7.33301 108.5 22s53.666 35 69.999 61s28.166 54.333 35.499 85s11 64.334 11 101.001c0 32.667 -3.5 63.334 -10.5 92.001s-18.167 56 -33.5 82
s-37.666 46.5 -66.999 61.5s-64.333 22.5 -105 22.5zM449 839.997l-133 -98h-74l-127 99v29h92l56 -48l18 -32l20 31l60 49h88v-30z" />
    <glyph glyph-name="dcaron" unicode="&#x10f;" horiz-adv-x="538" 
d="M470 700v-526.001c0 -77.333 3.33301 -135.666 10 -174.999h-71l-19 68h-4c-13.333 -24 -32.833 -43.333 -58.5 -58s-55.167 -22 -88.5 -22c-131.333 0 -197 86 -197 258c0 84.667 19.833 150 59.5 196s95.5 69 167.5 69c36.667 0 69.667 -5.33301 99 -16v206h102z
M260 73.999c58 0 94 30.667 108 92v233c-20 16 -50 24 -90 24c-86 0 -129 -59.667 -129 -179c0 -113.333 37 -170 111 -170zM537 699.999l95 -0.000976562c-2 -35.333 -12.667 -73 -32 -113s-37.333 -68 -54 -84l-44 24c23.333 48.667 35 106.334 35 173.001z" />
    <glyph glyph-name="Dcroat" unicode="&#x110;" horiz-adv-x="663" 
d="M-3 327l-0.000976562 68.999h89v304c44.667 6 109.334 9 194.001 9c113.333 0 197.5 -31.667 252.5 -95s82.5 -149.666 82.5 -258.999c0 -49.333 -6.33301 -95 -19 -137s-32 -80.5 -58 -115.5s-62 -62.5 -108 -82.5s-99.667 -30 -161 -30c-75.333 0 -136.333 3 -183 9
v328h-89zM285.999 612.999c-46.667 0 -77.666 -1.33496 -92.999 -4.00195v-213h144v-69h-144v-237c17.333 -2.66699 45.333 -4 84 -4c42 0 78.167 7.33301 108.5 22s53.666 35 69.999 61s28.166 54.333 35.499 85s11 64.334 11 101.001c0 32.667 -3.5 63.334 -10.5 92.001
s-18.167 56 -33.5 82s-37.666 46.5 -66.999 61.5s-64.333 22.5 -105 22.5z" />
    <glyph glyph-name="dcroat" unicode="&#x111;" horiz-adv-x="538" 
d="M470 700v-64.001h79v-69h-79v-393c0 -77.333 3.33301 -135.666 10 -174.999h-71l-19 68h-4c-13.333 -24 -32.833 -43.333 -58.5 -58s-55.167 -22 -88.5 -22c-131.333 0 -197 86 -197 258c0 84.667 19.833 150 59.5 196s95.5 69 167.5 69c36.667 0 69.667 -5.33301 99 -16
v73h-153v69h153v64h102zM260 73.999c58 0 94 30.667 108 92v233c-20 16 -50 24 -90 24c-86 0 -129 -59.667 -129 -179c0 -113.333 37 -170 111 -170z" />
    <glyph glyph-name="Emacron" unicode="&#x112;" horiz-adv-x="530" 
d="M74 0v700h396v-94h-289v-202h264v-94h-264v-216h294v-94h-401zM103 755v74h328v-74h-328z" />
    <glyph glyph-name="emacron" unicode="&#x113;" horiz-adv-x="508" 
d="M413 111l35.9971 -69.998c-44.667 -36 -105 -54 -181 -54s-132.667 23 -170 69s-56 110.667 -56 194c0 85.333 19.833 150.5 59.5 195.5s96.167 67.5 169.5 67.5c25.333 0 48.833 -3 70.5 -9s42 -15.833 61 -29.5s34 -33.334 45 -59.001s16.833 -56.5 17.5 -92.5
c0 -32.667 -2.33301 -63.334 -7 -92.001h-312c1.33301 -52.667 13.333 -92.5 36 -119.5s59.334 -40.5 110.001 -40.5c22.667 0 45.334 4 68.001 12s40.334 17.333 53.001 28zM270.997 429.002c-74.667 0 -115.333 -42.668 -122 -128.001h219c0 1.33301 0.166992 4 0.5 8
s0.5 7 0.5 9c0 36.667 -8.66699 64.334 -26 83.001s-41.333 28 -72 28zM102.998 574.001v76h308v-76h-308z" />
    <glyph glyph-name="Ebreve" unicode="&#x114;" horiz-adv-x="530" 
d="M74 0v700h396v-94h-289v-202h264v-94h-264v-216h294v-94h-401zM96 843l47 30c24.667 -42.667 70.667 -64 138 -64c62 0 106 21.333 132 64l44 -25c-13.333 -37.333 -36.333 -66.333 -69 -87s-68.667 -31 -108 -31c-38.667 0 -75 9.5 -109 28.5s-59 47.167 -75 84.5z" />
    <glyph glyph-name="ebreve" unicode="&#x115;" horiz-adv-x="508" 
d="M413 111l35.9971 -69.998c-44.667 -36 -105 -54 -181 -54s-132.667 23 -170 69s-56 110.667 -56 194c0 85.333 19.833 150.5 59.5 195.5s96.167 67.5 169.5 67.5c25.333 0 48.833 -3 70.5 -9s42 -15.833 61 -29.5s34 -33.334 45 -59.001s16.833 -56.5 17.5 -92.5
c0 -32.667 -2.33301 -63.334 -7 -92.001h-312c1.33301 -52.667 13.333 -92.5 36 -119.5s59.334 -40.5 110.001 -40.5c22.667 0 45.334 4 68.001 12s40.334 17.333 53.001 28zM270.997 429.002c-74.667 0 -115.333 -42.668 -122 -128.001h219c0 1.33301 0.166992 4 0.5 8
s0.5 7 0.5 9c0 36.667 -8.66699 64.334 -26 83.001s-41.333 28 -72 28zM96.998 693.001l53.002 27c25.333 -46 62.666 -69 111.999 -69s84.666 23 105.999 69l50 -22c-3.33301 -34 -20 -64 -50 -90s-65.667 -39 -107 -39c-40 0 -75 11.167 -105 33.5s-49.667 52.5 -59 90.5z
" />
    <glyph glyph-name="Edotaccent" unicode="&#x116;" horiz-adv-x="530" 
d="M74 0v700h396v-94h-289v-202h264v-94h-264v-216h294v-94h-401zM203 798c0 15.333 6.66699 28.5 20 39.5s31 16.5 53 16.5c22.667 0 40.834 -5.5 54.501 -16.5s20.5 -24.167 20.5 -39.5c0 -16.667 -6.83301 -30.334 -20.5 -41.001s-31.834 -16 -54.501 -16
s-40.5 5.33301 -53.5 16s-19.5 24.334 -19.5 41.001z" />
    <glyph glyph-name="edotaccent" unicode="&#x117;" horiz-adv-x="508" 
d="M413 111l35.9971 -69.998c-44.667 -36 -105 -54 -181 -54s-132.667 23 -170 69s-56 110.667 -56 194c0 85.333 19.833 150.5 59.5 195.5s96.167 67.5 169.5 67.5c25.333 0 48.833 -3 70.5 -9s42 -15.833 61 -29.5s34 -33.334 45 -59.001s16.833 -56.5 17.5 -92.5
c0 -32.667 -2.33301 -63.334 -7 -92.001h-312c1.33301 -52.667 13.333 -92.5 36 -119.5s59.334 -40.5 110.001 -40.5c22.667 0 45.334 4 68.001 12s40.334 17.333 53.001 28zM270.997 429.002c-74.667 0 -115.333 -42.668 -122 -128.001h219c0 1.33301 0.166992 4 0.5 8
s0.5 7 0.5 9c0 36.667 -8.66699 64.334 -26 83.001s-41.333 28 -72 28zM201.998 647.001c0 17.333 6.16699 32 18.5 44s28.5 18 48.5 18s36.667 -6 50 -18s20 -26.667 20 -44s-6.5 -31.5 -19.5 -42.5s-29.833 -16.5 -50.5 -16.5c-20 0 -36.167 5.5 -48.5 16.5
s-18.5 25.167 -18.5 42.5z" />
    <glyph glyph-name="Eogonek" unicode="&#x118;" horiz-adv-x="530" 
d="M74 0l0.000976562 700.001h396v-94h-289v-202h264v-94h-264v-216h294v-94h-32c-38.667 -18.667 -58 -45.667 -58 -81c0 -31.333 16 -47 48 -47c13.333 0 26.666 3.66699 39.999 11l15 -52c-24 -19.333 -57 -29 -99 -29c-32.667 0 -58.5 8.16699 -77.5 24.5
s-28.5 38.166 -28.5 65.499c0 47.333 27.333 83.333 82 108h-291z" />
    <glyph glyph-name="eogonek" unicode="&#x119;" horiz-adv-x="508" 
d="M413 111l35.9951 -69.9971c-16 -12.667 -33.333 -22.667 -52 -30c-45.333 -23.333 -68 -54 -68 -92c0 -13.333 4.33301 -24.5 13 -33.5s20.334 -13.5 35.001 -13.5c12.667 0 26.334 3.66699 41.001 11l14 -52c-24 -19.333 -56.667 -29 -98 -29
c-33.333 0 -59.5 8.16699 -78.5 24.5s-28.5 38.166 -28.5 65.499c0 37.333 18 69 54 95h-13c-76 0 -132.667 23 -170 69s-56 110.667 -56 194c0 85.333 19.833 150.5 59.5 195.5s96.167 67.5 169.5 67.5c25.333 0 48.833 -3 70.5 -9s42 -15.833 61 -29.5
s34 -33.334 45 -59.001s16.833 -56.5 17.5 -92.5c0 -32.667 -2.33301 -63.334 -7 -92.001h-312c1.33301 -52.667 13.333 -92.5 36 -119.5s59.334 -40.5 110.001 -40.5c22.667 0 45.334 4 68.001 12s40.334 17.333 53.001 28zM270.995 429.003
c-74.667 0 -115.333 -42.668 -122 -128.001h219c0 1.33301 0.166992 4 0.5 8s0.5 7 0.5 9c0 36.667 -8.66699 64.334 -26 83.001s-41.333 28 -72 28z" />
    <glyph glyph-name="Ecaron" unicode="&#x11a;" horiz-adv-x="530" 
d="M74 0v700h396v-94h-289v-202h264v-94h-264v-216h294v-94h-401zM434 840l-133 -98h-74l-127 99v29h92l56 -48l18 -32l20 31l60 49h88v-30z" />
    <glyph glyph-name="ecaron" unicode="&#x11b;" horiz-adv-x="508" 
d="M413 111l35.9971 -69.998c-44.667 -36 -105 -54 -181 -54s-132.667 23 -170 69s-56 110.667 -56 194c0 85.333 19.833 150.5 59.5 195.5s96.167 67.5 169.5 67.5c25.333 0 48.833 -3 70.5 -9s42 -15.833 61 -29.5s34 -33.334 45 -59.001s16.833 -56.5 17.5 -92.5
c0 -32.667 -2.33301 -63.334 -7 -92.001h-312c1.33301 -52.667 13.333 -92.5 36 -119.5s59.334 -40.5 110.001 -40.5c22.667 0 45.334 4 68.001 12s40.334 17.333 53.001 28zM270.997 429.002c-74.667 0 -115.333 -42.668 -122 -128.001h219c0 1.33301 0.166992 4 0.5 8
s0.5 7 0.5 9c0 36.667 -8.66699 64.334 -26 83.001s-41.333 28 -72 28zM412.998 732.001l-123 -182h-61l-115 182h92l39 -66l19 -54l20 54l45 66h84z" />
    <glyph glyph-name="Gcircumflex" unicode="&#x11c;" horiz-adv-x="611" 
d="M315 293l0.000976562 62.998h246v-310c-23.333 -18.667 -53.5 -33.167 -90.5 -43.5s-74.5 -15.5 -112.5 -15.5c-93.333 0 -168.333 30.333 -225 91s-85 151.334 -85 272.001c0 62.667 9.16699 118.167 27.5 166.5s43.166 86.333 74.499 114s65.333 48.334 102 62.001
s75 20.5 115 20.5c66 0 123 -8.66699 171 -26l-24 -92c-33.333 14.667 -78.666 22 -135.999 22c-62.667 0 -114.5 -21.5 -155.5 -64.5s-61.5 -110.833 -61.5 -203.5c0 -88 19.167 -154.333 57.5 -199s89.166 -67 152.499 -67c42.667 0 76.667 8.33301 102 25v167z
M186.001 772.998l133 97h76l127 -98v-29h-89l-59 46l-18 34l-20 -33l-63 -47h-87v30z" />
    <glyph glyph-name="gcircumflex" unicode="&#x11d;" horiz-adv-x="537" 
d="M469 480l0.000976562 -493.001c0 -132.667 -71 -199 -213 -199c-72.667 0 -128.334 9.66699 -167.001 29l24 83c43.333 -16.667 85.333 -25 126 -25c49.333 0 83.333 10 102 30s28 53 28 99v41h-4c-25.333 -36.667 -68.333 -55 -129 -55
c-66 0 -114.833 20.833 -146.5 62.5s-47.5 105.834 -47.5 192.501c0 86 20.833 151.667 62.5 197s102.5 68 182.5 68c67.333 0 128 -10 182 -30zM260.001 73.999c56 0 91.666 30 106.999 90v243c-23.333 10.667 -53.666 16 -90.999 16c-84.667 0 -127 -58.667 -127 -176
c0 -115.333 37 -173 111 -173zM128 549.999l123 182h56l111 -182h-86l-39 66l-19 54l-20 -54l-45 -66h-81z" />
    <glyph glyph-name="Gbreve" unicode="&#x11e;" horiz-adv-x="611" 
d="M315 293l0.000976562 62.998h246v-310c-23.333 -18.667 -53.5 -33.167 -90.5 -43.5s-74.5 -15.5 -112.5 -15.5c-93.333 0 -168.333 30.333 -225 91s-85 151.334 -85 272.001c0 62.667 9.16699 118.167 27.5 166.5s43.166 86.333 74.499 114s65.333 48.334 102 62.001
s75 20.5 115 20.5c66 0 123 -8.66699 171 -26l-24 -92c-33.333 14.667 -78.666 22 -135.999 22c-62.667 0 -114.5 -21.5 -155.5 -64.5s-61.5 -110.833 -61.5 -203.5c0 -88 19.167 -154.333 57.5 -199s89.166 -67 152.499 -67c42.667 0 76.667 8.33301 102 25v167z
M164.001 842.998l47 30c24.667 -42.667 70.667 -64 138 -64c62 0 106 21.333 132 64l44 -25c-13.333 -37.333 -36.333 -66.333 -69 -87s-68.667 -31 -108 -31c-38.667 0 -75 9.5 -109 28.5s-59 47.167 -75 84.5z" />
    <glyph glyph-name="gbreve" unicode="&#x11f;" horiz-adv-x="537" 
d="M469 480l0.000976562 -493.001c0 -132.667 -71 -199 -213 -199c-72.667 0 -128.334 9.66699 -167.001 29l24 83c43.333 -16.667 85.333 -25 126 -25c49.333 0 83.333 10 102 30s28 53 28 99v41h-4c-25.333 -36.667 -68.333 -55 -129 -55
c-66 0 -114.833 20.833 -146.5 62.5s-47.5 105.834 -47.5 192.501c0 86 20.833 151.667 62.5 197s102.5 68 182.5 68c67.333 0 128 -10 182 -30zM260.001 73.999c56 0 91.666 30 106.999 90v243c-23.333 10.667 -53.666 16 -90.999 16c-84.667 0 -127 -58.667 -127 -176
c0 -115.333 37 -173 111 -173zM107 692.999l53.002 27c25.333 -46 62.666 -69 111.999 -69s84.666 23 105.999 69l50 -22c-3.33301 -34 -20 -64 -50 -90s-65.667 -39 -107 -39c-40 0 -75 11.167 -105 33.5s-49.667 52.5 -59 90.5z" />
    <glyph glyph-name="Gdotaccent" unicode="&#x120;" horiz-adv-x="611" 
d="M315 293l0.000976562 62.998h246v-310c-23.333 -18.667 -53.5 -33.167 -90.5 -43.5s-74.5 -15.5 -112.5 -15.5c-93.333 0 -168.333 30.333 -225 91s-85 151.334 -85 272.001c0 62.667 9.16699 118.167 27.5 166.5s43.166 86.333 74.499 114s65.333 48.334 102 62.001
s75 20.5 115 20.5c66 0 123 -8.66699 171 -26l-24 -92c-33.333 14.667 -78.666 22 -135.999 22c-62.667 0 -114.5 -21.5 -155.5 -64.5s-61.5 -110.833 -61.5 -203.5c0 -88 19.167 -154.333 57.5 -199s89.166 -67 152.499 -67c42.667 0 76.667 8.33301 102 25v167z
M294.001 797.998c0 15.333 6.66699 28.5 20 39.5s31 16.5 53 16.5c22.667 0 40.834 -5.5 54.501 -16.5s20.5 -24.167 20.5 -39.5c0 -16.667 -6.83301 -30.334 -20.5 -41.001s-31.834 -16 -54.501 -16s-40.5 5.33301 -53.5 16s-19.5 24.334 -19.5 41.001z" />
    <glyph glyph-name="gdotaccent" unicode="&#x121;" horiz-adv-x="537" 
d="M469 480l0.000976562 -493.001c0 -132.667 -71 -199 -213 -199c-72.667 0 -128.334 9.66699 -167.001 29l24 83c43.333 -16.667 85.333 -25 126 -25c49.333 0 83.333 10 102 30s28 53 28 99v41h-4c-25.333 -36.667 -68.333 -55 -129 -55
c-66 0 -114.833 20.833 -146.5 62.5s-47.5 105.834 -47.5 192.501c0 86 20.833 151.667 62.5 197s102.5 68 182.5 68c67.333 0 128 -10 182 -30zM260.001 73.999c56 0 91.666 30 106.999 90v243c-23.333 10.667 -53.666 16 -90.999 16c-84.667 0 -127 -58.667 -127 -176
c0 -115.333 37 -173 111 -173zM204 646.999c0 17.333 6.16699 32 18.5 44s28.5 18 48.5 18s36.667 -6 50 -18s20 -26.667 20 -44s-6.5 -31.5 -19.5 -42.5s-29.833 -16.5 -50.5 -16.5c-20 0 -36.167 5.5 -48.5 16.5s-18.5 25.167 -18.5 42.5z" />
    <glyph glyph-name="Gcommaaccent" unicode="&#x122;" horiz-adv-x="611" 
d="M315 293l0.000976562 62.998h246v-310c-23.333 -18.667 -53.5 -33.167 -90.5 -43.5s-74.5 -15.5 -112.5 -15.5c-93.333 0 -168.333 30.333 -225 91s-85 151.334 -85 272.001c0 62.667 9.16699 118.167 27.5 166.5s43.166 86.333 74.499 114s65.333 48.334 102 62.001
s75 20.5 115 20.5c66 0 123 -8.66699 171 -26l-24 -92c-33.333 14.667 -78.666 22 -135.999 22c-62.667 0 -114.5 -21.5 -155.5 -64.5s-61.5 -110.833 -61.5 -203.5c0 -88 19.167 -154.333 57.5 -199s89.166 -67 152.499 -67c42.667 0 76.667 8.33301 102 25v167z
M287.001 -103.002c0 16 5.66504 28.999 16.998 38.999s25 15 41 15c20.667 0 37.667 -7 51 -21s20 -34 20 -60c0 -34 -9.66699 -61.667 -29 -83s-39.666 -36.333 -60.999 -45l-31 42c28.667 14.667 43.334 35.334 44.001 62.001h-6c-13.333 0 -24.333 4.5 -33 13.5
s-13 21.5 -13 37.5z" />
    <glyph glyph-name="gcommaaccent" unicode="&#x123;" horiz-adv-x="537" 
d="M469 480l0.000976562 -493.001c0 -132.667 -71 -199 -213 -199c-72.667 0 -128.334 9.66699 -167.001 29l24 83c43.333 -16.667 85.333 -25 126 -25c49.333 0 83.333 10 102 30s28 53 28 99v41h-4c-25.333 -36.667 -68.333 -55 -129 -55
c-66 0 -114.833 20.833 -146.5 62.5s-47.5 105.834 -47.5 192.501c0 86 20.833 151.667 62.5 197s102.5 68 182.5 68c67.333 0 128 -10 182 -30zM260.001 73.999c56 0 91.666 30 106.999 90v243c-23.333 10.667 -53.666 16 -90.999 16c-84.667 0 -127 -58.667 -127 -176
c0 -115.333 37 -173 111 -173zM352 610.999c0 -16 -5.66504 -28.999 -16.998 -38.999s-25 -15 -41 -15c-20.667 0 -37.667 7 -51 21s-20 34 -20 60c0 34 9.66699 61.667 29 83s39.666 36.333 60.999 45l31 -42c-28.667 -14.667 -43.334 -35.334 -44.001 -62.001h6
c13.333 0 24.333 -4.5 33 -13.5s13 -21.5 13 -37.5z" />
    <glyph glyph-name="Hcircumflex" unicode="&#x124;" horiz-adv-x="663" 
d="M482 0v308h-301v-308h-107v700h107v-296h301v296h107v-700h-107zM161 773l133 97h76l127 -98v-29h-89l-59 46l-18 34l-20 -33l-63 -47h-87v30z" />
    <glyph glyph-name="hcircumflex" unicode="&#x125;" horiz-adv-x="546" 
d="M485 0h-102.001v284c0 49.333 -6.83301 84.833 -20.5 106.5s-38.5 32.5 -74.5 32.5c-27.333 0 -52.166 -9 -74.499 -27s-36.833 -41 -43.5 -69v-327h-102v700h102v-256h4c36 46 86.333 69 151 69c56 0 96.667 -15 122 -45s38 -84 38 -162v-306zM-45.001 773l133 97h76
l127 -98v-29h-89l-59 46l-18 34l-20 -33l-63 -47h-87v30z" />
    <glyph glyph-name="Hbar" unicode="&#x126;" horiz-adv-x="680" 
d="M6 520v72h77v108h107v-108h301v108h107v-108h76v-72h-76v-520h-107v308h-301v-308h-107v520h-77zM190 404h301v116h-301v-116z" />
    <glyph glyph-name="hbar" unicode="&#x127;" horiz-adv-x="552" 
d="M-3 567l-0.000976562 69h77v64h102v-64h161v-69h-161v-123h4c36 46 86.333 69 151 69c56 0 96.667 -15 122 -45s38 -84 38 -162v-306h-102v284c0 49.333 -6.83301 84.833 -20.5 106.5s-38.5 32.5 -74.5 32.5c-27.333 0 -52.166 -9 -74.499 -27s-36.833 -41 -43.5 -69
v-327h-102v567h-77z" />
    <glyph glyph-name="Itilde" unicode="&#x128;" horiz-adv-x="287" 
d="M-3 741l-23.999 51c36.667 38 76.334 57 119.001 57c16.667 0 41 -5.5 73 -16.5s55 -16.5 69 -16.5c21.333 0 39.666 7.33301 54.999 22l25 -54c-32.667 -30 -67.667 -45 -105 -45c-18.667 0 -44.167 5.66699 -76.5 17s-54.833 17 -67.5 17
c-24.667 0 -47.334 -10.667 -68.001 -32zM90.001 0v700h107v-700h-107z" />
    <glyph glyph-name="itilde" unicode="&#x129;" horiz-adv-x="269" 
d="M4 605l-21.002 52c34.667 40 69.667 60 105 60c16.667 0 38.667 -6.66699 66 -20s48 -20 62 -20c14.667 0 30.334 8.33301 47.001 25l22 -55c-32 -36 -64 -54 -96 -54c-16 0 -37.333 6.83301 -64 20.5s-45.667 20.5 -57 20.5c-23.333 0 -44.666 -9.66699 -63.999 -29z
M82.998 0v500h102v-500h-102z" />
    <glyph glyph-name="Imacron" unicode="&#x12a;" horiz-adv-x="287" 
d="M-18 755v74h328v-74h-328zM90 0v700h107v-700h-107z" />
    <glyph glyph-name="imacron" unicode="&#x12b;" horiz-adv-x="269" 
d="M-20 574v76h308v-76h-308zM83 0v500h102v-500h-102z" />
    <glyph glyph-name="Ibreve" unicode="&#x12c;" horiz-adv-x="287" 
d="M-35 843l47 30c24.667 -42.667 70.667 -64 138 -64c62 0 106 21.333 132 64l44 -25c-13.333 -37.333 -36.333 -66.333 -69 -87s-68.667 -31 -108 -31c-38.667 0 -75 9.5 -109 28.5s-59 47.167 -75 84.5zM90 0v700h107v-700h-107z" />
    <glyph glyph-name="ibreve" unicode="&#x12d;" horiz-adv-x="269" 
d="M-26 693l53.002 27c25.333 -46 62.666 -69 111.999 -69s84.666 23 105.999 69l50 -22c-3.33301 -34 -20 -64 -50 -90s-65.667 -39 -107 -39c-40 0 -75 11.167 -105 33.5s-49.667 52.5 -59 90.5zM83.002 0v500h102v-500h-102z" />
    <glyph glyph-name="Iogonek" unicode="&#x12e;" horiz-adv-x="288" 
d="M90 0v700.001h107v-700h-14c-34.667 -20.667 -52 -47.667 -52 -81c0 -13.333 4.16699 -24.5 12.5 -33.5s19.833 -13.5 34.5 -13.5c12 0 25.667 3.33301 41 10l15 -51c-24 -19.333 -57 -29 -99 -29c-33.333 0 -59.333 8.16699 -78 24.5s-28 38.166 -28 65.499
c0 47.333 27.333 83.333 82 108h-21z" />
    <glyph glyph-name="iogonek" unicode="&#x12f;" horiz-adv-x="269" 
d="M83 0l-0.000976562 500.001h102v-500h-15c-34.667 -21.333 -52 -48.333 -52 -81c0 -13.333 4.33301 -24.5 13 -33.5s20.334 -13.5 35.001 -13.5c12 0 25.667 3.33301 41 10l14 -51c-24 -19.333 -57 -29 -99 -29c-32.667 0 -58.5 8.16699 -77.5 24.5
s-28.5 38.166 -28.5 65.499c0 47.333 27.333 83.333 82 108h-15zM64.999 647.001c0 17.333 6.16699 32 18.5 44s28.5 18 48.5 18s36.667 -6 50 -18s20 -26.667 20 -44s-6.5 -31.5 -19.5 -42.5s-29.833 -16.5 -50.5 -16.5c-20 0 -36.167 5.5 -48.5 16.5
s-18.5 25.167 -18.5 42.5z" />
    <glyph glyph-name="Idotaccent" unicode="&#x130;" horiz-adv-x="287" 
d="M90 0v700h107v-700h-107zM71 798c0 15.333 6.66699 28.5 20 39.5s31 16.5 53 16.5c22.667 0 40.834 -5.5 54.501 -16.5s20.5 -24.167 20.5 -39.5c0 -16.667 -6.83301 -30.334 -20.5 -41.001s-31.834 -16 -54.501 -16s-40.5 5.33301 -53.5 16s-19.5 24.334 -19.5 41.001z
" />
    <glyph glyph-name="dotlessi" unicode="&#x131;" horiz-adv-x="269" 
d="M83 0v500h102v-500h-102z" />
    <glyph glyph-name="Jcircumflex" unicode="&#x134;" horiz-adv-x="310" 
d="M120 196v504h107v-531c0 -55.333 -12.833 -99.166 -38.5 -131.499s-64.167 -48.5 -115.5 -48.5c-40.667 0 -74.667 6.33301 -102 19l22 89c16.667 -8 36.667 -12 60 -12c26 0 43.667 9.16699 53 27.5s14 46.166 14 83.499zM4 773l133 97h76l127 -98v-29h-89l-59 46
l-18 34l-20 -33l-63 -47h-87v30z" />
    <glyph glyph-name="jcircumflex" unicode="&#x135;" horiz-adv-x="265" 
d="M-12 550l123 182h56l111 -182h-86l-39 66l-19 54l-20 -54l-45 -66h-81zM83 9l0.000976562 491h102v-524c0 -124 -47.333 -186 -142 -186c-16 0 -31 1.33301 -45 4v86h7c31.333 0 52.166 10 62.499 30s15.5 53 15.5 99z" />
    <glyph glyph-name="Kcommaaccent" unicode="&#x136;" horiz-adv-x="615" 
d="M456 0l-233 313h-42v-313h-107v700h107v-319l39 14l217 305h122l-221 -298l-47 -35l53 -40l246 -327h-134zM227 -103c0 16 5.66504 28.999 16.998 38.999s25 15 41 15c20.667 0 37.667 -7 51 -21s20 -34 20 -60c0 -34 -9.66699 -61.667 -29 -83
s-39.666 -36.333 -60.999 -45l-31 42c28.667 14.667 43.334 35.334 44.001 62.001h-6c-13.333 0 -24.333 4.5 -33 13.5s-13 21.5 -13 37.5z" />
    <glyph glyph-name="kcommaaccent" unicode="&#x137;" horiz-adv-x="484" 
d="M358 0l-146 217h-42v-217h-102v700h102v-420l37 14l136 206h115l-138 -196l-45 -35l52 -40l153 -229h-122zM181 -103c0 16 5.66504 28.999 16.998 38.999s25 15 41 15c20.667 0 37.667 -7 51 -21s20 -34 20 -60c0 -34 -9.66699 -61.667 -29 -83
s-39.666 -36.333 -60.999 -45l-31 42c28.667 14.667 43.334 35.334 44.001 62.001h-6c-13.333 0 -24.333 4.5 -33 13.5s-13 21.5 -13 37.5z" />
    <glyph glyph-name="kgreenlandic" unicode="&#x138;" horiz-adv-x="483" 
d="M358 0l-146 217h-42v-217h-102v500h102v-220l38 14l141 206h110l-140 -196l-46 -35l54 -40l153 -229h-122z" />
    <glyph glyph-name="Lacute" unicode="&#x139;" horiz-adv-x="516" 
d="M501 96v-96h-427v700h107v-604h320zM109 752l112 118h134v-25l-162 -93h-84z" />
    <glyph glyph-name="lacute" unicode="&#x13a;" horiz-adv-x="293" 
d="M177 700l0.00195312 -557c0 -44 14 -66 42 -66c19.333 0 38.666 3.66699 57.999 11l11 -80c-26.667 -14 -61.334 -21 -104.001 -21c-72.667 0 -109 37.667 -109 113v600h102zM81.002 752l112 118h134v-25l-162 -93h-84z" />
    <glyph glyph-name="Lcommaaccent" unicode="&#x13b;" horiz-adv-x="516" 
d="M187 -103c0 16 5.66504 28.999 16.998 38.999s25 15 41 15c20.667 0 37.667 -7 51 -21s20 -34 20 -60c0 -34 -9.66699 -61.667 -29 -83s-39.666 -36.333 -60.999 -45l-31 42c28.667 14.667 43.334 35.334 44.001 62.001h-6c-13.333 0 -24.333 4.5 -33 13.5
s-13 21.5 -13 37.5zM500.998 95.999v-96h-427v700h107v-604h320z" />
    <glyph glyph-name="lcommaaccent" unicode="&#x13c;" horiz-adv-x="293" 
d="M177 700l0.00195312 -557c0 -44 14 -66 42 -66c19.333 0 38.666 3.66699 57.999 11l11 -80c-26.667 -14 -61.334 -21 -104.001 -21c-72.667 0 -109 37.667 -109 113v600h102zM107.002 -103c0 16 5.66504 28.999 16.998 38.999s25 15 41 15c20.667 0 37.667 -7 51 -21
s20 -34 20 -60c0 -34 -9.66699 -61.667 -29 -83s-39.666 -36.333 -60.999 -45l-31 42c28.667 14.667 43.334 35.334 44.001 62.001h-6c-13.333 0 -24.333 4.5 -33 13.5s-13 21.5 -13 37.5z" />
    <glyph glyph-name="Lcaron" unicode="&#x13d;" horiz-adv-x="516" 
d="M501 96v-96h-427v700h107v-604h320zM349 700l95 -0.000976562c-2 -35.333 -12.667 -73 -32 -113s-37.333 -68 -54 -84l-44 24c23.333 48.667 35 106.334 35 173.001z" />
    <glyph glyph-name="lcaron" unicode="&#x13e;" horiz-adv-x="293" 
d="M177 700l0.00195312 -557c0 -44 14 -66 42 -66c19.333 0 38.666 3.66699 57.999 11l11 -80c-26.667 -14 -61.334 -21 -104.001 -21c-72.667 0 -109 37.667 -109 113v600h102zM246.002 700l95 -0.000976562c-2 -35.333 -12.667 -73 -32 -113s-37.333 -68 -54 -84l-44 24
c23.333 48.667 35 106.334 35 173.001z" />
    <glyph glyph-name="Ldot" unicode="&#x13f;" horiz-adv-x="516" 
d="M313 396c0 18 5.83301 33.333 17.5 46s27.167 19 46.5 19s35.333 -6.5 48 -19.5s19 -28.167 19 -45.5s-6.33301 -32 -19 -44s-28.667 -18 -48 -18c-20 0 -35.667 5.83301 -47 17.5s-17 26.5 -17 44.5zM501 96v-96h-427v700h107v-604h320z" />
    <glyph glyph-name="ldot" unicode="&#x140;" horiz-adv-x="329" 
d="M228 377c0 18 5.5 33.333 16.5 46s25.833 19 44.5 19s34 -6.33301 46 -19s18 -28 18 -46c0 -17.333 -5.83301 -32 -17.5 -44s-27.167 -18 -46.5 -18c-18.667 0 -33.5 6 -44.5 18s-16.5 26.667 -16.5 44zM177 700l0.00195312 -557c0 -44 14 -66 42 -66
c19.333 0 38.666 3.66699 57.999 11l11 -80c-26.667 -14 -61.334 -21 -104.001 -21c-72.667 0 -109 37.667 -109 113v600h102z" />
    <glyph glyph-name="Lslash" unicode="&#x141;" horiz-adv-x="522" 
d="M11 205v96l69 50v349h107v-271l104 76v-100l-104 -74v-235h320v-96h-427v254z" />
    <glyph glyph-name="lslash" unicode="&#x142;" horiz-adv-x="302" 
d="M11 199l0.00195312 96l77 56v349h102v-275l101 74v-100l-101 -72v-184c0 -44 14 -66 42 -66c19.333 0 38.666 3.66699 57.999 11l11 -80c-26.667 -14 -61.334 -21 -104.001 -21c-72.667 0 -109 37.667 -109 113v154z" />
    <glyph glyph-name="Nacute" unicode="&#x143;" horiz-adv-x="666" 
d="M523 -8l-302 425l-55 104h-4l14 -104v-417h-102v708h69l304 -425l52 -101h5l-14 101v417h102v-708h-69zM277 752l112 118h134v-25l-162 -93h-84z" />
    <glyph glyph-name="nacute" unicode="&#x144;" horiz-adv-x="546" 
d="M485 0l-102 -0.000976562v284c0 48 -7 83.167 -21 105.5s-38 33.5 -72 33.5c-29.333 0 -54.666 -8.16699 -75.999 -24.5s-36 -37.833 -44 -64.5v-334h-102v500h77l15 -63h4c37.333 50.667 90.666 76 159.999 76c55.333 0 96 -15.167 122 -45.5s39 -84.166 39 -161.499
v-306zM233 568.999l56 151h109v-25l-106 -126h-59z" />
    <glyph glyph-name="Ncommaaccent" unicode="&#x145;" horiz-adv-x="666" 
d="M523 -8l-302 425l-55 104h-4l14 -104v-417h-102v708h69l304 -425l52 -101h5l-14 101v417h102v-708h-69zM268 -103c0 16 5.66504 28.999 16.998 38.999s25 15 41 15c20.667 0 37.667 -7 51 -21s20 -34 20 -60c0 -34 -9.66699 -61.667 -29 -83s-39.666 -36.333 -60.999 -45
l-31 42c28.667 14.667 43.334 35.334 44.001 62.001h-6c-13.333 0 -24.333 4.5 -33 13.5s-13 21.5 -13 37.5z" />
    <glyph glyph-name="ncommaaccent" unicode="&#x146;" horiz-adv-x="546" 
d="M485 0l-102 -0.000976562v284c0 48 -7 83.167 -21 105.5s-38 33.5 -72 33.5c-29.333 0 -54.666 -8.16699 -75.999 -24.5s-36 -37.833 -44 -64.5v-334h-102v500h77l15 -63h4c37.333 50.667 90.666 76 159.999 76c55.333 0 96 -15.167 122 -45.5s39 -84.166 39 -161.499
v-306zM208 -103.001c0 16 5.66504 28.999 16.998 38.999s25 15 41 15c20.667 0 37.667 -7 51 -21s20 -34 20 -60c0 -34 -9.66699 -61.667 -29 -83s-39.666 -36.333 -60.999 -45l-31 42c28.667 14.667 43.334 35.334 44.001 62.001h-6c-13.333 0 -24.333 4.5 -33 13.5
s-13 21.5 -13 37.5z" />
    <glyph glyph-name="Ncaron" unicode="&#x147;" horiz-adv-x="666" 
d="M523 -8l-302 425l-55 104h-4l14 -104v-417h-102v708h69l304 -425l52 -101h5l-14 101v417h102v-708h-69zM503 840l-133 -98h-74l-127 99v29h92l56 -48l18 -32l20 31l60 49h88v-30z" />
    <glyph glyph-name="ncaron" unicode="&#x148;" horiz-adv-x="546" 
d="M485 0l-102 -0.000976562v284c0 48 -7 83.167 -21 105.5s-38 33.5 -72 33.5c-29.333 0 -54.666 -8.16699 -75.999 -24.5s-36 -37.833 -44 -64.5v-334h-102v500h77l15 -63h4c37.333 50.667 90.666 76 159.999 76c55.333 0 96 -15.167 122 -45.5s39 -84.166 39 -161.499
v-306zM425 731.999l-123 -182h-61l-115 182h92l39 -66l19 -54l20 54l45 66h84z" />
    <glyph glyph-name="napostrophe" unicode="&#x149;" horiz-adv-x="588" 
d="M520 0l-102 -0.000976562v284c0 48 -7 83.167 -21 105.5s-38 33.5 -72 33.5c-29.333 0 -54.666 -8.16699 -75.999 -24.5s-36 -37.833 -44 -64.5v-334h-102v500h77l15 -63h4c37.333 50.667 90.666 76 159.999 76c55.333 0 96 -15.167 122 -45.5s39 -84.166 39 -161.499
v-306zM-38 651.999c0 16.667 5.49902 30.168 16.499 40.501s25.5 15.5 43.5 15.5c20.667 0 37.334 -6.83301 50.001 -20.5s19 -32.5 19 -56.5c0 -42 -10.333 -74.833 -31 -98.5s-43 -39.834 -67 -48.501l-28 43c33.333 16.667 50 40 50 70h-7c-13.333 0 -24.333 5 -33 15
s-13 23.333 -13 40z" />
    <glyph glyph-name="Eng" unicode="&#x14a;" horiz-adv-x="666" 
d="M491 0l0.000976562 36.999l-270 380l-55 104h-4l14 -104v-417h-102v708h69l304 -425l52 -101h5l-14 101v417h102v-724c0 -124 -47 -186 -141 -186c-16 0 -31 1.33301 -45 4v86h7c31.333 0 52.166 9.33301 62.499 28s15.5 49.334 15.5 92.001z" />
    <glyph glyph-name="eng" unicode="&#x14b;" horiz-adv-x="544" 
d="M383 0l0.000976562 284c0 48 -7 83.167 -21 105.5s-38 33.5 -72 33.5c-29.333 0 -54.666 -8.16699 -75.999 -24.5s-36 -37.833 -44 -64.5v-334h-102v500h77l15 -63h4c37.333 50.667 90.666 76 159.999 76c55.333 0 96 -15.167 122 -45.5s39 -84.166 39 -161.499v-330
c0 -124 -47.333 -186 -142 -186c-16 0 -31 1.33301 -45 4v86h7c31.333 0 52.166 9.16699 62.499 27.5s15.5 49.166 15.5 92.499z" />
    <glyph glyph-name="Omacron" unicode="&#x14c;" horiz-adv-x="678" 
d="M48 350c0 116 25.167 205.5 75.5 268.5s121.833 94.5 214.5 94.5c96.667 0 169.5 -32.333 218.5 -97s73.5 -153.334 73.5 -266.001c0 -116 -25.5 -205.5 -76.5 -268.5s-122.833 -94.5 -215.5 -94.5c-96 0 -168.333 32.333 -217 97s-73 153.334 -73 266.001zM161 350
c0 -78.667 14.832 -143.167 44.499 -193.5s73.834 -75.5 132.501 -75.5c57.333 0 101.5 22.167 132.5 66.5s46.5 111.833 46.5 202.5c0 78.667 -14.833 143.167 -44.5 193.5s-74.5 75.5 -134.5 75.5c-56 0 -99.5 -22.5 -130.5 -67.5s-46.5 -112.167 -46.5 -201.5z
M179.999 755v74h328v-74h-328z" />
    <glyph glyph-name="omacron" unicode="&#x14d;" horiz-adv-x="537" 
d="M42 250c0 84 19.667 148.833 59 194.5s95 68.5 167 68.5c74.667 0 131.167 -23.5 169.5 -70.5s57.5 -111.167 57.5 -192.5c0 -84 -19.833 -148.833 -59.5 -194.5s-95.5 -68.5 -167.5 -68.5c-74.667 0 -131 23.333 -169 70s-57 111 -57 193zM149 250
c0 -52 9.66602 -94.333 28.999 -127s49.333 -49 90 -49c80 0 120 58.667 120 176c0 53.333 -9.66699 96 -29 128s-49.666 48 -90.999 48c-79.333 0 -119 -58.667 -119 -176zM113.999 574v76h308v-76h-308z" />
    <glyph glyph-name="Obreve" unicode="&#x14e;" horiz-adv-x="678" 
d="M48 350c0 116 25.167 205.5 75.5 268.5s121.833 94.5 214.5 94.5c96.667 0 169.5 -32.333 218.5 -97s73.5 -153.334 73.5 -266.001c0 -116 -25.5 -205.5 -76.5 -268.5s-122.833 -94.5 -215.5 -94.5c-96 0 -168.333 32.333 -217 97s-73 153.334 -73 266.001zM161 350
c0 -78.667 14.832 -143.167 44.499 -193.5s73.834 -75.5 132.501 -75.5c57.333 0 101.5 22.167 132.5 66.5s46.5 111.833 46.5 202.5c0 78.667 -14.833 143.167 -44.5 193.5s-74.5 75.5 -134.5 75.5c-56 0 -99.5 -22.5 -130.5 -67.5s-46.5 -112.167 -46.5 -201.5z
M157.999 843l47 30c24.667 -42.667 70.667 -64 138 -64c62 0 106 21.333 132 64l44 -25c-13.333 -37.333 -36.333 -66.333 -69 -87s-68.667 -31 -108 -31c-38.667 0 -75 9.5 -109 28.5s-59 47.167 -75 84.5z" />
    <glyph glyph-name="obreve" unicode="&#x14f;" horiz-adv-x="537" 
d="M42 250c0 84 19.667 148.833 59 194.5s95 68.5 167 68.5c74.667 0 131.167 -23.5 169.5 -70.5s57.5 -111.167 57.5 -192.5c0 -84 -19.833 -148.833 -59.5 -194.5s-95.5 -68.5 -167.5 -68.5c-74.667 0 -131 23.333 -169 70s-57 111 -57 193zM149 250
c0 -52 9.66602 -94.333 28.999 -127s49.333 -49 90 -49c80 0 120 58.667 120 176c0 53.333 -9.66699 96 -29 128s-49.666 48 -90.999 48c-79.333 0 -119 -58.667 -119 -176zM107.999 693l53.002 27c25.333 -46 62.666 -69 111.999 -69s84.666 23 105.999 69l50 -22
c-3.33301 -34 -20 -64 -50 -90s-65.667 -39 -107 -39c-40 0 -75 11.167 -105 33.5s-49.667 52.5 -59 90.5z" />
    <glyph glyph-name="Ohungarumlaut" unicode="&#x150;" horiz-adv-x="678" 
d="M48 350c0 116 25.167 205.5 75.5 268.5s121.833 94.5 214.5 94.5c96.667 0 169.5 -32.333 218.5 -97s73.5 -153.334 73.5 -266.001c0 -116 -25.5 -205.5 -76.5 -268.5s-122.833 -94.5 -215.5 -94.5c-96 0 -168.333 32.333 -217 97s-73 153.334 -73 266.001zM161 350
c0 -78.667 14.832 -143.167 44.499 -193.5s73.834 -75.5 132.501 -75.5c57.333 0 101.5 22.167 132.5 66.5s46.5 111.833 46.5 202.5c0 78.667 -14.833 143.167 -44.5 193.5s-74.5 75.5 -134.5 75.5c-56 0 -99.5 -22.5 -130.5 -67.5s-46.5 -112.167 -46.5 -201.5z
M218.999 741l62 109h111v-16l-100 -93h-73zM358.999 741l100 109h117v-16l-143 -93h-74z" />
    <glyph glyph-name="ohungarumlaut" unicode="&#x151;" horiz-adv-x="537" 
d="M42 250c0 84 19.667 148.833 59 194.5s95 68.5 167 68.5c74.667 0 131.167 -23.5 169.5 -70.5s57.5 -111.167 57.5 -192.5c0 -84 -19.833 -148.833 -59.5 -194.5s-95.5 -68.5 -167.5 -68.5c-74.667 0 -131 23.333 -169 70s-57 111 -57 193zM149 250
c0 -52 9.66602 -94.333 28.999 -127s49.333 -49 90 -49c80 0 120 58.667 120 176c0 53.333 -9.66699 96 -29 128s-49.666 48 -90.999 48c-79.333 0 -119 -58.667 -119 -176zM161.999 571l35 129h96v-16l-73 -113h-58zM283.999 571l73 129h104v-16l-116 -113h-61z" />
    <glyph glyph-name="OE" unicode="&#x152;" horiz-adv-x="925" 
d="M468 99v496c-34 16 -77.333 24 -130 24c-56 0 -99.5 -22.5 -130.5 -67.5s-46.5 -112.167 -46.5 -201.5c0 -79.333 15.333 -144 46 -194s77 -75 139 -75c46 0 86.667 6 122 18zM468 0c-31.333 -8.66699 -74.667 -13.001 -130 -13.001c-96 0 -168.333 32.333 -217 97
s-73 153.334 -73 266.001c0 116 25.167 205.5 75.5 268.5s121.833 94.5 214.5 94.5c42 0 85.333 -4.33301 130 -13h397v-94h-290v-202h265v-94h-265v-216h295v-94h-402z" />
    <glyph glyph-name="oe" unicode="&#x153;" horiz-adv-x="859" 
d="M149 250c0 -52 9.66699 -94.333 29 -127s49.333 -49 90 -49c80.667 0 121 58.667 121 176c0 52.667 -9.83301 95.167 -29.5 127.5s-50.167 48.5 -91.5 48.5c-79.333 0 -119 -58.667 -119 -176zM437 72c-37.333 -56.667 -93.667 -84.999 -169 -84.999
c-74.667 0 -131 23.333 -169 70s-57 111 -57 193c0 84 19.667 148.833 59 194.5s95 68.5 167 68.5c74.667 0 132.334 -27.667 173.001 -83c39.333 55.333 96.666 83 171.999 83c26 0 49.833 -3 71.5 -9s42.167 -15.833 61.5 -29.5s34.5 -33.334 45.5 -59.001
s16.5 -56.167 16.5 -91.5c0 -28.667 -2.66699 -59.667 -8 -93h-312c1.33301 -53.333 13.5 -93.333 36.5 -120s59.5 -40 109.5 -40c23.333 0 46.333 4 69 12s40 17.333 52 28l36 -70c-44.667 -36 -104.667 -54 -180 -54c-78 0 -136 28.333 -174 85zM612.999 429.001
c-73.333 0 -114 -42.667 -122 -128h220v12c0 77.333 -32.667 116 -98 116z" />
    <glyph glyph-name="Racute" unicode="&#x154;" horiz-adv-x="598" 
d="M74 0l-0.000976562 693c58.667 10.667 121.334 16 188.001 16c45.333 0 85.5 -5.66699 120.5 -17s64.5 -32.166 88.5 -62.499s36 -68.833 36 -115.5c0 -54 -14 -98.833 -42 -134.5s-65.333 -59.834 -112 -72.501l48 -35l168 -272h-124l-178 290l-86 14v-304h-107z
M266.999 615c-44 0 -72.668 -2 -86.001 -6v-234h69c44.667 0 79.834 10.667 105.501 32s38.5 53.333 38.5 96c0 33.333 -11.333 60.333 -34 81s-53.667 31 -93 31zM195.998 752l112 118h134v-25l-162 -93h-84z" />
    <glyph glyph-name="racute" unicode="&#x155;" horiz-adv-x="345" 
d="M339 500l-17 -96c-19.333 6.66699 -38 10 -56 10c-25.333 0 -46.333 -7 -63 -21s-27.667 -32.333 -33 -55v-338h-102v500h76l15 -63h4c24.667 48.667 62.667 73 114 73c19.333 0 40 -3.33301 62 -10zM128 569l56 151h109v-25l-106 -126h-59z" />
    <glyph glyph-name="Rcommaaccent" unicode="&#x156;" horiz-adv-x="598" 
d="M74 0l-0.000976562 693c58.667 10.667 121.334 16 188.001 16c45.333 0 85.5 -5.66699 120.5 -17s64.5 -32.166 88.5 -62.499s36 -68.833 36 -115.5c0 -54 -14 -98.833 -42 -134.5s-65.333 -59.834 -112 -72.501l48 -35l168 -272h-124l-178 290l-86 14v-304h-107z
M266.999 615c-44 0 -72.668 -2 -86.001 -6v-234h69c44.667 0 79.834 10.667 105.501 32s38.5 53.333 38.5 96c0 33.333 -11.333 60.333 -34 81s-53.667 31 -93 31zM233.998 -103c0 16 5.66504 28.999 16.998 38.999s25 15 41 15c20.667 0 37.667 -7 51 -21s20 -34 20 -60
c0 -34 -9.66699 -61.667 -29 -83s-39.666 -36.333 -60.999 -45l-31 42c28.667 14.667 43.334 35.334 44.001 62.001h-6c-13.333 0 -24.333 4.5 -33 13.5s-13 21.5 -13 37.5z" />
    <glyph glyph-name="rcommaaccent" unicode="&#x157;" horiz-adv-x="345" 
d="M339 500l-17 -96c-19.333 6.66699 -38 10 -56 10c-25.333 0 -46.333 -7 -63 -21s-27.667 -32.333 -33 -55v-338h-102v500h76l15 -63h4c24.667 48.667 62.667 73 114 73c19.333 0 40 -3.33301 62 -10zM85 -103c0 16 5.66504 28.999 16.998 38.999s25 15 41 15
c20.667 0 37.667 -7 51 -21s20 -34 20 -60c0 -34 -9.66699 -61.667 -29 -83s-39.666 -36.333 -60.999 -45l-31 42c28.667 14.667 43.334 35.334 44.001 62.001h-6c-13.333 0 -24.333 4.5 -33 13.5s-13 21.5 -13 37.5z" />
    <glyph glyph-name="Rcaron" unicode="&#x158;" horiz-adv-x="598" 
d="M74 0l-0.000976562 693c58.667 10.667 121.334 16 188.001 16c45.333 0 85.5 -5.66699 120.5 -17s64.5 -32.166 88.5 -62.499s36 -68.833 36 -115.5c0 -54 -14 -98.833 -42 -134.5s-65.333 -59.834 -112 -72.501l48 -35l168 -272h-124l-178 290l-86 14v-304h-107z
M266.999 615c-44 0 -72.668 -2 -86.001 -6v-234h69c44.667 0 79.834 10.667 105.501 32s38.5 53.333 38.5 96c0 33.333 -11.333 60.333 -34 81s-53.667 31 -93 31zM421.998 840l-133 -98h-74l-127 99v29h92l56 -48l18 -32l20 31l60 49h88v-30z" />
    <glyph glyph-name="rcaron" unicode="&#x159;" horiz-adv-x="345" 
d="M339 500l-17 -96c-19.333 6.66699 -38 10 -56 10c-25.333 0 -46.333 -7 -63 -21s-27.667 -32.333 -33 -55v-338h-102v500h76l15 -63h4c24.667 48.667 62.667 73 114 73c19.333 0 40 -3.33301 62 -10zM343 732l-123 -182h-61l-115 182h92l39 -66l19 -54l20 54l45 66h84z
" />
    <glyph glyph-name="Sacute" unicode="&#x15a;" horiz-adv-x="530" 
d="M382 182c0 27.333 -11.333 50.666 -34 69.999s-50 35.833 -82 49.5s-64 28.5 -96 44.5s-59.333 39.167 -82 69.5s-34 66.833 -34 109.5c0 60 20.167 106.333 60.5 139s95.833 49 166.5 49c83.333 0 148.333 -12 195 -36l-33 -91c-38.667 22 -93.334 33 -164.001 33
c-37.333 0 -66 -8 -86 -24s-30 -36.667 -30 -62c0 -21.333 8.16699 -40.666 24.5 -57.999s36.5 -31.5 60.5 -42.5s50.333 -23.833 79 -38.5s55 -29.667 79 -45s44.167 -36.5 60.5 -63.5s24.5 -57.833 24.5 -92.5c0 -65.333 -22 -116 -66 -152s-104 -54 -180 -54
c-89.333 0 -158.666 13 -207.999 39l35 93c46 -25.333 102 -38 168 -38c44 0 78.667 8.5 104 25.5s38 42.167 38 75.5zM215 752l112 118h134v-25l-162 -93h-84z" />
    <glyph glyph-name="sacute" unicode="&#x15b;" horiz-adv-x="422" 
d="M282 137c0 18.667 -8.00195 34.001 -24.002 46.001s-35.667 21.833 -59 29.5s-46.5 16.667 -69.5 27s-42.5 26.166 -58.5 47.499s-24 48.333 -24 81c0 47.333 14 83.333 42 108s68 37 120 37c62.667 0 117.334 -11.667 164.001 -35l-24 -78
c-42.667 19.333 -85 29 -127 29c-48.667 0 -73 -19.333 -73 -58c0 -16 8 -29.5 24 -40.5s35.5 -20.5 58.5 -28.5s46.167 -17.167 69.5 -27.5s43 -26.5 59 -48.5s24 -49.333 24 -82c0 -48 -15.667 -86.167 -47 -114.5s-76.333 -42.5 -135 -42.5
c-66.667 0 -123 13.667 -169 41l29 80c44.667 -24.667 90.334 -37 137.001 -37c55.333 0 83 22 83 66zM166.998 569.001l56 151h109v-25l-106 -126h-59z" />
    <glyph glyph-name="Scircumflex" unicode="&#x15c;" horiz-adv-x="530" 
d="M382 182c0 27.333 -11.333 50.666 -34 69.999s-50 35.833 -82 49.5s-64 28.5 -96 44.5s-59.333 39.167 -82 69.5s-34 66.833 -34 109.5c0 60 20.167 106.333 60.5 139s95.833 49 166.5 49c83.333 0 148.333 -12 195 -36l-33 -91c-38.667 22 -93.334 33 -164.001 33
c-37.333 0 -66 -8 -86 -24s-30 -36.667 -30 -62c0 -21.333 8.16699 -40.666 24.5 -57.999s36.5 -31.5 60.5 -42.5s50.333 -23.833 79 -38.5s55 -29.667 79 -45s44.167 -36.5 60.5 -63.5s24.5 -57.833 24.5 -92.5c0 -65.333 -22 -116 -66 -152s-104 -54 -180 -54
c-89.333 0 -158.666 13 -207.999 39l35 93c46 -25.333 102 -38 168 -38c44 0 78.667 8.5 104 25.5s38 42.167 38 75.5zM110 773l133 97h76l127 -98v-29h-89l-59 46l-18 34l-20 -33l-63 -47h-87v30z" />
    <glyph glyph-name="scircumflex" unicode="&#x15d;" horiz-adv-x="422" 
d="M282 137c0 18.667 -8.00195 34.001 -24.002 46.001s-35.667 21.833 -59 29.5s-46.5 16.667 -69.5 27s-42.5 26.166 -58.5 47.499s-24 48.333 -24 81c0 47.333 14 83.333 42 108s68 37 120 37c62.667 0 117.334 -11.667 164.001 -35l-24 -78
c-42.667 19.333 -85 29 -127 29c-48.667 0 -73 -19.333 -73 -58c0 -16 8 -29.5 24 -40.5s35.5 -20.5 58.5 -28.5s46.167 -17.167 69.5 -27.5s43 -26.5 59 -48.5s24 -49.333 24 -82c0 -48 -15.667 -86.167 -47 -114.5s-76.333 -42.5 -135 -42.5
c-66.667 0 -123 13.667 -169 41l29 80c44.667 -24.667 90.334 -37 137.001 -37c55.333 0 83 22 83 66zM66.998 550.001l123 182h56l111 -182h-86l-39 66l-19 54l-20 -54l-45 -66h-81z" />
    <glyph glyph-name="Scedilla" unicode="&#x15e;" horiz-adv-x="530" 
d="M382 182c0 27.333 -11.332 50.667 -33.999 70s-50 35.833 -82 49.5s-64 28.5 -96 44.5s-59.333 39.167 -82 69.5s-34 66.833 -34 109.5c0 60 20.167 106.333 60.5 139s95.833 49 166.5 49c83.333 0 148.333 -12 195 -36l-33 -91c-38.667 22 -93.334 33 -164.001 33
c-37.333 0 -66 -8 -86 -24s-30 -36.667 -30 -62c0 -21.333 8.16699 -40.666 24.5 -57.999s36.5 -31.5 60.5 -42.5s50.333 -23.833 79 -38.5s55 -29.667 79 -45s44.167 -36.5 60.5 -63.5s24.5 -57.833 24.5 -92.5c0 -56.667 -16.5 -102.334 -49.5 -137.001
s-79.167 -56.334 -138.5 -65.001l-19 -34c55.333 -8 83 -33 83 -75c0 -28 -11.833 -50.167 -35.5 -66.5s-55.167 -24.5 -94.5 -24.5c-21.333 0 -40.333 1.66699 -57 5l9 43c4.66699 -0.666992 13 -1 25 -1c39.333 0 59 11.667 59 35c0 18.667 -28.667 30.334 -86 35.001
l44 79c-83.333 2 -148 15 -194 39l35 93c46 -25.333 102 -38 168 -38c44 0 78.667 8.5 104 25.5s38 42.167 38 75.5z" />
    <glyph glyph-name="Scedilla" unicode="&#xf6c1;" horiz-adv-x="530" 
d="M382 182c0 27.333 -11.332 50.667 -33.999 70s-50 35.833 -82 49.5s-64 28.5 -96 44.5s-59.333 39.167 -82 69.5s-34 66.833 -34 109.5c0 60 20.167 106.333 60.5 139s95.833 49 166.5 49c83.333 0 148.333 -12 195 -36l-33 -91c-38.667 22 -93.334 33 -164.001 33
c-37.333 0 -66 -8 -86 -24s-30 -36.667 -30 -62c0 -21.333 8.16699 -40.666 24.5 -57.999s36.5 -31.5 60.5 -42.5s50.333 -23.833 79 -38.5s55 -29.667 79 -45s44.167 -36.5 60.5 -63.5s24.5 -57.833 24.5 -92.5c0 -56.667 -16.5 -102.334 -49.5 -137.001
s-79.167 -56.334 -138.5 -65.001l-19 -34c55.333 -8 83 -33 83 -75c0 -28 -11.833 -50.167 -35.5 -66.5s-55.167 -24.5 -94.5 -24.5c-21.333 0 -40.333 1.66699 -57 5l9 43c4.66699 -0.666992 13 -1 25 -1c39.333 0 59 11.667 59 35c0 18.667 -28.667 30.334 -86 35.001
l44 79c-83.333 2 -148 15 -194 39l35 93c46 -25.333 102 -38 168 -38c44 0 78.667 8.5 104 25.5s38 42.167 38 75.5z" />
    <glyph glyph-name="scedilla" unicode="&#x15f;" horiz-adv-x="422" 
d="M282 137c0 18.667 -8.00195 34 -24.002 46s-35.667 21.833 -59 29.5s-46.5 16.667 -69.5 27s-42.5 26.166 -58.5 47.499s-24 48.333 -24 81c0 47.333 14 83.333 42 108s68 37 120 37c62.667 0 117.334 -11.667 164.001 -35l-24 -78c-42.667 19.333 -85 29 -127 29
c-48.667 0 -73 -19.333 -73 -58c0 -16 8 -29.5 24 -40.5s35.5 -20.5 58.5 -28.5s46.167 -17.167 69.5 -27.5s43 -26.5 59 -48.5s24 -49.333 24 -82c0 -42 -12 -76.667 -36 -104s-58.667 -44.333 -104 -51l-18 -32c55.333 -8 83 -33 83 -75
c0 -28 -11.833 -50.167 -35.5 -66.5s-55.167 -24.5 -94.5 -24.5c-21.333 0 -40.333 1.66699 -57 5l9 43c4.66699 -0.666992 13 -1 25 -1c39.333 0 59 11.667 59 35c0 18.667 -28.667 30.334 -86 35.001l45 79c-54 3.33301 -101 17 -141 41l29 80
c44.667 -24.667 90.334 -37 137.001 -37c55.333 0 83 22 83 66z" />
    <glyph glyph-name="scedilla" unicode="&#xf6c2;" horiz-adv-x="422" 
d="M282 137c0 18.667 -8.00195 34 -24.002 46s-35.667 21.833 -59 29.5s-46.5 16.667 -69.5 27s-42.5 26.166 -58.5 47.499s-24 48.333 -24 81c0 47.333 14 83.333 42 108s68 37 120 37c62.667 0 117.334 -11.667 164.001 -35l-24 -78c-42.667 19.333 -85 29 -127 29
c-48.667 0 -73 -19.333 -73 -58c0 -16 8 -29.5 24 -40.5s35.5 -20.5 58.5 -28.5s46.167 -17.167 69.5 -27.5s43 -26.5 59 -48.5s24 -49.333 24 -82c0 -42 -12 -76.667 -36 -104s-58.667 -44.333 -104 -51l-18 -32c55.333 -8 83 -33 83 -75
c0 -28 -11.833 -50.167 -35.5 -66.5s-55.167 -24.5 -94.5 -24.5c-21.333 0 -40.333 1.66699 -57 5l9 43c4.66699 -0.666992 13 -1 25 -1c39.333 0 59 11.667 59 35c0 18.667 -28.667 30.334 -86 35.001l45 79c-54 3.33301 -101 17 -141 41l29 80
c44.667 -24.667 90.334 -37 137.001 -37c55.333 0 83 22 83 66z" />
    <glyph glyph-name="Scaron" unicode="&#x160;" horiz-adv-x="530" 
d="M382 182c0 27.333 -11.333 50.666 -34 69.999s-50 35.833 -82 49.5s-64 28.5 -96 44.5s-59.333 39.167 -82 69.5s-34 66.833 -34 109.5c0 60 20.167 106.333 60.5 139s95.833 49 166.5 49c83.333 0 148.333 -12 195 -36l-33 -91c-38.667 22 -93.334 33 -164.001 33
c-37.333 0 -66 -8 -86 -24s-30 -36.667 -30 -62c0 -21.333 8.16699 -40.666 24.5 -57.999s36.5 -31.5 60.5 -42.5s50.333 -23.833 79 -38.5s55 -29.667 79 -45s44.167 -36.5 60.5 -63.5s24.5 -57.833 24.5 -92.5c0 -65.333 -22 -116 -66 -152s-104 -54 -180 -54
c-89.333 0 -158.666 13 -207.999 39l35 93c46 -25.333 102 -38 168 -38c44 0 78.667 8.5 104 25.5s38 42.167 38 75.5zM458 840l-133 -98h-74l-127 99v29h92l56 -48l18 -32l20 31l60 49h88v-30z" />
    <glyph glyph-name="scaron" unicode="&#x161;" horiz-adv-x="422" 
d="M282 137c0 18.667 -8.00195 34.001 -24.002 46.001s-35.667 21.833 -59 29.5s-46.5 16.667 -69.5 27s-42.5 26.166 -58.5 47.499s-24 48.333 -24 81c0 47.333 14 83.333 42 108s68 37 120 37c62.667 0 117.334 -11.667 164.001 -35l-24 -78
c-42.667 19.333 -85 29 -127 29c-48.667 0 -73 -19.333 -73 -58c0 -16 8 -29.5 24 -40.5s35.5 -20.5 58.5 -28.5s46.167 -17.167 69.5 -27.5s43 -26.5 59 -48.5s24 -49.333 24 -82c0 -48 -15.667 -86.167 -47 -114.5s-76.333 -42.5 -135 -42.5
c-66.667 0 -123 13.667 -169 41l29 80c44.667 -24.667 90.334 -37 137.001 -37c55.333 0 83 22 83 66zM359.998 732.001l-123 -182h-61l-115 182h92l39 -66l19 -54l20 54l45 66h84z" />
    <glyph glyph-name="Tcedilla" unicode="&#x162;" horiz-adv-x="561" 
d="M546 700v-96.001h-212v-604h-19l-24 -43c55.333 -8 83 -33 83 -75c0 -28 -11.833 -50.167 -35.5 -66.5s-55.167 -24.5 -94.5 -24.5c-21.333 0 -40.333 1.66699 -57 5l9 43c4.66699 -0.666992 13 -1 25 -1c39.333 0 59 11.667 59 35c0 18.667 -28.667 30.334 -86 35.001
l52 92h-19v604h-212v96h531z" />
    <glyph glyph-name="tcedilla" unicode="&#x163;" horiz-adv-x="344" 
d="M8 413v87h74v97l102 29v-126h130v-87h-130v-240c0 -34.667 4 -59.334 12 -74.001s22 -22 42 -22c22 0 47.667 6 77 18l20 -78c-28.667 -14 -63 -23 -103 -27l-17 -33c55.333 -8 83 -33 83 -75c0 -28 -11.833 -50.167 -35.5 -66.5s-55.167 -24.5 -94.5 -24.5
c-21.333 0 -40.333 1.66699 -57 5l9 43c4.66699 -0.666992 13 -1 25 -1c39.333 0 59 11.667 59 35c0 18.667 -28.667 30.334 -86 35.001l46 84c-54.667 11.333 -82 60 -82 146v275h-74z" />
    <glyph glyph-name="Tcaron" unicode="&#x164;" horiz-adv-x="561" 
d="M546 700v-96h-212v-604h-107v604h-212v96h531zM447 840l-133 -98h-74l-127 99v29h92l56 -48l18 -32l20 31l60 49h88v-30z" />
    <glyph glyph-name="tcaron" unicode="&#x165;" horiz-adv-x="344" 
d="M8 413v87.001h74v97l102 29v-126h130v-87h-130v-240c0 -34.667 4 -59.334 12 -74.001s22 -22 42 -22c22 0 47.667 6 77 18l20 -78c-42.667 -20 -86.667 -30 -132 -30c-42.667 0 -73.5 11.833 -92.5 35.5s-28.5 62.167 -28.5 115.5v275h-74zM244 718.001l95 -0.000976562
c-2 -35.333 -12.667 -73 -32 -113s-37.333 -68 -54 -84l-44 24c23.333 48.667 35 106.334 35 173.001z" />
    <glyph glyph-name="Tbar" unicode="&#x166;" horiz-adv-x="596" 
d="M564 700v-96h-212v-200h210v-94h-210v-310h-107v310h-211v94h211v200h-212v96h531z" />
    <glyph glyph-name="tbar" unicode="&#x167;" horiz-adv-x="378" 
d="M31 422v77.999h74v97l102 29v-126h130v-78h-130v-122h130v-77h-130v-47c0 -35.333 4 -60.666 12 -75.999s22 -23 42 -23c22 0 47.667 6 77 18l20 -78c-42.667 -20 -86.667 -30 -132 -30c-42.667 0 -73.5 11.833 -92.5 35.5s-28.5 62.167 -28.5 115.5v85h-74v77h74v122
h-74z" />
    <glyph glyph-name="Utilde" unicode="&#x168;" horiz-adv-x="640" 
d="M466 257v443h102v-460c0 -84.667 -21.167 -147.5 -63.5 -188.5s-100.833 -61.5 -175.5 -61.5c-171.333 0 -257 77.667 -257 233v477h107v-443c0 -62.667 12 -106.834 36 -132.501s62 -38.5 114 -38.5c48 0 82.833 13.333 104.5 40s32.5 70.334 32.5 131.001zM175 741
l-23.999 51c36.667 38 76.334 57 119.001 57c16.667 0 41 -5.5 73 -16.5s55 -16.5 69 -16.5c21.333 0 39.666 7.33301 54.999 22l25 -54c-32.667 -30 -67.667 -45 -105 -45c-18.667 0 -44.167 5.66699 -76.5 17s-54.833 17 -67.5 17c-24.667 0 -47.334 -10.667 -68.001 -32z
" />
    </font>
</defs>
</svg>
