<?xml version="1.0" encoding="UTF-8" standalone="no"?>
<svg
   xmlns:dc="http://purl.org/dc/elements/1.1/"
   xmlns:cc="http://creativecommons.org/ns#"
   xmlns:rdf="http://www.w3.org/1999/02/22-rdf-syntax-ns#"
   xmlns:svg="http://www.w3.org/2000/svg"
   xmlns="http://www.w3.org/2000/svg"
   xmlns:sodipodi="http://sodipodi.sourceforge.net/DTD/sodipodi-0.dtd"
   xmlns:inkscape="http://www.inkscape.org/namespaces/inkscape"
   version="1.1"
   id="Capa_1"
   x="0px"
   y="0px"
   viewBox="0 0 30 30"
   fill="#7a7a7a"

   width="30"
   height="30"
   inkscape:version="0.92.3 (2405546, 2018-03-11)">

<g
   id="g69"
   transform="scale(0.05859375)">
	<g
   id="g67">
		<path fill="#7a7a7a"
   d="M 352,0 H 160 C 71.648,0 0,71.648 0,160 v 192 c 0,88.352 71.648,160 160,160 h 192 c 88.352,0 160,-71.648 160,-160 V 160 C 512,71.648 440.352,0 352,0 Z m 112,352 c 0,61.76 -50.24,112 -112,112 H 160 C 98.24,464 48,413.76 48,352 V 160 C 48,98.24 98.24,48 160,48 h 192 c 61.76,0 112,50.24 112,112 z"
   id="path65"
   inkscape:connector-curvature="0" />
	</g>
</g>
<g fill="#7a7a7a"
   id="g75"
   transform="scale(0.05859375)">
	<g
   id="g73">
		<path
   d="m 256,128 c -70.688,0 -128,57.312 -128,128 0,70.688 57.312,128 128,128 70.688,0 128,-57.312 128,-128 0,-70.688 -57.312,-128 -128,-128 z m 0,208 c -44.096,0 -80,-35.904 -80,-80 0,-44.128 35.904,-80 80,-80 44.096,0 80,35.872 80,80 0,44.096 -35.904,80 -80,80 z"
   id="path71"
   inkscape:connector-curvature="0" />
	</g>
</g>
<g
   id="g81"
   transform="scale(0.05859375)">
	<g
   id="g79">
		<circle
   cx="393.60001"
   cy="118.4"
   r="17.056"
   id="circle77" />
	</g>
</g>
</svg>