<?xml version="1.0" encoding="UTF-8" standalone="no"?>
<!-- Created with Inkscape (http://www.inkscape.org/) -->

<svg
   xmlns:dc="http://purl.org/dc/elements/1.1/"
   xmlns:cc="http://creativecommons.org/ns#"
   xmlns:rdf="http://www.w3.org/1999/02/22-rdf-syntax-ns#"
   xmlns:svg="http://www.w3.org/2000/svg"
   xmlns="http://www.w3.org/2000/svg"
   xmlns:sodipodi="http://sodipodi.sourceforge.net/DTD/sodipodi-0.dtd"
   xmlns:inkscape="http://www.inkscape.org/namespaces/inkscape"
   width="77px"
   height="68px"
   viewBox="0 0 176 155"
   version="1.1"
   fill="#7a7a7a"
   inkscape:version="0.92.3 (2405546, 2018-03-11)"
   sodipodi:docname="logo-footer.svg">
  <g
     inkscape:label="Layer 1"
     inkscape:groupmode="layer"
     id="layer1"
     transform="translate(0,-142)">
    <path
       d="m 121.05219,295.1344 v -4.91266 c 30.22099,0 44.6167,-22.74249 48.3594,-36.18226 4.64956,-16.60042 0.80324,-33.65868 -12.47343,-55.31188 -8.86582,-14.46948 -29.52998,-40.06719 -35.88597,-47.85261 -4.37415,5.35636 -15.52344,19.14516 -24.894388,31.88524 l -3.95682,-2.90943 c 11.975478,-16.27774 26.811468,-34.23384 26.958838,-34.41289 l 1.89237,-2.28689 1.89239,2.28689 c 1.11719,1.35242 27.50775,33.30431 38.17999,50.72201 14.05199,22.91609 18.06666,41.17389 13.01722,59.2002 -3.83059,13.75565 -19.85731,39.77428 -53.0896,39.77428 z"
       id="path3730"
       inkscape:connector-curvature="0"
       style="stroke-width:1.75387025" />
    <g
       id="g3738"
       transform="matrix(1.7538704,0,0,1.7538703,-656.51925,-284.68986)">
      <g
         id="g3736">
        <path
           d="m 411.191,330.545 -0.924,-4.99 c -4.898,4.713 -11.553,5.545 -15.896,5.638 -12.847,0.093 -19.409,-7.856 -19.409,-15.249 0,-7.486 6.47,-15.343 20.241,-15.527 3.327,0 10.259,1.109 14.972,3.881 v -4.066 c 0,-10.721 -8.226,-13.863 -16.266,-13.863 -4.714,0 -9.058,1.294 -13.309,3.974 l -1.571,-2.403 c 4.344,-3.05 9.797,-4.621 14.973,-4.621 9.612,0 19.501,4.437 19.501,16.913 v 30.314 h -2.312 z m -1.017,-23.29 c -4.621,-2.865 -10.721,-3.882 -14.88,-3.882 -11.368,0 -17.006,6.377 -17.006,12.57 0,6.1 5.453,12.199 16.082,12.199 4.991,0 12.107,-1.849 15.804,-6.285 z"
           id="path3732"
           inkscape:connector-curvature="0" />
        <path
           d="m 436.883,330.73 c -7.486,0.369 -12.848,-3.42 -12.848,-12.2 v -32.255 h -7.393 v -2.588 h 7.393 v -12.2 l 3.235,-0.647 v 12.847 h 8.872 v 2.588 h -8.872 v 32.255 c 0,6.008 3.235,9.52 9.612,9.52 v 2.68 z"
           id="path3734"
           inkscape:connector-curvature="0" />
      </g>
    </g>
  </g>
</svg>
